<svg width="23" height="24" viewBox="0 0 23 24" fill="none" xmlns="http://www.w3.org/2000/svg">
<path fill-rule="evenodd" clip-rule="evenodd" d="M21.7072 1.30976C22.316 1.91857 21.9395 3.2822 20.8662 4.35552L4.1483 21.0734C3.07499 22.1467 1.71135 22.5232 1.10254 21.9144C0.493728 21.3056 0.870284 19.942 1.9436 18.8687L18.6615 2.15081C19.7348 1.0775 21.0984 0.700944 21.7072 1.30976Z" fill="#392E2A"/>
<path fill-rule="evenodd" clip-rule="evenodd" d="M21.7264 21.707C21.1176 22.3158 19.7539 21.9392 18.6806 20.8659L1.96276 4.14806C0.889443 3.07475 0.512887 1.71111 1.1217 1.1023C1.73051 0.493484 3.09415 0.87004 4.16746 1.94335L20.8853 18.6612C21.9586 19.7345 22.3352 21.0982 21.7264 21.707Z" fill="#392E2A"/>
</svg>
