<svg width="40" height="40" viewBox="0 0 40 40" fill="none" xmlns="http://www.w3.org/2000/svg">
<g clip-path="url(#clip0_478_27)">
<path d="M40 35C40 37.75 37.75 40 35 40H5C2.25 40 0 37.75 0 35V5C0 2.25 2.25 0 5 0H35C37.75 0 40 2.25 40 5V35Z" fill="#3C579E"/>
<path d="M21.524 40V24.4338H15.9678V18.8828H21.5253V13.7591C21.5253 8.59125 24.5765 5.54688 29.1859 5.54688C31.3946 5.54688 33.1965 5.78312 33.75 5.85656V11.6606L30.0393 11.6591C27.5325 11.6591 27.0634 12.9025 27.0634 14.6503V18.8828H33.4871L32.5796 24.4338H27.0634V40H21.524Z" fill="white"/>
</g>
<defs>
<clipPath id="clip0_478_27">
<rect width="40" height="40" fill="white"/>
</clipPath>
</defs>
</svg>
