<svg width="40" height="40" viewBox="0 0 40 40" fill="none" xmlns="http://www.w3.org/2000/svg">
<g clip-path="url(#clip0_478_26)">
<path d="M7 40L33 40C36.866 40 40 36.866 40 33L40 7C40 3.13401 36.866 0 33 0L7 0C3.13401 0 0 3.13401 0 7L0 33C0 36.866 3.13401 40 7 40Z" fill="url(#paint0_radial_478_26)"/>
<path d="M27.5 35H12.5C10.5109 35 8.60322 34.2098 7.1967 32.8033C5.79018 31.3968 5 29.4891 5 27.5V12.5C5 10.5109 5.79018 8.60322 7.1967 7.1967C8.60322 5.79018 10.5109 5 12.5 5H27.5C29.4891 5 31.3968 5.79018 32.8033 7.1967C34.2098 8.60322 35 10.5109 35 12.5V27.5C35 29.4891 34.2098 31.3968 32.8033 32.8033C31.3968 34.2098 29.4891 35 27.5 35ZM12.5 8C11.307 8.00165 10.1634 8.47629 9.31985 9.31985C8.47629 10.1634 8.00165 11.307 8 12.5V27.5C8.00165 28.693 8.47629 29.8366 9.31985 30.6802C10.1634 31.5237 11.307 31.9983 12.5 32H27.5C28.693 31.9983 29.8366 31.5237 30.6802 30.6802C31.5237 29.8366 31.9983 28.693 32 27.5V12.5C31.9983 11.307 31.5237 10.1634 30.6802 9.31985C29.8366 8.47629 28.693 8.00165 27.5 8H12.5Z" fill="white"/>
<path d="M20 28.5C18.3189 28.5 16.6755 28.0015 15.2777 27.0675C13.8798 26.1335 12.7904 24.806 12.147 23.2528C11.5037 21.6996 11.3354 19.9906 11.6633 18.3417C11.9913 16.6929 12.8009 15.1783 13.9896 13.9896C15.1783 12.8009 16.6929 11.9913 18.3417 11.6633C19.9906 11.3354 21.6996 11.5037 23.2528 12.147C24.806 12.7904 26.1335 13.8798 27.0675 15.2777C28.0015 16.6755 28.5 18.3189 28.5 20C28.4983 22.2538 27.6023 24.4149 26.0086 26.0086C24.4149 27.6023 22.2538 28.4983 20 28.5ZM20 14.5C18.9122 14.5 17.8488 14.8226 16.9444 15.4269C16.0399 16.0313 15.3349 16.8903 14.9187 17.8952C14.5024 18.9002 14.3935 20.0061 14.6057 21.073C14.8179 22.1399 15.3417 23.1199 16.1109 23.8891C16.8801 24.6583 17.8601 25.1821 18.927 25.3943C19.9939 25.6065 21.0998 25.4976 22.1048 25.0813C23.1098 24.6651 23.9687 23.9601 24.5731 23.0556C25.1774 22.1512 25.5 21.0878 25.5 20C25.4984 18.5418 24.9184 17.1438 23.8873 16.1127C22.8562 15.0817 21.4582 14.5017 20 14.5Z" fill="white"/>
<path d="M28.5 13.5C29.3284 13.5 30 12.8284 30 12C30 11.1716 29.3284 10.5 28.5 10.5C27.6716 10.5 27 11.1716 27 12C27 12.8284 27.6716 13.5 28.5 13.5Z" fill="white"/>
</g>
<defs>
<radialGradient id="paint0_radial_478_26" cx="0" cy="0" r="1" gradientUnits="userSpaceOnUse" gradientTransform="translate(-0.804685 39.1875) rotate(180) scale(92.3719)">
<stop stop-color="#F9ED32"/>
<stop offset="0.36" stop-color="#EE2A7B"/>
<stop offset="0.44" stop-color="#D22A8A"/>
<stop offset="0.6" stop-color="#8B2AB2"/>
<stop offset="0.83" stop-color="#1B2AF0"/>
<stop offset="0.88" stop-color="#002AFF"/>
</radialGradient>
<clipPath id="clip0_478_26">
<rect width="40" height="40" fill="white"/>
</clipPath>
</defs>
</svg>
