<svg width="137" height="40" viewBox="0 0 137 40" fill="none" xmlns="http://www.w3.org/2000/svg">
<path d="M16.5238 39.6712C16.3319 39.4625 16.2194 39.2639 16.19 39.0821C16.1656 38.9313 16.112 38.6473 16.0708 38.4509C15.9798 38.0172 15.3893 36.1646 15.2626 35.9154C15.2084 35.8089 14.844 35.5399 14.3633 35.2516C13.4233 34.6879 12.1935 33.7595 12.2219 33.635C12.2326 33.5878 12.2122 33.5672 12.1764 33.5894C12.0792 33.6496 11.1695 32.7762 10.5174 31.9966C9.96205 31.3327 9.10398 30.116 8.86932 29.6597L8.7548 29.437L8.12873 29.6531C7.42632 29.8955 6.3961 29.998 6.12478 29.8524C5.92669 29.7461 5.92673 29.4823 6.12478 29.1287C6.27279 28.8646 6.34864 28.8143 7.18212 28.4272C7.70367 28.185 7.44599 27.6163 6.6565 27.2672C6.22548 27.0767 5.3389 27.0405 5.04593 27.2015C4.60438 27.4443 4.5627 27.8578 4.9415 28.2377C5.07987 28.3764 5.21892 28.49 5.25049 28.49C5.45702 28.49 5.56326 29.4594 5.36508 29.5357C5.18014 29.6069 4.85383 29.4191 4.48769 29.0309C3.82744 28.3309 3.69616 27.8744 3.51659 25.6544C3.29408 22.9037 3.4065 21.6372 4.12918 18.7528C4.20657 18.4439 4.2559 18.1771 4.2388 18.16C4.22169 18.1428 4.13275 18.251 4.04115 18.4003C3.78729 18.8142 3.33806 19.2753 3.04038 19.4276C2.88204 19.5086 2.62723 19.5644 2.41557 19.5644C2.03345 19.5644 1.46104 19.3764 1.52536 19.272C1.54673 19.2373 1.50922 19.2301 1.44202 19.256C1.36513 19.2856 1.33707 19.275 1.36635 19.2275C1.39271 19.1848 1.35994 19.1563 1.29074 19.1619C1.22357 19.1672 1.16783 19.1342 1.16689 19.0883C1.16596 19.0425 1.13601 18.9783 1.10035 18.9455C1.06269 18.911 1.057 18.9234 1.08675 18.9753C1.2049 19.1811 0.983795 19.04 0.683082 18.7177C0.244486 18.2475 0.049893 17.8395 0.00667062 17.2995C-0.0923776 16.0621 0.90764 15.2393 3.272 14.6126C4.02024 14.4142 5.52712 14.1518 6.09033 14.1218C6.2927 14.111 6.45292 14.074 6.44637 14.0396C6.43982 14.0051 6.47897 13.9607 6.53337 13.9409C6.59972 13.9167 6.61369 13.9351 6.57578 13.9966C6.53844 14.0571 6.54756 14.0707 6.60263 14.0366C6.64849 14.0082 6.66856 13.9566 6.64724 13.922C6.59418 13.8359 6.88071 13.6905 6.98098 13.7526C7.03118 13.7837 7.04202 13.7707 7.00963 13.7181C6.91193 13.5597 9.00717 12.7095 9.49541 12.7095C9.62116 12.7095 9.78134 12.566 10.1132 12.1561C10.776 11.3373 11.2494 10.8499 11.3321 10.9011C11.3724 10.926 11.3871 10.9169 11.3648 10.8808C11.3014 10.7779 12.1465 9.91795 12.7362 9.48549C14.4895 8.19959 16.4906 7.21486 18.3125 6.74145C18.5541 6.67866 18.7742 6.61343 18.8015 6.59649C18.8289 6.57955 18.4516 5.7408 17.9632 4.7326C17.4747 3.7244 17.0918 2.85584 17.1122 2.80247C17.1327 2.7491 17.1211 2.72298 17.0864 2.74443C17.0055 2.7946 16.9222 2.58104 16.9838 2.48116C17.0095 2.43936 16.9983 2.42518 16.9588 2.44966C16.9193 2.47413 16.8513 2.41555 16.8076 2.31948C16.7516 2.19613 16.6334 2.12085 16.4055 2.06331C15.7545 1.89892 15.4407 1.23848 15.7166 0.613112C15.895 0.208593 16.2135 0 16.6526 0C17.4193 0 17.9215 0.745622 17.6454 1.47405C17.5939 1.60989 17.5528 1.64457 17.5153 1.58382C17.4837 1.53244 17.4629 1.5982 17.466 1.73981C17.469 1.87445 17.4917 1.97217 17.5165 1.95697C17.5413 1.94176 17.6277 2.08152 17.7085 2.26753C17.7893 2.45355 18.4348 3.84283 19.1429 5.35482C19.851 6.86682 20.6618 8.60701 20.9447 9.22192L21.459 10.3399L21.9575 10.4624C26.1237 11.4855 29.3402 14.8391 30.208 19.0645C30.294 19.4831 30.4662 20.9221 30.4666 21.2245C30.4666 21.254 31.0094 21.2781 31.6728 21.2781H32.8789L32.9293 20.9411C33.0112 20.3936 32.9062 18.5924 32.7431 17.7475C32.4275 16.1116 31.7933 14.5679 30.8651 13.1757C30.6086 12.7911 30.4189 12.4435 30.4437 12.4034C30.4684 12.3632 30.4581 12.3494 30.4208 12.3725C30.3434 12.4204 29.2813 11.224 29.3113 11.1227C29.322 11.0863 29.3022 11.0743 29.2672 11.0961C29.2321 11.1178 28.967 10.9258 28.6779 10.6695C26.8675 9.06386 24.4711 7.99963 21.9633 7.68742L21.257 7.5995L20.9558 6.94767L20.6546 6.29584L21.4128 6.24392C23.9674 6.06901 26.6954 6.61701 29.0967 7.78744C29.6552 8.05968 30.1279 8.28242 30.147 8.28242C30.1661 8.28242 30.1818 8.25334 30.1818 8.2178C30.1818 8.18227 30.4061 7.68116 30.6802 7.10424C30.9544 6.52732 31.1787 6.04628 31.1787 6.03528C31.1787 6.02427 31.3592 5.63371 31.5798 5.16736C33.1233 1.90494 33.1202 1.91268 32.9989 1.6572C32.4798 0.563379 33.7353 -0.423594 34.6365 0.36985C35.2729 0.930214 35.0186 1.91817 34.1734 2.16841L33.8751 2.25674L31.8504 6.44453C30.7369 8.74781 29.8258 10.6667 29.8258 10.7088C29.8258 10.7508 30.0195 10.994 30.2562 11.2492C30.4929 11.5043 30.6668 11.7453 30.6425 11.7847C30.6183 11.824 30.6358 11.8474 30.6815 11.8366C30.8333 11.8007 31.7412 13.1599 32.2424 14.1733C33.231 16.1725 33.6289 17.881 33.6271 20.1178L33.6261 21.2781H35.1845H36.7429L36.4935 21.0422C36.1957 20.7605 36.1169 20.5004 36.2225 20.147C36.2883 19.927 36.5664 19.449 36.836 19.0927C37.0045 18.87 36.2902 16.5927 35.6289 15.2444C34.6844 13.3186 33.4133 11.705 31.732 10.2976L31.1112 9.77796L31.2641 9.46242L31.417 9.14688L31.7073 9.37178C32.3791 9.89227 32.8132 10.3006 32.7697 10.3712C32.7441 10.4127 32.7559 10.4264 32.7959 10.4016C32.8665 10.3578 33.0679 10.5305 33.114 10.6745C33.1266 10.7137 33.1645 10.7366 33.1983 10.7254C33.2856 10.6962 33.4527 10.9442 33.4039 11.0307C33.3816 11.0704 33.3895 11.0791 33.4215 11.05C33.5012 10.9775 33.6805 11.1366 33.6235 11.2291C33.5976 11.2712 33.6119 11.2823 33.6565 11.2546C33.7591 11.191 34.652 12.2674 35.2554 13.1818C36.1584 14.5505 36.8026 15.9546 37.2338 17.4936C37.3603 17.9453 37.4728 18.3254 37.4838 18.3384C37.4948 18.3514 37.6907 18.2095 37.919 18.023C38.463 17.5787 38.9927 17.3416 39.5401 17.2976C40.0266 17.2584 40.2753 17.3463 40.5685 17.661C40.8011 17.9107 40.9481 18.5662 40.8909 19.0986C40.7955 19.9859 40.526 20.4011 39.9078 20.613L39.5454 20.7372L40.0083 20.7927C41.1597 20.931 41.5425 21.003 41.8502 21.1394C42.4418 21.4018 42.7262 21.8086 42.4863 22.0493C42.3473 22.1886 42.064 22.1479 41.7752 21.9472C41.6266 21.844 41.3205 21.7147 41.0949 21.6599C40.6879 21.5611 38.3705 21.4338 38.3705 21.5103C38.3705 21.5322 38.5103 21.6323 38.6812 21.7327C39.1097 21.9845 39.4139 22.3538 39.7152 22.9881C39.9546 23.492 39.9714 23.5728 39.972 24.2212C39.9727 24.8406 39.9559 24.9319 39.8165 25.072C39.4792 25.411 38.6 25.2006 37.9871 24.6341C37.6732 24.344 37.6634 24.3403 37.6286 24.5028C37.609 24.5946 37.5398 24.9269 37.475 25.241C36.7555 28.7262 34.563 32.1503 31.6593 34.3237C31.0401 34.7871 30.9702 34.867 31.1085 34.9527C31.2604 35.0469 31.4839 35.6075 31.5761 36.1258C31.6901 36.7667 31.7038 37.7827 31.6064 38.3795C31.5186 38.9178 31.2237 39.3691 30.9381 39.4024C30.7034 39.4297 30.5704 39.3225 30.1311 38.7515C29.8923 38.4411 29.8321 38.3151 29.8895 38.2458C29.946 38.1775 29.9391 38.1534 29.8633 38.1534C29.8069 38.1534 29.7773 38.1802 29.7975 38.2129C29.8176 38.2456 29.8172 38.2724 29.7965 38.2724C29.7372 38.2724 29.0939 37.2883 28.7929 36.7372C28.6427 36.4623 28.5148 36.2296 28.5087 36.22C28.5025 36.2104 28.2276 36.3022 27.8977 36.4238C25.887 37.1654 24.3284 37.4439 22.2422 37.4343C20.8679 37.4279 19.9035 37.3163 18.6584 37.0196C18.2538 36.9232 17.9133 36.8443 17.9017 36.8443C17.89 36.8443 17.8968 36.9898 17.9168 37.1675C17.9796 37.726 17.6419 39.4442 17.3944 39.8255C17.2125 40.1057 16.8666 40.0444 16.5236 39.6712H16.5238ZM29.731 37.9511C29.731 37.8922 29.7154 37.8596 29.6965 37.8786C29.6775 37.8976 29.6164 37.8574 29.5606 37.7893C29.4496 37.6536 29.5142 37.8161 29.6321 37.9689C29.7202 38.0832 29.731 38.0812 29.731 37.9511ZM22.7053 36.7085C22.6465 36.6754 22.3902 36.6265 22.1356 36.5998C21.5519 36.5386 20.5045 36.2767 19.6963 35.99C17.4607 35.197 15.4693 33.7902 13.979 31.951C13.4829 31.3389 13.3509 31.1345 13.5188 31.2385C13.5599 31.264 13.5706 31.2336 13.5445 31.1654C13.5125 31.0818 13.4849 31.0728 13.4474 31.1336C13.4098 31.1946 13.3813 31.1963 13.3463 31.1396C13.3195 31.0961 13.3205 31.0234 13.3484 30.9781C13.3779 30.9301 13.3681 30.9149 13.3248 30.9418C13.2338 30.9982 12.9978 30.6563 13.0591 30.5569C13.0832 30.5178 13.0649 30.4946 13.0184 30.5054C12.9105 30.5304 12.2552 29.3055 11.9141 28.4411C11.7438 28.0096 11.6238 27.7946 11.5712 27.8265C11.5266 27.8535 11.2603 28.0299 10.9793 28.2185C10.6983 28.4072 10.2257 28.6928 9.92899 28.8533C9.63233 29.0137 9.3896 29.1598 9.3896 29.1779C9.3896 29.2833 10.5174 30.91 10.9626 31.4467C11.2528 31.7965 11.4795 32.1178 11.4665 32.1607C11.4534 32.2036 11.4657 32.2157 11.4937 32.1876C11.5218 32.1595 11.8208 32.3959 12.1583 32.713C14.8807 35.2708 18.4487 36.7237 22.1 36.7613C22.5184 36.7656 22.768 36.7438 22.7052 36.7085H22.7053ZM25.515 35.9844C27.2745 35.7823 29.3671 35.0683 30.5521 34.2658C33.8771 32.0141 36.2354 28.4127 36.9129 24.5523C37.0554 23.7404 37.046 23.5664 36.8434 23.2675C36.7475 23.1259 36.6493 22.9314 36.6252 22.8351C36.5862 22.6793 36.6132 22.6506 36.8708 22.5732C37.1367 22.4933 37.1602 22.4662 37.1602 22.2392V21.9921H36.5203H35.8805L35.6571 22.4384C35.1259 23.4992 34.2168 24.5707 33.2747 25.2464C30.9499 26.9138 27.893 27.1551 25.3043 25.8757C23.8592 25.1614 22.6104 23.9212 21.879 22.4741L21.6354 21.9921H20.0684H18.5014L18.546 22.1885C18.6526 22.6572 19.0844 23.8743 19.2913 24.2893C20.3613 26.4357 22.3301 28.1502 24.6004 28.913C26.4387 29.5306 28.7098 29.5019 30.4814 28.8387C30.8062 28.7171 31.1414 28.613 31.2263 28.6073C31.3112 28.6017 31.3674 28.5838 31.3512 28.5676C31.3351 28.5514 31.5701 28.3967 31.8734 28.2237C32.1768 28.0508 32.6493 27.7374 32.9234 27.5273C33.4163 27.1495 34.4209 26.1757 34.5426 25.9577C34.5772 25.8957 34.6405 25.8667 34.6833 25.8932C34.7261 25.9198 34.7413 25.9092 34.7169 25.8697C34.6624 25.7811 35.0065 25.305 35.1054 25.3321C35.1448 25.3429 35.1567 25.3187 35.1318 25.2784C35.107 25.2381 35.2021 25.0174 35.3433 24.7881C35.4845 24.5587 35.7287 24.0527 35.886 23.6636C36.0433 23.2745 36.1519 23.0525 36.1273 23.1703C35.9473 24.033 34.7273 26.3658 34.5225 26.2388C34.4859 26.2161 34.4744 26.2458 34.497 26.3048C34.566 26.4852 33.1693 27.8242 32.333 28.3793C30.7201 29.4498 29.1055 29.9373 27.1557 29.9424C24.8253 29.9486 22.9442 29.2639 21.0443 27.7179C20.2518 27.073 19.0163 25.5298 19.1057 25.2963C19.1264 25.2422 19.1114 25.2177 19.0724 25.2419C19.0334 25.266 18.9823 25.2356 18.9588 25.1742C18.8858 24.9835 18.809 25.0505 18.7619 25.3458C18.7024 25.7193 18.5721 25.9973 18.4827 25.9418C18.4432 25.9174 18.4314 25.9306 18.4565 25.9714C18.5213 26.0765 18.2216 26.4354 18.1061 26.391C18.0534 26.3707 17.9882 26.3898 17.9613 26.4334C17.9296 26.4847 17.9453 26.4923 18.0056 26.4549C18.0653 26.4179 18.0816 26.4251 18.0509 26.475C18.0245 26.5178 17.8193 26.6223 17.5948 26.7073C17.266 26.8318 17.09 26.8544 16.6883 26.8241C16.4142 26.8035 16.115 26.7637 16.0234 26.7357L15.857 26.6849L16.0416 27.0502C16.5444 28.0453 17.558 29.3569 18.4024 30.1053C19.8939 31.4271 21.574 32.2815 23.5355 32.7157C24.5598 32.9425 26.7643 32.9432 27.807 32.717C30.036 32.2336 31.8497 31.24 33.4486 29.6265C33.8961 29.1748 34.6348 28.2518 34.8027 27.9346C34.85 27.8451 34.9155 27.7885 34.9483 27.8088C34.9811 27.8292 35.0039 27.806 34.9991 27.7573C34.9943 27.7086 35.1469 27.3636 35.3382 26.9905C35.5296 26.6174 35.7759 26.0711 35.8856 25.7766C36.1569 25.0485 36.1459 25.2543 35.8716 26.0387C35.4829 27.1503 34.6653 28.6837 34.512 28.5887C34.4622 28.5578 34.4523 28.5718 34.4857 28.6258C34.566 28.7562 33.8379 29.6657 33.0325 30.4409C30.323 33.0487 26.4777 34.1012 22.8121 33.2382C21.8315 33.0073 21.1738 32.761 20.2047 32.2617C18.7491 31.5117 17.2801 30.2611 16.397 29.0201C16.1088 28.6151 16.0802 28.543 16.1647 28.4348C16.2505 28.3249 16.2482 28.3215 16.1434 28.4037C16.0403 28.4845 15.9951 28.4449 15.7775 28.0823C15.3638 27.3932 15.1061 26.8324 14.8288 26.0176C14.6834 25.5905 14.5592 25.2332 14.5527 25.2235C14.5462 25.2139 14.2711 25.4741 13.9413 25.8017C13.6114 26.1293 13.1173 26.5832 12.8432 26.8104C12.569 27.0375 12.3195 27.246 12.2888 27.2737C12.2131 27.3418 12.582 28.3267 12.9831 29.1276C13.1632 29.4873 13.2884 29.8203 13.2613 29.8676C13.2341 29.915 13.2383 29.9299 13.2704 29.9007C13.3513 29.8271 13.5397 30.1134 13.4771 30.2148C13.4466 30.2645 13.4576 30.2778 13.505 30.2484C13.5486 30.2214 13.6221 30.2723 13.6697 30.3623C14.0211 31.0265 15.4097 32.5778 16.285 33.2841C18.0761 34.7293 20.4025 35.7275 22.5648 35.9786C23.3265 36.067 24.7711 36.0699 25.515 35.9844V35.9844ZM36.0977 25.0923C36.1011 25.0091 36.118 24.9922 36.1407 25.0491C36.1613 25.1007 36.1588 25.1623 36.1351 25.186C36.1114 25.2097 36.0946 25.1676 36.0977 25.0923H36.0977ZM36.1689 22.8073C36.1723 22.7242 36.1892 22.7072 36.2119 22.7642C36.2325 22.8157 36.23 22.8773 36.2063 22.9011C36.1826 22.9248 36.1658 22.8826 36.1689 22.8073H36.1689ZM16.8855 26.7294C16.8373 26.7099 16.7411 26.7087 16.6719 26.7268C16.6026 26.7449 16.642 26.7609 16.7595 26.7623C16.877 26.7638 16.9337 26.749 16.8855 26.7294ZM30.9769 25.6774C32.1923 25.3682 33.2637 24.7767 34.2252 23.884C34.7251 23.4199 35.3265 22.6669 35.5509 22.2242L35.6685 21.9921H34.9859C34.3122 21.9921 34.299 21.9955 33.9694 22.2483C33.5035 22.6057 32.5893 23.036 31.945 23.2013C30.205 23.6475 28.421 23.3338 26.9592 22.3245L26.4778 21.9921H24.5915C23.5541 21.9921 22.7053 22.0119 22.7053 22.0361C22.7053 22.1958 23.4736 23.201 23.993 23.7208C25.1684 24.897 26.6024 25.6211 28.2059 25.8483C28.9341 25.9514 30.2085 25.8728 30.9769 25.6774ZM39.4152 24.0523C39.3631 23.6113 39.1461 23.1965 38.7397 22.7607C38.4641 22.4653 37.9889 22.1349 37.8395 22.1349C37.8183 22.1349 37.8015 22.384 37.8021 22.6883L37.8032 23.2417L38.2366 23.7661C38.52 24.1091 38.7715 24.3361 38.9633 24.4223C39.36 24.6004 39.4693 24.5108 39.4152 24.0523H39.4152ZM32.2699 22.4238C32.5654 22.348 32.9294 22.2213 33.0789 22.1422L33.3506 21.9984L30.8228 21.9982C28.0815 21.9978 28.0612 22.0019 29.1156 22.3434C30.093 22.66 31.2356 22.6891 32.2699 22.4238V22.4238ZM21.6357 21.1325C21.593 21.0525 21.3533 20.7347 21.103 20.4264C20.8528 20.1182 20.6704 19.8411 20.6976 19.8108C20.7248 19.7805 20.7109 19.7764 20.6668 19.8017C20.6226 19.827 20.4464 19.7247 20.2751 19.5745C19.3207 18.7373 17.91 18.0551 16.7833 17.8861L16.4511 17.8363L16.4019 18.254C16.3748 18.4838 16.2767 18.864 16.1839 19.0989L16.0151 19.526L16.2709 19.7886C16.431 19.9531 16.5062 20.0845 16.4719 20.1402C16.4387 20.194 16.4462 20.211 16.491 20.1832C16.5659 20.1369 16.9501 20.5195 17.3215 21.0103L17.5241 21.2781H19.6187C21.7046 21.2781 21.713 21.2774 21.6357 21.1325ZM25.9808 21.141C25.9808 20.9487 25.5769 19.8217 25.3372 19.3451C24.7487 18.175 23.6625 16.8817 22.6011 16.0872C21.6074 15.3433 20.1907 14.7192 18.8957 14.4549C18.1064 14.2937 16.516 14.2736 15.6736 14.4141C15.3505 14.468 15.0862 14.5236 15.0862 14.5376C15.0862 14.5517 15.2152 14.7325 15.3729 14.9395C15.729 15.4069 16.1085 16.1523 16.2275 16.618L16.3177 16.9709L16.9488 17.0551C18.9522 17.3226 20.8277 18.4265 22.0495 20.0574C22.2731 20.3559 22.5361 20.7527 22.6339 20.9391L22.8118 21.2781H24.3963C25.9114 21.2781 25.9808 21.2721 25.9808 21.141ZM29.7909 20.7604C29.6097 18.8625 29.0214 17.1731 28.0019 15.6231C27.3875 14.689 26.0028 13.2807 25.0907 12.6623C22.6815 11.0289 19.9312 10.4418 16.9731 10.9297C16.2629 11.0469 14.9242 11.5005 14.1702 11.8796C13.466 12.2337 12.5935 12.766 12.5946 12.8409C12.5946 12.8668 12.8647 13.0116 13.194 13.1625C13.5232 13.3135 13.9881 13.595 14.227 13.788L14.6613 14.1389L15.1821 14.0021C18.4347 13.1479 21.98 14.1794 24.3206 16.6611C25.0063 17.3882 25.5889 18.2398 25.9705 19.0727C26.2442 19.67 26.5703 20.6063 26.6579 21.046L26.7041 21.2781H28.2723H29.8404L29.7909 20.7604ZM11.5156 20.5974C11.7849 20.3701 11.908 20.0046 11.8652 19.5584C11.8234 19.1223 11.717 18.9931 11.3993 18.9931C11.0718 18.9931 10.6561 19.4117 10.5441 19.8544C10.3601 20.5811 10.9764 21.0524 11.5156 20.5974ZM37.0597 20.2966C36.9819 20.2186 36.9285 20.3427 36.9844 20.4717C37.0373 20.594 37.0412 20.5939 37.0707 20.4692C37.0877 20.3974 37.0827 20.3197 37.0597 20.2966V20.2966ZM38.6199 20.1717C39.839 19.9736 39.8942 19.9516 40.0667 19.5956C40.2448 19.2279 40.3289 18.7881 40.2677 18.5436C40.1989 18.2688 39.8767 17.9934 39.6249 17.9941C39.3062 17.9951 38.7217 18.3572 38.1497 18.9081L37.6537 19.3859L37.7019 19.8321C37.7573 20.3452 37.6948 20.3221 38.6199 20.1717ZM8.00184 19.2566C8.52106 18.7359 8.3603 17.6364 7.76496 17.6364C7.33703 17.6364 6.96863 18.1574 6.96863 18.7624C6.96863 19.1212 7.04566 19.277 7.28905 19.4105C7.54068 19.5485 7.75739 19.5017 8.00184 19.2566ZM12.9165 12.1574C13.7605 11.5554 14.7787 11.0427 15.7827 10.7141C17.077 10.2905 17.8335 10.1746 19.3043 10.1746C20.5051 10.1746 20.5653 10.1681 20.5252 10.0413C20.5019 9.96796 20.2319 9.40042 19.925 8.78009L19.367 7.65223L19.0601 7.6888C17.0904 7.92356 14.9776 8.73786 13.4978 9.83263C12.8135 10.3389 10.7426 12.3324 10.7426 12.4849C10.7426 12.5236 10.9568 12.5783 11.2187 12.6065C11.4806 12.6346 11.777 12.6815 11.8774 12.7106C11.9849 12.7419 12.1077 12.7305 12.1762 12.683C12.2402 12.6387 12.5733 12.4022 12.9165 12.1574ZM30.6448 12.5667C30.669 12.5274 30.6549 12.4953 30.6134 12.4953C30.5719 12.4953 30.538 12.5274 30.538 12.5667C30.538 12.606 30.5521 12.6381 30.5694 12.6381C30.5866 12.6381 30.6206 12.606 30.6448 12.5667ZM29.5813 9.45536L29.8226 8.92449L28.9876 8.5055C26.9732 7.49475 24.8551 6.96084 22.6874 6.91742C21.8508 6.90066 21.6233 6.95527 22.2201 7.02961C23.6758 7.21094 25.3586 7.73835 26.6042 8.40362C27.2659 8.75706 28.3584 9.47881 28.8287 9.87329C29.2718 10.245 29.2059 10.2816 29.5813 9.45536ZM34.3993 1.66061C34.6252 1.44512 34.7693 1.06419 34.7036 0.856406C34.644 0.66807 34.5486 0.731399 34.4902 0.998082C34.4647 1.11442 34.2941 1.37657 34.1112 1.58064C33.78 1.95004 33.7794 1.95144 33.9918 1.89874C34.1091 1.86962 34.2925 1.76247 34.3993 1.66061ZM16.7951 1.81271C16.7951 1.78891 16.7147 1.70601 16.6164 1.62848C16.5181 1.55096 16.4564 1.45717 16.4793 1.42007C16.5022 1.38297 16.4859 1.36145 16.4431 1.37224C16.3689 1.39096 16.1391 1.03198 16.0557 0.767067C15.989 0.555384 15.8694 0.628838 15.8694 0.881466C15.8694 1.19061 16.1262 1.57258 16.4405 1.73092C16.7017 1.86251 16.7951 1.88406 16.7951 1.81271Z" fill="#392E2A"/>
<path d="M71.7686 15.2686C71.8371 15.2686 71.9143 15.3029 72 15.3714C72.1028 15.44 72.1886 15.5429 72.2571 15.68C72.3428 15.8 72.3857 15.9286 72.3857 16.0657C72.3857 16.4257 72.3086 16.88 72.1543 17.4286C70.92 21.56 70.3028 24.4914 70.3028 26.2229C70.3028 27.56 70.6543 28.2286 71.3571 28.2286C71.9743 28.2286 72.7714 27.8 73.7486 26.9429C74.7257 26.0857 75.6771 25.0143 76.6028 23.7286C77.5286 22.4257 78.3171 20.9172 78.9686 19.2029C79.6371 17.4886 79.9714 15.8686 79.9714 14.3429C79.9714 12.7314 79.5257 11.7629 78.6343 11.4372C78.3771 11.3514 78.2486 11.24 78.2486 11.1029C78.2486 11.0686 78.2657 11.0343 78.3 11C78.3343 10.9486 78.3771 10.9143 78.4286 10.8972C78.4971 10.88 78.5743 10.8714 78.66 10.8714C79.3628 10.8714 79.9543 11.1629 80.4343 11.7457C80.9314 12.3114 81.18 13.1343 81.18 14.2143C81.18 15.74 80.7857 17.4286 79.9971 19.28C79.2086 21.1143 78.2657 22.76 77.1686 24.2172C76.0714 25.6572 74.9228 26.8657 73.7228 27.8429C72.54 28.8372 71.5543 29.3343 70.7657 29.3343C69.7028 29.3343 69.1714 28.3743 69.1714 26.4543C69.1714 25.8029 69.2314 25.0314 69.3514 24.14C69.4886 23.2314 69.6257 22.4429 69.7628 21.7743C69.9 21.0886 70.0714 20.3 70.2771 19.4086C70.4828 18.5 70.6114 17.9086 70.6628 17.6343C69.3943 18.6457 68.0571 20.0257 66.6514 21.7743C65.2457 23.5229 64.1828 24.9543 63.4628 26.0686C62.76 27.1829 62.1343 28.22 61.5857 29.18V29.1543C61.1914 29.8914 60.8057 30.26 60.4286 30.26C60.2571 30.26 60.12 30.1829 60.0171 30.0286C59.9314 29.8914 59.8886 29.6943 59.8886 29.4372C59.8886 29.2143 59.9228 28.9829 59.9914 28.7429C60.0428 28.5714 60.4457 27.3543 61.2 25.0914C61.9543 22.8286 62.5886 20.6514 63.1028 18.56C63.6343 16.4686 63.9 14.7629 63.9 13.4429C63.9 12.4657 63.6771 11.7714 63.2314 11.36C62.8028 10.9314 62.0743 10.7172 61.0457 10.7172C60.3943 10.7172 59.6228 10.82 58.7314 11.0257C57.84 11.2314 56.8971 11.5572 55.9028 12.0029C54.9257 12.4486 54.0171 12.9714 53.1771 13.5714C52.3543 14.1543 51.6686 14.8829 51.12 15.7572C50.5714 16.6143 50.2971 17.5229 50.2971 18.4829C50.2971 19.5114 50.7086 20.3772 51.5314 21.08C52.3714 21.7829 53.3228 22.1343 54.3857 22.1343C55.3286 22.1343 56.0057 21.9886 56.4171 21.6972C56.4514 21.6629 56.4857 21.6372 56.52 21.62C56.5714 21.6029 56.6143 21.5943 56.6486 21.5943C56.6828 21.5772 56.7171 21.5686 56.7514 21.5686C56.8543 21.5686 56.9057 21.6114 56.9057 21.6972C56.9057 21.8172 56.7857 21.9457 56.5457 22.0829C56.0486 22.3743 55.2771 22.52 54.2314 22.52C54.0771 22.52 53.8971 22.52 53.6914 22.52C52.5428 22.4857 51.5143 22.0829 50.6057 21.3114C49.7143 20.54 49.2686 19.5714 49.2686 18.4057C49.2686 17.2572 49.6628 16.1514 50.4514 15.0886C51.2571 14.0086 52.2514 13.1257 53.4343 12.44C54.6343 11.7372 55.9028 11.18 57.24 10.7686C58.5943 10.34 59.8457 10.1257 60.9943 10.1257C63.9257 10.1257 65.3914 11.42 65.3914 14.0086C65.3914 14.54 65.34 15.0972 65.2371 15.68C65.1514 16.2629 64.98 16.9572 64.7228 17.7629C64.4828 18.5514 64.3028 19.1257 64.1828 19.4857C64.0628 19.8286 63.8057 20.5143 63.4114 21.5429C63.0343 22.5714 62.82 23.1457 62.7686 23.2657C62.2028 24.8429 61.8686 26.0686 61.7657 26.9429C65.3828 22.3829 68.0228 19.1686 69.6857 17.3C69.8228 17.1457 69.9943 16.9486 70.2 16.7086C70.7143 16.1257 71.0657 15.74 71.2543 15.5514C71.46 15.3629 71.6314 15.2686 71.7686 15.2686Z" fill="#392E2A"/>
<path d="M86.319 20.0514C86.6447 20.1029 86.8076 20.1972 86.8076 20.3343C86.8076 20.4714 86.679 20.6086 86.4219 20.7457C86.1647 20.8657 85.9333 20.9257 85.7276 20.9257C85.7276 22.9314 85.2047 24.6457 84.159 26.0686C83.1133 27.4914 82.0762 28.2029 81.0476 28.2029C80.0533 28.2029 79.5562 27.4829 79.5562 26.0429C79.5562 25.6486 79.5905 25.2543 79.659 24.86C79.7447 24.4143 79.899 23.84 80.1219 23.1372C80.3447 22.4343 80.6362 21.6714 80.9962 20.8486C81.3562 20.0257 81.7933 19.3314 82.3076 18.7657C82.839 18.1829 83.3705 17.8914 83.9019 17.8914H84.0819C84.0819 17.6514 84.1505 17.4457 84.2876 17.2743C84.4247 17.1029 84.6133 17.0172 84.8533 17.0172C85.0933 17.0343 85.3076 17.54 85.4962 18.5343C85.6847 19.5114 85.959 20.0172 86.319 20.0514ZM85.0076 20.72C84.8533 20.6343 84.6647 20.3343 84.4419 19.82C84.219 19.2886 84.0647 19.0229 83.979 19.0229C83.4476 19.0229 82.8305 19.8114 82.1276 21.3886C81.4247 22.9486 80.9876 24.1829 80.8162 25.0914C80.7476 25.4857 80.7133 25.8457 80.7133 26.1714C80.7133 27.0114 80.9533 27.4314 81.4333 27.4314C82.119 27.4314 82.8819 26.7372 83.7219 25.3486C84.579 23.9429 85.0076 22.4 85.0076 20.72Z" fill="#392E2A"/>
<path d="M93.0238 20.0514C93.3495 20.1029 93.5124 20.1972 93.5124 20.3343C93.5124 20.4714 93.3838 20.6086 93.1267 20.7457C92.8695 20.8657 92.6381 20.9257 92.4324 20.9257C92.4324 22.9314 91.9095 24.6457 90.8638 26.0686C89.8181 27.4914 88.781 28.2029 87.7524 28.2029C86.7581 28.2029 86.261 27.4829 86.261 26.0429C86.261 25.6486 86.2953 25.2543 86.3638 24.86C86.4495 24.4143 86.6038 23.84 86.8267 23.1372C87.0495 22.4343 87.341 21.6714 87.701 20.8486C88.061 20.0257 88.4981 19.3314 89.0124 18.7657C89.5438 18.1829 90.0753 17.8914 90.6067 17.8914H90.7867C90.7867 17.6514 90.8553 17.4457 90.9924 17.2743C91.1295 17.1029 91.3181 17.0172 91.5581 17.0172C91.7981 17.0343 92.0124 17.54 92.201 18.5343C92.3895 19.5114 92.6638 20.0172 93.0238 20.0514ZM91.7124 20.72C91.5581 20.6343 91.3695 20.3343 91.1467 19.82C90.9238 19.2886 90.7695 19.0229 90.6838 19.0229C90.1524 19.0229 89.5353 19.8114 88.8324 21.3886C88.1295 22.9486 87.6924 24.1829 87.521 25.0914C87.4524 25.4857 87.4181 25.8457 87.4181 26.1714C87.4181 27.0114 87.6581 27.4314 88.1381 27.4314C88.8238 27.4314 89.5867 26.7372 90.4267 25.3486C91.2838 23.9429 91.7124 22.4 91.7124 20.72Z" fill="#392E2A"/>
<path d="M99.3429 11.6943C98.4001 13.6486 97.4401 16.0143 96.4629 18.7914C95.4858 21.5514 94.7658 23.9686 94.3029 26.0429C94.2858 26.0943 94.2772 26.1629 94.2772 26.2486C94.2772 26.4543 94.3629 26.5572 94.5343 26.5572C94.6372 26.5572 94.9115 26.4286 95.3572 26.1714C95.82 25.9143 96.1115 25.7857 96.2315 25.7857C96.3343 25.7857 96.4115 25.82 96.4629 25.8886C96.4629 26.0943 96.0343 26.48 95.1772 27.0457C94.3201 27.5943 93.7115 27.8686 93.3515 27.8686C93.0258 27.8686 92.8629 27.7143 92.8629 27.4057C92.8629 27.2343 92.8972 27.0543 92.9658 26.8657C93.4115 25.6486 93.8229 24.44 94.2001 23.24C94.5943 22.04 95.0401 20.6172 95.5372 18.9714C96.0343 17.3086 96.4029 16.0829 96.6429 15.2943C96.6943 15.14 96.7201 14.9857 96.7201 14.8314C96.7201 14.7629 96.7029 14.7029 96.6686 14.6514C96.6515 14.5829 96.6429 14.5229 96.6429 14.4714C96.6429 14.42 96.6686 14.3172 96.7201 14.1629C97.0629 13.0829 97.3801 12.3629 97.6715 12.0029C97.9629 11.6429 98.3915 11.4629 98.9572 11.4629C99.1972 11.4629 99.3258 11.54 99.3429 11.6943Z" fill="#392E2A"/>
<path d="M123.25 16.1172C123.353 16.2029 123.404 16.2714 123.404 16.3229C123.37 16.3914 123.293 16.4343 123.173 16.4514C123.035 16.4514 122.907 16.4172 122.787 16.3486C122.375 16.16 121.853 15.6457 121.218 14.8057C121.013 18.1657 120.618 20.9172 120.035 23.06C119.487 25.0829 118.938 26.5657 118.39 27.5086C117.858 28.4343 117.344 28.8972 116.847 28.8972C116.315 28.8972 115.793 28.3743 115.278 27.3286C114.764 26.2657 114.327 24.98 113.967 23.4714C113.607 21.9629 113.315 20.3857 113.093 18.74C112.887 17.0772 112.784 15.6286 112.784 14.3943C112.784 14.2229 112.835 14.0772 112.938 13.9572C113.058 13.82 113.178 13.7514 113.298 13.7514C113.435 13.7514 113.547 13.82 113.633 13.9572C113.718 14.0943 113.77 14.3 113.787 14.5743C113.89 15.9457 114.018 17.2914 114.173 18.6114C114.327 19.9314 114.524 21.3372 114.764 22.8286C115.021 24.32 115.33 25.52 115.69 26.4286C116.067 27.3372 116.47 27.7914 116.898 27.7914C117.687 27.7914 118.561 26.0772 119.521 22.6486C119.693 22.0657 119.838 21.3886 119.958 20.6172C120.095 19.8286 120.198 19.0572 120.267 18.3029C120.353 17.5486 120.413 16.8372 120.447 16.1686C120.481 15.5 120.498 14.9172 120.498 14.42C120.498 14.3 120.498 14.1972 120.498 14.1114C120.498 14.0086 120.498 13.9143 120.498 13.8286C120.327 13.5714 120.198 13.3743 120.113 13.2372C120.027 13.1 119.924 12.92 119.804 12.6972C119.701 12.4743 119.624 12.2514 119.573 12.0286C119.538 11.8057 119.521 11.5657 119.521 11.3086C119.521 11.24 119.521 11.1714 119.521 11.1029C119.538 11.0343 119.547 10.9743 119.547 10.9229C119.564 10.8543 119.581 10.7943 119.598 10.7429C119.615 10.6914 119.633 10.6486 119.65 10.6143C119.684 10.5629 119.71 10.5286 119.727 10.5114C119.761 10.4772 119.787 10.4514 119.804 10.4343C119.838 10.4172 119.873 10.4086 119.907 10.4086C119.975 10.4086 120.044 10.4343 120.113 10.4857C120.181 10.5372 120.258 10.6143 120.344 10.7172C120.533 10.94 120.85 11.6343 121.295 12.8C122.067 14.8229 122.718 15.9286 123.25 16.1172ZM97.4326 24.86C97.4326 24.5514 97.4669 24.2772 97.5355 24.0372C97.604 23.78 97.6812 23.6514 97.7669 23.6514C97.904 23.6514 97.9898 23.8829 98.024 24.3457C98.024 24.5514 98.0583 24.8257 98.1269 25.1686C98.2126 25.4943 98.324 25.88 98.4612 26.3257C98.6155 26.7543 98.8212 27.1914 99.0783 27.6372C99.3355 28.0829 99.6183 28.4857 99.9269 28.8457C100.253 29.2229 100.655 29.5314 101.135 29.7714C101.615 30.0114 102.121 30.1314 102.653 30.1314C102.721 30.1314 102.781 30.1229 102.833 30.1057C102.901 30.1057 102.961 30.1057 103.013 30.1057C103.715 30.0372 104.418 29.6257 105.121 28.8714C105.841 28.1343 106.475 27.26 107.024 26.2486C107.59 25.22 108.155 23.9857 108.721 22.5457C109.304 21.0886 109.767 19.82 110.11 18.74C110.47 17.66 110.847 16.4857 111.241 15.2172C111.635 13.9486 111.884 13.16 111.987 12.8514C111.644 12.7486 110.89 12.5686 109.724 12.3114C108.575 12.0543 107.821 11.9 107.461 11.8486C106.587 11.7114 105.824 11.6429 105.173 11.6429C104.761 11.6429 104.401 11.6772 104.093 11.7457C103.784 11.7972 103.527 11.8829 103.321 12.0029C103.133 12.1057 102.987 12.2343 102.884 12.3886C102.798 12.5257 102.755 12.6972 102.755 12.9029C102.755 13.4857 103.141 14.1972 103.913 15.0372C104.701 15.86 105.773 16.7 107.127 17.5572C107.213 17.6086 107.238 17.6686 107.204 17.7372C107.187 17.7886 107.118 17.8057 106.998 17.7886C105.575 17.4457 104.435 16.8457 103.578 15.9886C102.721 15.1143 102.293 14.2229 102.293 13.3143C102.293 12.56 102.61 11.9429 103.244 11.4629C103.895 10.9829 104.838 10.7429 106.073 10.7429C106.364 10.7429 106.673 10.76 106.998 10.7943C107.341 10.8286 107.693 10.88 108.053 10.9486C108.43 11 108.773 11.06 109.081 11.1286C109.407 11.1972 109.767 11.2829 110.161 11.3857C110.555 11.4886 110.873 11.5743 111.113 11.6429C111.353 11.6943 111.653 11.7714 112.013 11.8743C112.373 11.96 112.604 12.02 112.707 12.0543C112.827 12.0886 112.947 12.1314 113.067 12.1829C113.187 12.2172 113.298 12.26 113.401 12.3114C113.504 12.3629 113.598 12.4143 113.684 12.4657C113.77 12.5172 113.838 12.5686 113.89 12.62C113.941 12.6714 113.967 12.7229 113.967 12.7743C113.967 12.8429 113.89 12.9029 113.735 12.9543C113.598 12.9886 113.375 13.0057 113.067 13.0057H112.887C112.835 13.16 112.621 13.8286 112.244 15.0114C111.884 16.1943 111.524 17.3257 111.164 18.4057C110.821 19.4686 110.393 20.66 109.878 21.98C109.381 23.3 108.935 24.3372 108.541 25.0914C107.564 26.9257 106.535 28.3657 105.455 29.4114C104.375 30.4743 103.287 31.0057 102.19 31.0057C100.853 31.0057 99.5926 30.1657 98.4098 28.4857C97.7583 27.56 97.4326 26.3514 97.4326 24.86Z" fill="#392E2A"/>
<path d="M129.159 20.0514C129.485 20.1029 129.648 20.1972 129.648 20.3343C129.648 20.4714 129.519 20.6086 129.262 20.7457C129.005 20.8657 128.774 20.9257 128.568 20.9257C128.568 22.9314 128.045 24.6457 126.999 26.0686C125.954 27.4914 124.917 28.2029 123.888 28.2029C122.894 28.2029 122.397 27.4829 122.397 26.0429C122.397 25.6486 122.431 25.2543 122.499 24.86C122.585 24.4143 122.739 23.84 122.962 23.1372C123.185 22.4343 123.477 21.6714 123.837 20.8486C124.197 20.0257 124.634 19.3314 125.148 18.7657C125.679 18.1829 126.211 17.8914 126.742 17.8914H126.922C126.922 17.6514 126.991 17.4457 127.128 17.2743C127.265 17.1029 127.454 17.0172 127.694 17.0172C127.934 17.0343 128.148 17.54 128.337 18.5343C128.525 19.5114 128.799 20.0172 129.159 20.0514ZM127.848 20.72C127.694 20.6343 127.505 20.3343 127.282 19.82C127.059 19.2886 126.905 19.0229 126.819 19.0229C126.288 19.0229 125.671 19.8114 124.968 21.3886C124.265 22.9486 123.828 24.1829 123.657 25.0914C123.588 25.4857 123.554 25.8457 123.554 26.1714C123.554 27.0114 123.794 27.4314 124.274 27.4314C124.959 27.4314 125.722 26.7372 126.562 25.3486C127.419 23.9429 127.848 22.4 127.848 20.72Z" fill="#392E2A"/>
<path d="M136.147 20.1286C136.01 20.3172 135.821 20.5057 135.581 20.6943C135.359 20.8657 135.187 20.9514 135.067 20.9514C134.964 20.9514 134.913 20.9 134.913 20.7972C134.913 20.7286 134.99 20.4886 135.144 20.0772C135.316 19.6657 135.401 19.3829 135.401 19.2286C135.401 19.1086 135.359 19.0486 135.273 19.0486C134.673 19.0486 133.781 19.9743 132.599 21.8257C131.433 23.6772 130.567 25.4857 130.001 27.2514C129.899 27.3886 129.736 27.5257 129.513 27.6629C129.29 27.8 129.101 27.8686 128.947 27.8686C128.844 27.8686 128.767 27.8257 128.716 27.74C128.716 27.2772 128.767 26.8572 128.87 26.48C128.99 26.1029 129.136 25.88 129.307 25.8114C129.684 24.3886 129.95 23.3257 130.104 22.6229L130.361 21.5429C130.396 21.4229 130.413 21.2857 130.413 21.1314C130.413 21.0457 130.396 20.9686 130.361 20.9C130.327 20.8314 130.31 20.7629 130.31 20.6943C130.31 20.5914 130.327 20.4972 130.361 20.4114C130.636 19.3314 130.91 18.5943 131.184 18.2C131.476 17.8057 131.896 17.6086 132.444 17.6086C132.65 17.6086 132.77 17.6772 132.804 17.8143C132.787 17.8657 132.659 18.1657 132.419 18.7143C132.196 19.2629 131.981 19.7772 131.776 20.2572C131.587 20.7372 131.373 21.3457 131.133 22.0829C130.893 22.82 130.704 23.4972 130.567 24.1143C131.133 23 132.007 21.6629 133.19 20.1029C134.373 18.5257 135.35 17.7372 136.121 17.7372C136.533 17.7372 136.739 17.9943 136.739 18.5086C136.739 19.04 136.541 19.58 136.147 20.1286Z" fill="#392E2A"/>
<path d="M65.8395 36.8514H65.2509V35.0914L64.5595 35.3943C64.5062 35.3676 64.4605 35.3314 64.4224 35.2857C64.3843 35.24 64.3652 35.181 64.3652 35.1086C64.3652 34.9676 64.4509 34.8648 64.6224 34.8L65.3824 34.4857H65.5195C65.6148 34.4857 65.6909 34.5143 65.7481 34.5714C65.809 34.6286 65.8395 34.7067 65.8395 34.8057V36.8514ZM65.2509 36.4914H65.8395V38C65.8129 38.0114 65.7748 38.021 65.7252 38.0286C65.6757 38.04 65.6224 38.0457 65.5652 38.0457C65.4586 38.0457 65.3786 38.0248 65.3252 37.9829C65.2757 37.941 65.2509 37.8705 65.2509 37.7714V36.4914Z" fill="#392E2A"/>
<path d="M68.8636 36.2629C68.8636 35.9505 68.8274 35.6972 68.755 35.5029C68.6826 35.3086 68.5855 35.1657 68.4636 35.0743C68.3455 34.9829 68.2102 34.9372 68.0579 34.9372C67.9093 34.9372 67.7741 34.9848 67.6522 35.08C67.5302 35.1714 67.4331 35.3162 67.3607 35.5143C67.2922 35.7086 67.2579 35.9581 67.2579 36.2629C67.2579 36.6933 67.3283 37.0229 67.4693 37.2514C67.6102 37.48 67.8064 37.5943 68.0579 37.5943C68.3131 37.5943 68.5112 37.48 68.6522 37.2514C68.7931 37.0229 68.8636 36.6933 68.8636 36.2629ZM68.0579 38.08C67.7836 38.08 67.5398 38.0133 67.3264 37.88C67.1169 37.7467 66.9531 37.5467 66.835 37.28C66.7169 37.0095 66.6579 36.6705 66.6579 36.2629C66.6579 35.8362 66.7226 35.4914 66.8522 35.2286C66.9817 34.9619 67.1531 34.7657 67.3664 34.64C67.5798 34.5143 67.8102 34.4514 68.0579 34.4514C68.3093 34.4514 68.5417 34.5162 68.755 34.6457C68.9683 34.7714 69.1398 34.9676 69.2693 35.2343C69.3988 35.4972 69.4636 35.84 69.4636 36.2629C69.4636 36.6667 69.4026 37.0038 69.2807 37.2743C69.1626 37.541 68.9988 37.7429 68.7893 37.88C68.5798 38.0133 68.336 38.08 68.0579 38.08Z" fill="#392E2A"/>
<path d="M72.2285 36.2629C72.2285 35.9505 72.1923 35.6972 72.12 35.5029C72.0476 35.3086 71.9504 35.1657 71.8285 35.0743C71.7104 34.9829 71.5752 34.9372 71.4228 34.9372C71.2743 34.9372 71.139 34.9848 71.0171 35.08C70.8952 35.1714 70.7981 35.3162 70.7257 35.5143C70.6571 35.7086 70.6228 35.9581 70.6228 36.2629C70.6228 36.6933 70.6933 37.0229 70.8343 37.2514C70.9752 37.48 71.1714 37.5943 71.4228 37.5943C71.6781 37.5943 71.8762 37.48 72.0171 37.2514C72.1581 37.0229 72.2285 36.6933 72.2285 36.2629ZM71.4228 38.08C71.1485 38.08 70.9047 38.0133 70.6914 37.88C70.4819 37.7467 70.3181 37.5467 70.2 37.28C70.0819 37.0095 70.0228 36.6705 70.0228 36.2629C70.0228 35.8362 70.0876 35.4914 70.2171 35.2286C70.3466 34.9619 70.5181 34.7657 70.7314 34.64C70.9447 34.5143 71.1752 34.4514 71.4228 34.4514C71.6743 34.4514 71.9066 34.5162 72.12 34.6457C72.3333 34.7714 72.5047 34.9676 72.6343 35.2343C72.7638 35.4972 72.8285 35.84 72.8285 36.2629C72.8285 36.6667 72.7676 37.0038 72.6457 37.2743C72.5276 37.541 72.3638 37.7429 72.1543 37.88C71.9447 38.0133 71.7009 38.08 71.4228 38.08Z" fill="#392E2A"/>
<path d="M75.0449 35.3143C75.0449 35.5695 74.9649 35.7733 74.8049 35.9257C74.6449 36.0743 74.4468 36.1486 74.2106 36.1486C73.9744 36.1486 73.7764 36.0743 73.6164 35.9257C73.4564 35.7733 73.3763 35.5695 73.3763 35.3143C73.3763 35.0591 73.4564 34.8572 73.6164 34.7086C73.7764 34.5562 73.9744 34.48 74.2106 34.48C74.4468 34.48 74.6449 34.5562 74.8049 34.7086C74.9649 34.8572 75.0449 35.0591 75.0449 35.3143ZM73.8563 35.3143C73.8563 35.4553 73.8887 35.5638 73.9535 35.64C74.0221 35.7124 74.1078 35.7486 74.2106 35.7486C74.3173 35.7486 74.403 35.7124 74.4678 35.64C74.5363 35.5638 74.5706 35.4553 74.5706 35.3143C74.5706 35.1733 74.5363 35.0667 74.4678 34.9943C74.403 34.9181 74.3173 34.88 74.2106 34.88C74.1078 34.88 74.0221 34.9181 73.9535 34.9943C73.8887 35.0667 73.8563 35.1733 73.8563 35.3143ZM74.1878 37.5543L76.2564 34.48C76.3554 34.4914 76.4373 34.5162 76.5021 34.5543C76.5668 34.5924 76.5992 34.6419 76.5992 34.7029C76.5992 34.7448 76.5897 34.7886 76.5706 34.8343C76.5516 34.8762 76.5249 34.9219 76.4906 34.9714L74.4221 38.04C74.323 38.0324 74.2411 38.0076 74.1764 37.9657C74.1116 37.92 74.0792 37.8686 74.0792 37.8114C74.0792 37.7733 74.0887 37.7333 74.1078 37.6914C74.1268 37.6495 74.1535 37.6038 74.1878 37.5543ZM77.2906 37.2057C77.2906 37.4648 77.2106 37.6705 77.0506 37.8229C76.8906 37.9714 76.6925 38.0457 76.4564 38.0457C76.224 38.0457 76.0259 37.9714 75.8621 37.8229C75.7021 37.6705 75.6221 37.4648 75.6221 37.2057C75.6221 36.9505 75.7021 36.7486 75.8621 36.6C76.0259 36.4514 76.224 36.3772 76.4564 36.3772C76.6925 36.3772 76.8906 36.4514 77.0506 36.6C77.2106 36.7486 77.2906 36.9505 77.2906 37.2057ZM76.0963 37.2057C76.0963 37.3467 76.1287 37.4553 76.1935 37.5314C76.2621 37.6076 76.3497 37.6457 76.4564 37.6457C76.5592 37.6457 76.643 37.6076 76.7078 37.5314C76.7764 37.4553 76.8106 37.3467 76.8106 37.2057C76.8106 37.0686 76.7764 36.9638 76.7078 36.8914C76.643 36.8153 76.5592 36.7772 76.4564 36.7772C76.3497 36.7772 76.2621 36.8153 76.1935 36.8914C76.1287 36.9638 76.0963 37.0686 76.0963 37.2057Z" fill="#392E2A"/>
<path d="M81.4992 36.2457V36.8114H80.9106V36.2686C80.9106 36.0781 80.8573 35.9391 80.7506 35.8514C80.6439 35.7638 80.5011 35.72 80.322 35.72C80.1887 35.72 80.0687 35.7372 79.962 35.7714C79.8554 35.8057 79.7639 35.8438 79.6877 35.8857V36.8114H79.0992V35.8743C79.0992 35.7867 79.1163 35.7162 79.1506 35.6629C79.1887 35.6057 79.2477 35.5524 79.3277 35.5029C79.4344 35.4381 79.5734 35.3791 79.7449 35.3257C79.9163 35.2724 80.1087 35.2457 80.322 35.2457C80.6915 35.2457 80.9792 35.3295 81.1849 35.4972C81.3944 35.661 81.4992 35.9105 81.4992 36.2457ZM79.0992 36.5143H79.6877V37.9886C79.6611 37.9962 79.623 38.0057 79.5734 38.0172C79.5277 38.0286 79.4763 38.0343 79.4192 38.0343C79.3125 38.0343 79.2325 38.0133 79.1792 37.9714C79.1258 37.9295 79.0992 37.861 79.0992 37.7657V36.5143ZM80.9106 36.5143H81.4992V37.9886C81.4725 37.9962 81.4344 38.0057 81.3849 38.0172C81.3354 38.0286 81.2839 38.0343 81.2306 38.0343C81.1201 38.0343 81.0382 38.0133 80.9849 37.9714C80.9354 37.9295 80.9106 37.861 80.9106 37.7657V36.5143Z" fill="#392E2A"/>
<path d="M83.2913 37.6229C83.4284 37.6229 83.5446 37.6095 83.6398 37.5829C83.7389 37.5524 83.8113 37.5238 83.857 37.4972V36.76L83.2227 36.8229C83.0475 36.8381 82.9141 36.8781 82.8227 36.9429C82.7351 37.0038 82.6913 37.0953 82.6913 37.2172C82.6913 37.3429 82.7408 37.4419 82.8398 37.5143C82.9389 37.5867 83.0894 37.6229 83.2913 37.6229ZM83.2741 35.2457C83.6284 35.2457 83.9084 35.3238 84.1141 35.48C84.3236 35.6324 84.4284 35.8743 84.4284 36.2057V37.5372C84.4284 37.6248 84.4094 37.6933 84.3713 37.7429C84.3332 37.7924 84.2798 37.8362 84.2113 37.8743C84.1122 37.9314 83.9827 37.9791 83.8227 38.0172C83.6665 38.0591 83.4894 38.08 83.2913 38.08C82.9217 38.08 82.6322 38.0095 82.4227 37.8686C82.217 37.7238 82.1141 37.5124 82.1141 37.2343C82.1141 36.9829 82.196 36.7905 82.3598 36.6572C82.5236 36.52 82.756 36.4381 83.057 36.4114L83.857 36.3314V36.2C83.857 36.0286 83.8017 35.9048 83.6913 35.8286C83.5808 35.7524 83.4303 35.7143 83.2398 35.7143C83.0875 35.7143 82.9389 35.7353 82.7941 35.7772C82.6532 35.8191 82.5275 35.8667 82.417 35.92C82.3827 35.8895 82.3522 35.8533 82.3255 35.8114C82.2989 35.7657 82.2855 35.7181 82.2855 35.6686C82.2855 35.5505 82.3503 35.461 82.4798 35.4C82.5865 35.3505 82.7084 35.3124 82.8455 35.2857C82.9865 35.2591 83.1294 35.2457 83.2741 35.2457Z" fill="#392E2A"/>
<path d="M85.2099 36.4914H85.7928V37.2229C85.7928 37.36 85.8328 37.4572 85.9128 37.5143C85.9928 37.5714 86.1052 37.6 86.2499 37.6C86.3109 37.6 86.3794 37.5905 86.4556 37.5714C86.5318 37.5524 86.5947 37.5295 86.6442 37.5029C86.6709 37.5295 86.6937 37.5638 86.7128 37.6057C86.7356 37.6438 86.7471 37.6876 86.7471 37.7372C86.7471 37.8362 86.6956 37.9181 86.5928 37.9829C86.4937 38.0438 86.3433 38.0743 86.1413 38.0743C85.8594 38.0743 85.6328 38.0114 85.4613 37.8857C85.2937 37.76 85.2099 37.5505 85.2099 37.2572V36.4914ZM85.5413 35.8514V35.3829H86.6785C86.6937 35.4057 86.7071 35.4381 86.7185 35.48C86.7337 35.5219 86.7413 35.5657 86.7413 35.6114C86.7413 35.6914 86.7223 35.7524 86.6842 35.7943C86.6499 35.8324 86.6004 35.8514 86.5356 35.8514H85.5413ZM85.7928 36.6514H85.2099V34.5886C85.2328 34.581 85.269 34.5714 85.3185 34.56C85.368 34.5486 85.4214 34.5429 85.4785 34.5429C85.5852 34.5429 85.6633 34.5638 85.7128 34.6057C85.7661 34.6476 85.7928 34.7162 85.7928 34.8114V36.6514Z" fill="#392E2A"/>
<path d="M87.3358 37V36.5143H87.9243V36.9829C87.9243 37.2038 87.9815 37.3638 88.0958 37.4629C88.2139 37.5581 88.3758 37.6057 88.5815 37.6057C88.7186 37.6057 88.8348 37.5924 88.9301 37.5657C89.0253 37.5353 89.0977 37.5048 89.1472 37.4743V36.5143H89.7358V37.4972C89.7358 37.581 89.7224 37.6495 89.6958 37.7029C89.6691 37.7562 89.6158 37.8076 89.5358 37.8572C89.4405 37.9143 89.311 37.9657 89.1472 38.0114C88.9834 38.0572 88.7929 38.08 88.5758 38.08C88.3205 38.08 88.0996 38.0419 87.9129 37.9657C87.7262 37.8895 87.5834 37.7714 87.4843 37.6114C87.3853 37.4514 87.3358 37.2476 87.3358 37ZM89.7358 36.8H89.1472V35.3372C89.1739 35.3295 89.212 35.32 89.2615 35.3086C89.311 35.2972 89.3624 35.2914 89.4158 35.2914C89.5262 35.2914 89.6062 35.3124 89.6558 35.3543C89.7091 35.3924 89.7358 35.4629 89.7358 35.5657V36.8ZM87.9243 36.8H87.3358V35.3372C87.3624 35.3295 87.4005 35.32 87.4501 35.3086C87.4996 35.2972 87.5529 35.2914 87.6101 35.2914C87.7167 35.2914 87.7948 35.3124 87.8443 35.3543C87.8977 35.3924 87.9243 35.4629 87.9243 35.5657V36.8Z" fill="#392E2A"/>
<path d="M91.1107 35.8972V36.7372H90.5222V35.8857C90.5222 35.7943 90.5412 35.72 90.5793 35.6629C90.6212 35.6019 90.6822 35.5448 90.7622 35.4914C90.8688 35.4229 91.0079 35.3657 91.1793 35.32C91.3545 35.2743 91.545 35.2514 91.7507 35.2514C92.0822 35.2514 92.2479 35.3448 92.2479 35.5314C92.2479 35.5772 92.2402 35.6191 92.225 35.6572C92.2136 35.6953 92.1983 35.7295 92.1793 35.76C92.1412 35.7524 92.0917 35.7448 92.0307 35.7372C91.9736 35.7295 91.9145 35.7257 91.8536 35.7257C91.6974 35.7257 91.5545 35.7429 91.425 35.7772C91.2993 35.8076 91.1945 35.8476 91.1107 35.8972ZM90.5222 36.4914L91.1107 36.5429V37.9886C91.0841 37.9962 91.046 38.0057 90.9964 38.0172C90.9507 38.0286 90.8993 38.0343 90.8422 38.0343C90.7355 38.0343 90.6555 38.0133 90.6022 37.9714C90.5488 37.9295 90.5222 37.861 90.5222 37.7657V36.4914Z" fill="#392E2A"/>
<path d="M93.7042 37.6229C93.8413 37.6229 93.9575 37.6095 94.0528 37.5829C94.1518 37.5524 94.2242 37.5238 94.2699 37.4972V36.76L93.6356 36.8229C93.4604 36.8381 93.3271 36.8781 93.2356 36.9429C93.148 37.0038 93.1042 37.0953 93.1042 37.2172C93.1042 37.3429 93.1537 37.4419 93.2528 37.5143C93.3518 37.5867 93.5023 37.6229 93.7042 37.6229ZM93.6871 35.2457C94.0413 35.2457 94.3213 35.3238 94.5271 35.48C94.7366 35.6324 94.8413 35.8743 94.8413 36.2057V37.5372C94.8413 37.6248 94.8223 37.6933 94.7842 37.7429C94.7461 37.7924 94.6928 37.8362 94.6242 37.8743C94.5252 37.9314 94.3956 37.9791 94.2356 38.0172C94.0794 38.0591 93.9023 38.08 93.7042 38.08C93.3347 38.08 93.0452 38.0095 92.8356 37.8686C92.6299 37.7238 92.5271 37.5124 92.5271 37.2343C92.5271 36.9829 92.609 36.7905 92.7728 36.6572C92.9366 36.52 93.169 36.4381 93.4699 36.4114L94.2699 36.3314V36.2C94.2699 36.0286 94.2147 35.9048 94.1042 35.8286C93.9937 35.7524 93.8433 35.7143 93.6528 35.7143C93.5004 35.7143 93.3518 35.7353 93.2071 35.7772C93.0661 35.8191 92.9404 35.8667 92.8299 35.92C92.7956 35.8895 92.7652 35.8533 92.7385 35.8114C92.7118 35.7657 92.6985 35.7181 92.6985 35.6686C92.6985 35.5505 92.7633 35.461 92.8928 35.4C92.9994 35.3505 93.1213 35.3124 93.2585 35.2857C93.3994 35.2591 93.5423 35.2457 93.6871 35.2457Z" fill="#392E2A"/>
<path d="M95.6572 36.4914L96.24 36.5429V37.9886C96.2172 37.9962 96.181 38.0057 96.1314 38.0172C96.0819 38.0286 96.0286 38.0343 95.9714 38.0343C95.8648 38.0343 95.7848 38.0133 95.7314 37.9714C95.6819 37.9295 95.6572 37.861 95.6572 37.7657V36.4914ZM96.24 36.8343L95.6572 36.7829V34.2914C95.68 34.2838 95.7162 34.2743 95.7657 34.2629C95.8152 34.2514 95.8667 34.2457 95.92 34.2457C96.0305 34.2457 96.1105 34.2667 96.16 34.3086C96.2133 34.3467 96.24 34.4153 96.24 34.5143V36.8343Z" fill="#392E2A"/>
<path d="M99.4232 38.0743C99.6784 38.0743 99.9051 38.0229 100.103 37.92C100.305 37.8133 100.461 37.6553 100.572 37.4457C100.686 37.2324 100.743 36.9676 100.743 36.6514C100.743 36.3238 100.682 36.0572 100.56 35.8514C100.438 35.6457 100.271 35.4933 100.057 35.3943C99.8479 35.2953 99.6118 35.2457 99.3489 35.2457C99.1546 35.2457 98.9794 35.2705 98.8232 35.32C98.6708 35.3657 98.5413 35.421 98.4346 35.4857C98.3546 35.5353 98.2975 35.5867 98.2632 35.64C98.2327 35.6895 98.2175 35.7543 98.2175 35.8343V37.7143H98.806V35.8686C98.8708 35.8305 98.947 35.7962 99.0346 35.7657C99.1222 35.7353 99.227 35.72 99.3489 35.72C99.4937 35.72 99.627 35.7505 99.7489 35.8114C99.8708 35.8724 99.9679 35.9714 100.04 36.1086C100.113 36.2419 100.149 36.4229 100.149 36.6514C100.149 36.9791 100.075 37.2191 99.926 37.3714C99.7813 37.5238 99.5851 37.6 99.3375 37.6C99.1889 37.6 99.0594 37.5753 98.9489 37.5257C98.8422 37.4724 98.7527 37.4133 98.6803 37.3486V37.8686C98.7527 37.9219 98.8556 37.9695 98.9889 38.0114C99.1222 38.0533 99.267 38.0743 99.4232 38.0743ZM98.806 37.5429L98.2175 37.5314V38.7943C98.2175 38.8933 98.2441 38.9638 98.2975 39.0057C98.3508 39.0476 98.4308 39.0686 98.5375 39.0686C98.5946 39.0686 98.646 39.0629 98.6917 39.0514C98.7413 39.0438 98.7794 39.0343 98.806 39.0229V37.5429Z" fill="#392E2A"/>
<path d="M101.981 35.8972V36.7372H101.393V35.8857C101.393 35.7943 101.412 35.72 101.45 35.6629C101.492 35.6019 101.553 35.5448 101.633 35.4914C101.739 35.4229 101.878 35.3657 102.05 35.32C102.225 35.2743 102.416 35.2514 102.621 35.2514C102.953 35.2514 103.118 35.3448 103.118 35.5314C103.118 35.5772 103.111 35.6191 103.096 35.6572C103.084 35.6953 103.069 35.7295 103.05 35.76C103.012 35.7524 102.962 35.7448 102.901 35.7372C102.844 35.7295 102.785 35.7257 102.724 35.7257C102.568 35.7257 102.425 35.7429 102.296 35.7772C102.17 35.8076 102.065 35.8476 101.981 35.8972ZM101.393 36.4914L101.981 36.5429V37.9886C101.955 37.9962 101.916 38.0057 101.867 38.0172C101.821 38.0286 101.77 38.0343 101.713 38.0343C101.606 38.0343 101.526 38.0133 101.473 37.9714C101.419 37.9295 101.393 37.861 101.393 37.7657V36.4914Z" fill="#392E2A"/>
<path d="M106.107 36.6629C106.107 36.9486 106.051 37.1981 105.941 37.4114C105.831 37.6248 105.674 37.7905 105.472 37.9086C105.271 38.0229 105.032 38.08 104.758 38.08C104.484 38.08 104.246 38.0229 104.044 37.9086C103.842 37.7905 103.686 37.6267 103.575 37.4172C103.465 37.2038 103.41 36.9524 103.41 36.6629C103.41 36.3733 103.465 36.1238 103.575 35.9143C103.69 35.701 103.848 35.5372 104.05 35.4229C104.255 35.3048 104.491 35.2457 104.758 35.2457C105.029 35.2457 105.265 35.3048 105.467 35.4229C105.669 35.5372 105.825 35.701 105.935 35.9143C106.05 36.1238 106.107 36.3733 106.107 36.6629ZM104.758 35.72C104.53 35.72 104.347 35.8038 104.21 35.9714C104.076 36.1391 104.01 36.3695 104.01 36.6629C104.01 36.96 104.074 37.1924 104.204 37.36C104.337 37.5238 104.522 37.6057 104.758 37.6057C104.994 37.6057 105.177 37.5219 105.307 37.3543C105.44 37.1867 105.507 36.9562 105.507 36.6629C105.507 36.3695 105.44 36.1391 105.307 35.9714C105.173 35.8038 104.991 35.72 104.758 35.72Z" fill="#392E2A"/>
<path d="M108.544 37.4743V35.6172H109.133V37.52C109.133 37.6 109.116 37.6648 109.081 37.7143C109.047 37.7638 108.992 37.8114 108.916 37.8572C108.832 37.9105 108.719 37.96 108.578 38.0057C108.437 38.0553 108.27 38.08 108.076 38.08C107.79 38.08 107.536 38.0305 107.316 37.9314C107.095 37.8324 106.921 37.68 106.796 37.4743C106.674 37.2648 106.613 36.9981 106.613 36.6743C106.613 36.3429 106.672 36.0724 106.79 35.8629C106.908 35.6533 107.07 35.4991 107.276 35.4C107.481 35.2972 107.706 35.2457 107.95 35.2457C108.095 35.2457 108.23 35.2648 108.356 35.3029C108.481 35.341 108.58 35.3886 108.653 35.4457V35.96C108.584 35.8953 108.496 35.84 108.39 35.7943C108.283 35.7448 108.159 35.72 108.018 35.72C107.87 35.72 107.733 35.7524 107.607 35.8172C107.485 35.8781 107.388 35.9791 107.316 36.12C107.243 36.261 107.207 36.4476 107.207 36.68C107.207 37 107.283 37.2343 107.436 37.3829C107.588 37.5314 107.792 37.6057 108.047 37.6057C108.165 37.6057 108.262 37.5924 108.338 37.5657C108.418 37.5391 108.487 37.5086 108.544 37.4743ZM109.133 35.7486H108.544V34.2914C108.571 34.2838 108.609 34.2743 108.658 34.2629C108.708 34.2514 108.759 34.2457 108.813 34.2457C108.923 34.2457 109.003 34.2667 109.053 34.3086C109.106 34.3467 109.133 34.4153 109.133 34.5143V35.7486Z" fill="#392E2A"/>
<path d="M109.931 37V36.5143H110.519V36.9829C110.519 37.2038 110.576 37.3638 110.691 37.4629C110.809 37.5581 110.971 37.6057 111.176 37.6057C111.313 37.6057 111.43 37.5924 111.525 37.5657C111.62 37.5353 111.693 37.5048 111.742 37.4743V36.5143H112.331V37.4972C112.331 37.581 112.317 37.6495 112.291 37.7029C112.264 37.7562 112.211 37.8076 112.131 37.8572C112.035 37.9143 111.906 37.9657 111.742 38.0114C111.578 38.0572 111.388 38.08 111.171 38.08C110.915 38.08 110.694 38.0419 110.508 37.9657C110.321 37.8895 110.178 37.7714 110.079 37.6114C109.98 37.4514 109.931 37.2476 109.931 37ZM112.331 36.8H111.742V35.3372C111.769 35.3295 111.807 35.32 111.856 35.3086C111.906 35.2972 111.957 35.2914 112.011 35.2914C112.121 35.2914 112.201 35.3124 112.251 35.3543C112.304 35.3924 112.331 35.4629 112.331 35.5657V36.8ZM110.519 36.8H109.931V35.3372C109.957 35.3295 109.995 35.32 110.045 35.3086C110.094 35.2972 110.148 35.2914 110.205 35.2914C110.312 35.2914 110.39 35.3124 110.439 35.3543C110.493 35.3924 110.519 35.4629 110.519 35.5657V36.8Z" fill="#392E2A"/>
<path d="M114.426 35.7257C114.186 35.7257 113.984 35.8076 113.82 35.9714C113.656 36.1314 113.574 36.3638 113.574 36.6686C113.574 36.9695 113.652 37.2 113.808 37.36C113.968 37.52 114.174 37.6 114.426 37.6C114.574 37.6 114.7 37.581 114.803 37.5429C114.906 37.501 114.995 37.4553 115.071 37.4057C115.121 37.4362 115.161 37.4724 115.191 37.5143C115.222 37.5562 115.237 37.6057 115.237 37.6629C115.237 37.781 115.159 37.88 115.003 37.96C114.847 38.0362 114.645 38.0743 114.397 38.0743C114.119 38.0743 113.873 38.0229 113.66 37.92C113.447 37.8172 113.279 37.661 113.157 37.4514C113.039 37.2419 112.98 36.981 112.98 36.6686C112.98 36.3524 113.043 36.0895 113.168 35.88C113.294 35.6705 113.464 35.5124 113.677 35.4057C113.89 35.2991 114.125 35.2457 114.38 35.2457C114.624 35.2457 114.822 35.2895 114.974 35.3772C115.13 35.461 115.208 35.56 115.208 35.6743C115.208 35.7276 115.193 35.7753 115.163 35.8172C115.136 35.8591 115.102 35.8933 115.06 35.92C114.98 35.8667 114.89 35.821 114.791 35.7829C114.692 35.7448 114.57 35.7257 114.426 35.7257Z" fill="#392E2A"/>
<path d="M115.88 36.4914H116.462V37.2229C116.462 37.36 116.502 37.4572 116.582 37.5143C116.662 37.5714 116.775 37.6 116.92 37.6C116.981 37.6 117.049 37.5905 117.125 37.5714C117.201 37.5524 117.264 37.5295 117.314 37.5029C117.341 37.5295 117.363 37.5638 117.382 37.6057C117.405 37.6438 117.417 37.6876 117.417 37.7372C117.417 37.8362 117.365 37.9181 117.262 37.9829C117.163 38.0438 117.013 38.0743 116.811 38.0743C116.529 38.0743 116.302 38.0114 116.131 37.8857C115.963 37.76 115.88 37.5505 115.88 37.2572V36.4914ZM116.211 35.8514V35.3829H117.348C117.363 35.4057 117.377 35.4381 117.388 35.48C117.403 35.5219 117.411 35.5657 117.411 35.6114C117.411 35.6914 117.392 35.7524 117.354 35.7943C117.32 35.8324 117.27 35.8514 117.205 35.8514H116.211ZM116.462 36.6514H115.88V34.5886C115.902 34.581 115.939 34.5714 115.988 34.56C116.038 34.5486 116.091 34.5429 116.148 34.5429C116.255 34.5429 116.333 34.5638 116.382 34.6057C116.436 34.6476 116.462 34.7162 116.462 34.8114V36.6514Z" fill="#392E2A"/>
<path d="M120.038 37.2629C120.038 37.5181 119.943 37.7181 119.753 37.8629C119.566 38.0076 119.294 38.08 118.936 38.08C118.638 38.08 118.395 38.0343 118.204 37.9429C118.014 37.8514 117.918 37.741 117.918 37.6114C117.918 37.5543 117.932 37.5029 117.958 37.4572C117.989 37.4076 118.029 37.3676 118.078 37.3372C118.185 37.4057 118.307 37.4686 118.444 37.5257C118.585 37.5829 118.743 37.6114 118.918 37.6114C119.277 37.6114 119.456 37.4972 119.456 37.2686C119.456 37.1695 119.425 37.0914 119.364 37.0343C119.303 36.9733 119.212 36.9276 119.09 36.8972L118.69 36.7943C118.435 36.7372 118.246 36.6457 118.124 36.52C118.002 36.3943 117.941 36.2324 117.941 36.0343C117.941 35.8133 118.031 35.6267 118.21 35.4743C118.393 35.3219 118.658 35.2457 119.004 35.2457C119.183 35.2457 119.341 35.2648 119.478 35.3029C119.619 35.3372 119.728 35.3867 119.804 35.4514C119.884 35.5162 119.924 35.5886 119.924 35.6686C119.924 35.7257 119.911 35.7772 119.884 35.8229C119.858 35.8686 119.823 35.9029 119.781 35.9257C119.736 35.8991 119.675 35.8686 119.598 35.8343C119.522 35.8 119.435 35.7714 119.336 35.7486C119.24 35.7257 119.141 35.7143 119.038 35.7143C118.878 35.7143 118.751 35.7429 118.656 35.8C118.564 35.8533 118.518 35.9314 118.518 36.0343C118.518 36.1067 118.545 36.1714 118.598 36.2286C118.652 36.2819 118.741 36.3219 118.867 36.3486L119.204 36.4343C119.49 36.4991 119.699 36.6 119.833 36.7372C119.97 36.8705 120.038 37.0457 120.038 37.2629Z" fill="#392E2A"/>
</svg>
