<svg width="149" height="140" viewBox="0 0 149 140" fill="none" xmlns="http://www.w3.org/2000/svg">
<path d="M57.8332 138.849C57.1617 138.119 56.7678 137.424 56.665 136.787C56.5797 136.26 56.3919 135.266 56.2478 134.578C55.9295 133.06 53.8626 126.576 53.419 125.704C53.2293 125.331 51.9539 124.39 50.2717 123.381C46.9815 121.408 42.6773 118.158 42.7765 117.723C42.8142 117.557 42.7425 117.485 42.6173 117.563C42.2773 117.774 39.0933 114.717 36.811 111.988C34.8672 109.664 31.8639 105.406 31.0426 103.809L30.6418 103.029L28.4506 103.786C25.9921 104.634 22.3864 104.993 21.4367 104.483C20.7434 104.111 20.7436 103.188 21.4367 101.95C21.9548 101.026 22.2202 100.85 25.1374 99.4952C26.9628 98.6474 26.061 96.6571 23.2977 95.4353C21.7892 94.7683 18.6861 94.6417 17.6607 95.2054C16.1153 96.055 15.9694 97.5024 17.2952 98.8318C17.7795 99.3175 18.2662 99.7149 18.3767 99.7149C19.0996 99.7149 19.4714 103.108 18.7778 103.375C18.1305 103.624 16.9884 102.967 15.7069 101.608C13.396 99.158 12.9366 97.5604 12.3081 89.7905C11.5293 80.163 11.9227 75.7302 14.4521 65.6348C14.723 64.5536 14.8957 63.6199 14.8358 63.5598C14.7759 63.4998 14.4646 63.8783 14.144 64.401C13.2555 65.8495 11.6832 67.4635 10.6413 67.9965C10.0871 68.28 9.19529 68.4753 8.45448 68.4753C7.11708 68.4753 5.11365 67.8173 5.33877 67.452C5.41354 67.3307 5.28227 67.3055 5.04705 67.396C4.77794 67.4996 4.67975 67.4626 4.78221 67.2964C4.87447 67.1467 4.75978 67.0471 4.51759 67.0665C4.28249 67.0853 4.08742 66.9695 4.08411 66.8092C4.08087 66.6488 3.97602 66.4239 3.85124 66.3093C3.71942 66.1884 3.69948 66.232 3.80363 66.4135C4.21714 67.134 3.44328 66.6401 2.39079 65.5118C0.855701 63.8661 0.174625 62.4382 0.0233472 60.5484C-0.323322 56.2175 3.17674 53.3374 11.452 51.144C14.0708 50.4498 19.3449 49.5314 21.3162 49.4263C22.0245 49.3885 22.5852 49.259 22.5623 49.1384C22.5394 49.0179 22.6764 48.8626 22.8668 48.7932C23.099 48.7086 23.1479 48.7727 23.0152 48.988C22.8845 49.2 22.9164 49.2476 23.1092 49.1281C23.2697 49.0286 23.34 48.8482 23.2653 48.7271C23.0796 48.4258 24.0825 47.9167 24.4334 48.1341C24.6091 48.243 24.647 48.1974 24.5337 48.0135C24.1917 47.4588 31.5251 44.4833 33.2339 44.4833C33.674 44.4833 34.2347 43.9811 35.396 42.5464C37.7161 39.6805 39.373 37.9745 39.6623 38.1539C39.8032 38.2412 39.8548 38.2092 39.7769 38.0828C39.5548 37.7225 42.5129 34.7128 44.5767 33.1992C50.7133 28.6986 57.7172 25.252 64.0937 23.5951C64.9395 23.3753 65.7097 23.147 65.8053 23.0877C65.901 23.0284 64.5806 20.0928 62.8711 16.5641C61.1615 13.0354 59.8214 9.99546 59.8928 9.80865C59.9643 9.62184 59.9237 9.53043 59.8026 9.60551C59.5192 9.7811 59.2277 9.03363 59.4431 8.68405C59.5333 8.53776 59.494 8.48815 59.3558 8.5738C59.2176 8.65946 58.9795 8.45442 58.8267 8.11817C58.6306 7.68647 58.217 7.42299 57.4194 7.22158C55.1407 6.6462 54.0425 4.33468 55.008 2.14589C55.6326 0.730075 56.7471 0 58.284 0C60.9677 0 62.7254 2.60968 61.7588 5.15916C61.5785 5.6346 61.4347 5.756 61.3036 5.54336C61.1928 5.36354 61.12 5.59369 61.131 6.08932C61.1415 6.56058 61.221 6.9026 61.3077 6.84938C61.3944 6.79617 61.6968 7.28531 61.9797 7.93636C62.2625 8.58741 64.5218 13.4499 67.0002 18.7419C69.4786 24.0339 72.3164 30.1245 73.3064 32.2767L75.1065 36.1898L76.8511 36.6182C91.4328 40.1993 102.691 51.9369 105.728 66.7259C106.029 68.1907 106.632 73.2272 106.633 74.2858C106.633 74.3889 108.533 74.4733 110.855 74.4733H115.076L115.253 73.2938C115.539 71.3775 115.172 65.0733 114.601 62.1161C113.496 56.3907 111.276 50.9876 108.028 46.1151C107.13 44.7687 106.466 43.5522 106.553 43.4118C106.639 43.2714 106.603 43.2227 106.473 43.3037C106.202 43.4714 102.485 39.2839 102.589 38.9295C102.627 38.8022 102.558 38.7602 102.435 38.8362C102.312 38.9122 101.384 38.2403 100.373 37.3431C94.0361 31.7235 85.649 27.9987 76.8714 26.906L74.3995 26.5982L73.3453 24.3168L72.2911 22.0354L74.9449 21.8537C83.8859 21.2415 93.434 23.1595 101.838 27.2561C103.793 28.2089 105.447 28.9885 105.514 28.9885C105.581 28.9885 105.636 28.8867 105.636 28.7623C105.636 28.6379 106.421 26.8841 107.381 24.8648C108.34 22.8456 109.125 21.162 109.125 21.1235C109.125 21.085 109.757 19.718 110.529 18.0858C115.931 6.66729 115.921 6.69439 115.496 5.80021C113.679 1.97183 118.074 -1.48258 121.228 1.29447C123.455 3.25575 122.565 6.71358 119.607 7.58943L118.563 7.8986L111.476 22.5559C107.579 30.6173 104.39 37.3335 104.39 37.4806C104.39 37.6278 105.068 38.4789 105.897 39.372C106.725 40.2652 107.334 41.1086 107.249 41.2463C107.164 41.384 107.225 41.4658 107.385 41.428C107.917 41.3024 111.094 46.0596 112.848 49.6066C116.308 56.6036 117.701 62.5833 117.695 70.4121L117.691 74.4733H123.146H128.6L127.727 73.6477C126.685 72.6618 126.409 71.7514 126.779 70.5145C127.009 69.7444 127.982 68.0714 128.926 66.8245C129.516 66.0451 127.016 58.0744 124.701 53.3553C121.396 46.6151 116.946 40.9674 111.062 36.0417L108.889 34.2229L109.424 33.1185L109.959 32.0141L110.975 32.8012C113.327 34.6229 114.846 36.0521 114.694 36.2991C114.604 36.4443 114.646 36.4922 114.786 36.4055C115.033 36.2523 115.737 36.8568 115.899 37.3607C115.943 37.4981 116.076 37.5783 116.194 37.5387C116.5 37.4365 117.084 38.3048 116.914 38.6075C116.835 38.7465 116.863 38.7768 116.975 38.6749C117.254 38.4214 117.882 38.9781 117.682 39.302C117.592 39.4491 117.642 39.4879 117.798 39.3912C118.157 39.1687 121.282 42.9358 123.394 46.1364C126.554 50.9267 128.809 55.8411 130.318 61.2277C130.761 62.8084 131.155 64.139 131.193 64.1845C131.232 64.23 131.917 63.7333 132.716 63.0806C134.621 61.5253 136.474 60.6956 138.39 60.5414C140.093 60.4044 140.964 60.7121 141.99 61.8135C142.804 62.6876 143.318 64.9818 143.118 66.8452C142.784 69.9505 141.841 71.404 139.677 72.1455L138.409 72.5801L140.029 72.7745C144.059 73.2583 145.399 73.5105 146.476 73.9881C148.546 74.9063 149.542 76.3301 148.702 77.1724C148.216 77.66 147.224 77.5176 146.213 76.8153C145.693 76.4539 144.622 76.0014 143.832 75.8096C142.408 75.4637 134.297 75.0182 134.297 75.2859C134.297 75.3627 134.786 75.713 135.384 76.0644C136.884 76.9459 137.949 78.2384 139.003 80.4583C139.841 82.222 139.9 82.5048 139.902 84.7742C139.905 86.9422 139.846 87.2616 139.358 87.7521C138.177 88.9386 135.1 88.202 132.955 86.2194C131.856 85.2038 131.822 85.1912 131.7 85.7597C131.631 86.0813 131.389 87.244 131.162 88.3437C128.644 100.542 120.971 112.526 110.808 120.133C108.64 121.755 108.396 122.035 108.88 122.335C109.411 122.664 110.194 124.626 110.516 126.44C110.915 128.683 110.963 132.239 110.622 134.328C110.315 136.212 109.283 137.792 108.283 137.908C107.462 138.004 106.996 137.629 105.459 135.63C104.623 134.544 104.412 134.103 104.613 133.86C104.811 133.621 104.787 133.537 104.522 133.537C104.324 133.537 104.221 133.631 104.291 133.745C104.362 133.86 104.36 133.953 104.288 133.953C104.08 133.953 101.829 130.509 100.775 128.58C100.25 127.618 99.8019 126.803 99.7803 126.77C99.7589 126.737 98.7964 127.058 97.6418 127.483C90.6045 130.079 85.1495 131.053 77.8478 131.02C73.0376 130.998 69.6621 130.607 65.3043 129.569C63.8884 129.231 62.6965 128.955 62.6558 128.955C62.6151 128.955 62.6389 129.464 62.7089 130.086C62.9286 132.041 61.7465 138.055 60.8803 139.389C60.2437 140.37 59.0331 140.155 57.8326 138.849H57.8332ZM104.058 132.829C104.058 132.623 104.004 132.508 103.938 132.575C103.871 132.642 103.657 132.501 103.462 132.263C103.074 131.788 103.3 132.357 103.712 132.891C104.021 133.291 104.058 133.284 104.058 132.829ZM79.4684 128.48C79.2628 128.364 78.3656 128.193 77.4746 128.099C75.4317 127.885 71.7656 126.969 68.937 125.965C61.1124 123.19 54.1425 118.266 48.9264 111.829C47.1901 109.686 46.7281 108.971 47.3158 109.335C47.4598 109.424 47.4972 109.318 47.4057 109.079C47.2938 108.786 47.1971 108.755 47.0659 108.968C46.9343 109.181 46.8344 109.187 46.712 108.988C46.6183 108.836 46.6216 108.582 46.7193 108.423C46.8228 108.255 46.7883 108.202 46.6366 108.296C46.3183 108.494 45.4924 107.297 45.7067 106.949C45.7912 106.812 45.7272 106.731 45.5643 106.769C45.1866 106.856 42.8932 102.569 41.6993 99.544C41.1033 98.0337 40.6834 97.2811 40.4991 97.3927C40.3432 97.4871 39.411 98.1046 38.4275 98.7648C37.444 99.4251 35.7898 100.425 34.7515 100.986C33.7132 101.548 32.8636 102.059 32.8636 102.123C32.8636 102.491 36.8109 108.185 38.3691 110.063C39.3847 111.288 40.1783 112.412 40.1326 112.563C40.0869 112.713 40.1299 112.755 40.228 112.657C40.3261 112.558 41.3729 113.386 42.5541 114.495C52.0824 123.448 64.5704 128.533 77.3499 128.664C78.8145 128.679 79.688 128.603 79.4683 128.48H79.4684ZM89.3026 125.945C95.4607 125.238 102.785 122.739 106.932 119.93C118.57 112.049 126.824 99.4446 129.195 85.9329C129.694 83.0914 129.661 82.4823 128.952 81.4361C128.616 80.9408 128.273 80.2599 128.188 79.923C128.052 79.3776 128.146 79.277 129.048 79.0061C129.978 78.7265 130.061 78.6317 130.061 77.8371V76.9724H127.821H125.582L124.8 78.5344C122.941 82.2472 119.759 85.9973 116.461 88.3624C108.324 94.1982 97.6253 95.0429 88.565 90.5648C83.5073 88.0649 79.1363 83.7244 76.5764 78.6594L75.7238 76.9724H70.2393H64.7548L64.9111 77.6597C65.2843 79.3003 66.7954 83.5601 67.5196 85.0126C71.2646 92.5249 78.1552 98.5258 86.1015 101.195C92.5356 103.357 100.484 103.257 106.685 100.935C107.822 100.51 108.995 100.145 109.292 100.126C109.589 100.106 109.786 100.043 109.729 99.9867C109.673 99.93 110.495 99.3884 111.557 98.7831C112.619 98.1778 114.272 97.0809 115.232 96.3456C116.957 95.0233 120.473 91.6149 120.899 90.8519C121.02 90.635 121.242 90.5334 121.392 90.6263C121.541 90.7191 121.594 90.682 121.509 90.5439C121.318 90.234 122.523 88.5673 122.869 88.6622C123.007 88.7 123.048 88.6155 122.961 88.4744C122.874 88.3332 123.207 87.561 123.702 86.7582C124.196 85.9554 125.05 84.1843 125.601 82.8225C126.152 81.4606 126.532 80.6837 126.446 81.0961C125.816 84.1156 121.546 92.2802 120.829 91.8359C120.701 91.7565 120.66 91.8604 120.739 92.0667C120.981 92.6983 116.093 97.3846 113.165 99.3275C107.52 103.074 101.869 104.781 95.0448 104.799C86.8885 104.82 80.3046 102.424 73.6551 97.0128C70.8812 94.7556 66.5571 89.3543 66.8698 88.5371C66.9423 88.3477 66.89 88.2619 66.7534 88.3465C66.617 88.4311 66.438 88.3245 66.3558 88.1096C66.1004 87.4423 65.8316 87.6767 65.6667 88.7104C65.4583 90.0176 65.0024 90.9904 64.6893 90.7964C64.5511 90.7107 64.5099 90.7573 64.5977 90.8998C64.8245 91.2677 63.7756 92.5239 63.3715 92.3684C63.1868 92.2974 62.9587 92.3641 62.8646 92.5168C62.7537 92.6966 62.8084 92.7232 63.0197 92.5922C63.2287 92.4627 63.2856 92.488 63.1781 92.6624C63.0857 92.8122 62.3675 93.1781 61.5819 93.4754C60.4308 93.9111 59.815 93.9905 58.4091 93.8845C57.4496 93.8121 56.4024 93.6728 56.0819 93.575L55.4994 93.3972L56.1454 94.6757C57.9054 98.1586 61.4529 102.749 64.4085 105.368C69.6288 109.995 75.5089 112.985 82.3742 114.505C85.9593 115.299 93.6751 115.301 97.3246 114.51C105.126 112.818 111.474 109.34 117.07 103.693C118.636 102.112 121.222 98.8813 121.809 97.771C121.975 97.4579 122.204 97.2599 122.319 97.331C122.434 97.4021 122.514 97.3209 122.497 97.1505C122.48 96.9802 123.014 95.7724 123.684 94.4666C124.353 93.1608 125.216 91.2489 125.6 90.218C126.549 87.6697 126.511 88.3902 125.551 91.1353C124.19 95.0259 121.329 100.393 120.792 100.06C120.618 99.9523 120.583 100.001 120.7 100.19C120.981 100.647 118.433 103.83 115.614 106.543C106.131 115.671 92.6721 119.354 79.8422 116.334C76.4102 115.526 74.1083 114.663 70.7164 112.916C65.622 110.291 60.4804 105.914 57.3895 101.57C56.3807 100.153 56.2805 99.9004 56.5763 99.5218C56.8768 99.1373 56.8687 99.1254 56.5019 99.4128C56.1409 99.6958 55.983 99.5571 55.2212 98.2882C53.7733 95.8762 52.8715 93.9133 51.9008 91.0615C51.392 89.5667 50.9571 88.3161 50.9344 88.2823C50.9117 88.2486 49.9487 89.1592 48.7944 90.3058C47.64 91.4525 45.9106 93.0412 44.9511 93.8362C43.9915 94.6313 43.1184 95.3611 43.0107 95.4579C42.7458 95.6962 44.0368 99.1435 45.4408 101.947C46.0712 103.205 46.5093 104.371 46.4144 104.537C46.3195 104.702 46.3339 104.755 46.4464 104.652C46.7296 104.395 47.3889 105.397 47.17 105.752C47.0629 105.926 47.1017 105.972 47.2677 105.869C47.42 105.775 47.6774 105.953 47.8441 106.268C49.0739 108.593 53.934 114.022 56.9974 116.494C63.2664 121.553 71.4086 125.046 78.9769 125.925C81.6429 126.235 86.6987 126.245 89.3026 125.945V125.945ZM126.342 87.823C126.354 87.5319 126.413 87.4726 126.493 87.672C126.564 87.8524 126.556 88.068 126.473 88.151C126.39 88.2341 126.331 88.0865 126.342 87.823H126.342ZM126.591 79.8257C126.603 79.5345 126.662 79.4753 126.742 79.6747C126.814 79.8551 126.805 80.0706 126.722 80.1537C126.639 80.2367 126.58 80.0891 126.591 79.8257H126.591ZM59.0992 93.5529C58.9305 93.4845 58.594 93.4803 58.3515 93.5437C58.109 93.607 58.2471 93.663 58.6583 93.6681C59.0695 93.6732 59.2679 93.6214 59.0992 93.5529V93.5529ZM108.419 89.8707C112.673 88.7886 116.423 86.7183 119.788 83.5941C121.538 81.9696 123.643 79.3342 124.428 77.7847L124.84 76.9724H122.451C120.093 76.9724 120.047 76.9841 118.893 77.869C117.262 79.1198 114.063 80.6261 111.808 81.2044C105.717 82.7664 99.4735 81.6684 94.357 78.1357L92.6723 76.9724H86.0704C82.4393 76.9724 79.4684 77.0417 79.4684 77.1263C79.4684 77.6854 82.1575 81.2034 83.9756 83.0228C88.0892 87.1394 93.1084 89.674 98.7208 90.469C101.269 90.83 105.73 90.5548 108.419 89.8707V89.8707ZM137.953 84.183C137.771 82.6395 137.011 81.1876 135.589 79.6624C134.624 78.6284 132.961 77.4723 132.438 77.4723C132.364 77.4723 132.305 78.3439 132.307 79.4091L132.311 81.346L133.828 83.1815C134.82 84.3817 135.7 85.1764 136.372 85.4779C137.76 86.1012 138.143 85.7879 137.953 84.183H137.953ZM112.944 78.4833C113.979 78.2181 115.253 77.7746 115.776 77.4978L116.727 76.9945L107.88 76.9935C98.2851 76.9923 98.2143 77.0067 101.905 78.202C105.326 79.3099 109.324 79.4118 112.944 78.4834V78.4833ZM75.7249 73.9638C75.5753 73.6836 74.7364 72.5715 73.8606 71.4926C72.9848 70.4136 72.3463 69.444 72.4415 69.3379C72.5368 69.2317 72.4883 69.2173 72.3337 69.3058C72.1791 69.3943 71.5622 69.0366 70.9629 68.5109C67.6224 65.5804 62.6849 63.1928 58.7417 62.6013L57.5789 62.4269L57.4067 63.8891C57.3119 64.6933 56.9685 66.024 56.6436 66.8461L56.0528 68.3409L56.948 69.2603C57.5085 69.8358 57.7715 70.2959 57.6515 70.4907C57.5354 70.6791 57.5618 70.7385 57.7187 70.6413C57.9805 70.479 59.3253 71.8184 60.6251 73.5361L61.3343 74.4733H68.6655C75.9659 74.4733 75.9956 74.471 75.7249 73.9638V73.9638ZM90.9326 73.9934C90.9326 73.3204 89.519 69.3758 88.6801 67.7079C86.6203 63.6124 82.8188 59.0858 79.104 56.3051C75.626 53.7016 70.6673 51.5173 66.135 50.592C63.3724 50.028 57.8058 49.9576 54.8577 50.4494C53.7268 50.638 52.8016 50.8325 52.8016 50.8816C52.8016 50.9308 53.2531 51.5637 53.805 52.2881C55.0515 53.9243 56.3798 56.533 56.7964 58.1628L57.1121 59.3981L59.3208 59.693C66.3327 60.6292 72.8968 64.4928 77.1731 70.201C77.9557 71.2457 78.8763 72.6344 79.2187 73.2869L79.8414 74.4733H85.387C90.6898 74.4733 90.9326 74.4523 90.9326 73.9934V73.9934ZM104.268 72.6614C103.634 66.0187 101.575 60.1059 98.0067 54.681C95.8562 51.4114 91.0097 46.4823 87.8174 44.3179C79.3851 38.601 69.759 36.5465 59.406 38.254C56.92 38.664 52.2348 40.2518 49.5956 41.5788C47.1311 42.8179 44.0774 44.6809 44.0811 44.943C44.0811 45.0338 45.0263 45.5404 46.1788 46.0689C47.3313 46.5973 48.9584 47.5824 49.7944 48.258L51.3145 49.4863L53.1375 49.0075C64.5213 46.0175 76.9299 49.628 85.122 58.314C87.5221 60.8588 89.5612 63.8391 90.8968 66.7544C91.8547 68.8451 92.9961 72.122 93.3027 73.6611L93.4645 74.4733H98.9529H104.441L104.268 72.6614ZM40.3047 72.0909C41.2473 71.2955 41.6778 70.016 41.5282 68.4544C41.3819 66.9279 41.0094 66.476 39.8975 66.476C38.7512 66.476 37.2964 67.941 36.9043 69.4903C36.2604 72.0339 38.4173 73.6835 40.3047 72.0909V72.0909ZM129.709 71.0382C129.437 70.7652 129.25 71.1994 129.445 71.651C129.631 72.0792 129.644 72.0788 129.747 71.6422C129.807 71.3909 129.789 71.1191 129.709 71.0382V71.0382ZM135.17 70.6011C139.436 69.9074 139.63 69.8304 140.233 68.5847C140.857 67.2977 141.151 65.7582 140.937 64.9024C140.696 63.9409 139.568 62.9768 138.687 62.9795C137.572 62.9828 135.526 64.2502 133.524 66.1784L131.788 67.8505L131.957 69.4125C132.151 71.2083 131.932 71.1274 135.17 70.6011V70.6011ZM28.0065 67.3981C29.8237 65.5758 29.261 61.7275 27.1774 61.7275C25.6796 61.7275 24.3902 63.5507 24.3902 65.6685C24.3902 66.9242 24.6598 67.4696 25.5117 67.9368C26.3924 68.4198 27.1508 68.2561 28.0065 67.3981V67.3981ZM45.2077 42.5509C48.1617 40.4439 51.7254 38.6494 55.2395 37.4993C59.7695 36.0169 62.4174 35.6113 67.565 35.6113C71.7677 35.6113 71.9785 35.5882 71.838 35.1445C71.7568 34.8879 70.8115 32.9015 69.7374 30.7303L67.7844 26.7828L66.7105 26.9108C59.8164 27.7324 52.4218 30.5825 47.2424 34.4142C44.8471 36.1862 37.599 43.1634 37.599 43.6971C37.599 43.8327 38.3489 44.0242 39.2656 44.1227C40.1822 44.2211 41.2196 44.3851 41.5709 44.4872C41.9473 44.5966 42.3768 44.5569 42.6168 44.3906C42.8408 44.2354 44.0067 43.4075 45.2077 42.5509V42.5509ZM107.257 43.9835C107.341 43.846 107.292 43.7335 107.147 43.7335C107.002 43.7335 106.883 43.846 106.883 43.9835C106.883 44.1209 106.932 44.2334 106.993 44.2334C107.053 44.2334 107.172 44.1209 107.257 43.9835ZM103.535 33.0938L104.379 31.2357L101.456 29.7693C94.4062 26.2316 86.9929 24.3629 79.4058 24.211C76.4779 24.1523 75.6816 24.3435 77.7702 24.6036C82.8652 25.2383 88.755 27.0842 93.1146 29.4127C95.4308 30.6497 99.2543 33.1758 100.9 34.5565C102.451 35.8574 102.22 35.9855 103.535 33.0938V33.0938ZM120.397 5.81213C121.188 5.05793 121.693 3.72468 121.463 2.99742C121.254 2.33824 120.92 2.5599 120.716 3.49329C120.626 3.90048 120.029 4.81801 119.389 5.53225C118.23 6.82514 118.228 6.83005 118.971 6.64559C119.382 6.54369 120.024 6.16863 120.397 5.81213V5.81213ZM58.7829 6.34449C58.7829 6.26119 58.5015 5.97102 58.1575 5.69969C57.8135 5.42836 57.5975 5.10011 57.6776 4.97026C57.7576 4.8404 57.7005 4.76507 57.5509 4.80283C57.2911 4.86836 56.4868 3.61193 56.1948 2.68474C55.9615 1.94384 55.543 2.20093 55.543 3.08513C55.543 4.16715 56.4418 5.50403 57.5418 6.05822C58.4559 6.5188 58.7829 6.59422 58.7829 6.34449V6.34449Z" fill="#392E2A"/>
</svg>
