<svg width="147" height="134" viewBox="0 0 147 134" fill="none" xmlns="http://www.w3.org/2000/svg">
<path d="M64.5125 66.4493C64.189 66.0996 63.9992 65.767 63.9496 65.4626C63.9086 65.21 63.8181 64.7342 63.7487 64.4053C63.5953 63.6788 62.5995 60.5757 62.3858 60.1583C62.2944 59.9798 61.6799 59.5293 60.8695 59.0465C59.2843 58.1023 57.2106 56.5472 57.2584 56.3387C57.2766 56.2595 57.2421 56.2251 57.1817 56.2622C57.0179 56.3631 55.4839 54.9001 54.3843 53.5943C53.4478 52.4823 52.0009 50.4443 51.6052 49.68L51.4121 49.307L50.3564 49.6689C49.172 50.075 47.4348 50.2466 46.9773 50.0027C46.6432 49.8246 46.6433 49.3828 46.9773 48.7905C47.2269 48.3482 47.3548 48.2639 48.7602 47.6156C49.6397 47.2098 49.2052 46.2573 47.8739 45.6726C47.1471 45.3534 45.6521 45.2928 45.1581 45.5626C44.4135 45.9692 44.3432 46.6618 44.982 47.2981C45.2153 47.5305 45.4498 47.7207 45.503 47.7207C45.8513 47.7207 46.0304 49.3446 45.6962 49.4723C45.3844 49.5915 44.8341 49.2771 44.2167 48.6268C43.1034 47.4542 42.882 46.6896 42.5792 42.9712C42.204 38.3637 42.3936 36.2423 43.6122 31.4109C43.7427 30.8935 43.8259 30.4467 43.7971 30.4179C43.7682 30.3892 43.6182 30.5703 43.4638 30.8205C43.0357 31.5137 42.2782 32.2861 41.7762 32.5412C41.5092 32.6769 41.0796 32.7703 40.7226 32.7703C40.0783 32.7703 39.1131 32.4554 39.2215 32.2806C39.2576 32.2225 39.1943 32.2105 39.081 32.2538C38.9513 32.3034 38.904 32.2857 38.9534 32.2061C38.9979 32.1345 38.9426 32.0868 38.8259 32.0961C38.7126 32.1051 38.6187 32.0497 38.6171 31.973C38.6155 31.8962 38.565 31.7886 38.5049 31.7338C38.4414 31.6759 38.4318 31.6967 38.4819 31.7836C38.6812 32.1284 38.3083 31.8921 37.8013 31.3521C37.0617 30.5645 36.7335 29.8811 36.6607 28.9767C36.4936 26.9041 38.1799 25.5257 42.1668 24.476C43.4285 24.1438 45.9695 23.7043 46.9192 23.654C47.2604 23.6359 47.5306 23.5739 47.5195 23.5163C47.5085 23.4586 47.5745 23.3842 47.6663 23.351C47.7781 23.3105 47.8017 23.3412 47.7378 23.4443C47.6748 23.5457 47.6902 23.5685 47.783 23.5113C47.8604 23.4637 47.8942 23.3774 47.8583 23.3194C47.7688 23.1752 48.252 22.9315 48.421 23.0356C48.5057 23.0877 48.524 23.0659 48.4693 22.9779C48.3046 22.7124 51.8377 21.2884 52.661 21.2884C52.873 21.2884 53.1431 21.0481 53.7026 20.3615C54.8204 18.99 55.6187 18.1735 55.7581 18.2593C55.8259 18.3011 55.8508 18.2858 55.8132 18.2253C55.7063 18.0529 57.1314 16.6126 58.1257 15.8882C61.0822 13.7343 64.4566 12.0849 67.5287 11.2919C67.9362 11.1868 68.3073 11.0775 68.3533 11.0491C68.3994 11.0207 67.7633 9.61584 66.9396 7.92711C66.116 6.23838 65.4703 4.78354 65.5048 4.69414C65.5392 4.60474 65.5197 4.56099 65.4613 4.59692C65.3248 4.68095 65.1843 4.32324 65.2881 4.15594C65.3316 4.08593 65.3126 4.06218 65.2461 4.10318C65.1795 4.14417 65.0648 4.04605 64.9912 3.88513C64.8967 3.67853 64.6974 3.55243 64.3131 3.45604C63.2153 3.18068 62.6862 2.07445 63.1514 1.02696C63.4523 0.349393 63.9892 0 64.7297 0C66.0226 0 66.8695 1.24892 66.4038 2.46903C66.3169 2.69656 66.2476 2.75466 66.1845 2.6529C66.1311 2.56684 66.096 2.67698 66.1013 2.91418C66.1064 3.1397 66.1447 3.30339 66.1864 3.27792C66.2282 3.25245 66.3739 3.48654 66.5102 3.79811C66.6465 4.10969 67.7349 6.43674 68.929 8.96933C70.123 11.5019 71.4902 14.4167 71.9672 15.4467L72.8345 17.3194L73.675 17.5244C80.7002 19.2382 86.1241 24.8555 87.5875 31.9331C87.7324 32.6341 88.0228 35.0445 88.0234 35.5511C88.0235 35.6004 88.9387 35.6408 90.0574 35.6408H92.0912L92.1762 35.0763C92.3143 34.1592 92.1372 31.1422 91.8622 29.727C91.3299 26.987 90.2606 24.4012 88.6954 22.0694C88.2628 21.425 87.9431 20.8428 87.9848 20.7756C88.0265 20.7084 88.0091 20.6852 87.9462 20.7239C87.8158 20.8042 86.0248 18.8002 86.0753 18.6306C86.0935 18.5696 86.06 18.5495 86.0009 18.5859C85.9419 18.6223 85.4948 18.3007 85.0074 17.8713C81.9544 15.182 77.9137 13.3994 73.6848 12.8764L72.4939 12.7292L71.986 11.6373L71.4781 10.5455L72.7566 10.4586C77.0642 10.1656 81.6643 11.0835 85.7135 13.044C86.6553 13.5 87.4523 13.8731 87.4845 13.8731C87.5168 13.8731 87.5432 13.8243 87.5432 13.7648C87.5432 13.7053 87.9214 12.8659 88.3837 11.8996C88.846 10.9333 89.2242 10.1275 89.2242 10.1091C89.2242 10.0907 89.5286 9.43647 89.9006 8.65533C92.5033 3.19077 92.498 3.20375 92.2936 2.77582C91.4183 0.94366 93.5353 -0.70952 95.0549 0.619499C96.1281 1.55811 95.6992 3.21293 94.274 3.63209L93.7709 3.78004L90.3569 10.7946C88.4792 14.6526 86.9429 17.8667 86.9429 17.9372C86.9429 18.0076 87.2695 18.4149 87.6687 18.8423C88.0679 19.2698 88.361 19.6734 88.3201 19.7393C88.2792 19.8052 88.3087 19.8443 88.3858 19.8263C88.6418 19.7661 90.1728 22.0428 91.0179 23.7403C92.6849 27.0889 93.3559 29.9506 93.3528 33.6972L93.3511 35.6408H95.979H98.6068L98.1862 35.2457C97.684 34.7739 97.5513 34.3382 97.7293 33.7462C97.8402 33.3777 98.3092 32.577 98.7638 31.9803C99.048 31.6073 97.8434 27.7927 96.7284 25.5343C95.1358 22.3086 92.9923 19.6058 90.1573 17.2485L89.1105 16.3781L89.3682 15.8496L89.626 15.321L90.1155 15.6977C91.2484 16.5696 91.9804 17.2535 91.9071 17.3717C91.8639 17.4412 91.8838 17.4641 91.9512 17.4226C92.0703 17.3493 92.4098 17.6386 92.4876 17.8797C92.5088 17.9455 92.5727 17.9839 92.6297 17.965C92.777 17.9161 93.0588 18.3316 92.9765 18.4764C92.9388 18.5429 92.9521 18.5575 93.0061 18.5087C93.1406 18.3874 93.4429 18.6538 93.3468 18.8088C93.3031 18.8792 93.3273 18.8978 93.4025 18.8515C93.5754 18.745 95.0811 20.5479 96.0985 22.0796C97.6212 24.372 98.7075 26.724 99.4345 29.3018C99.6479 30.0583 99.8376 30.6951 99.8562 30.7169C99.8748 30.7387 100.205 30.5009 100.59 30.1886C101.507 29.4443 102.401 29.0472 103.324 28.9734C104.144 28.9078 104.563 29.0551 105.058 29.5822C105.45 30.0005 105.698 31.0984 105.601 31.9902C105.441 33.4763 104.986 34.1719 103.944 34.5268L103.333 34.7348L104.113 34.8278C106.055 35.0593 106.7 35.18 107.219 35.4086C108.217 35.848 108.696 36.5294 108.292 36.9325C108.057 37.1658 107.579 37.0977 107.092 36.7616C106.842 36.5887 106.326 36.3721 105.945 36.2803C105.259 36.1148 101.351 35.9016 101.351 36.0297C101.351 36.0664 101.587 36.2341 101.875 36.4023C102.598 36.8241 103.111 37.4427 103.619 38.5051C104.023 39.3491 104.051 39.4845 104.052 40.5705C104.053 41.6081 104.025 41.7609 103.79 41.9957C103.221 42.5635 101.738 42.2109 100.705 41.2621C100.176 40.7761 100.159 40.7701 100.1 41.0422C100.067 41.196 99.9506 41.7525 99.8413 42.2788C98.6281 48.1163 94.931 53.8518 90.0347 57.4922C88.9905 58.2684 88.8726 58.4022 89.1058 58.5458C89.362 58.7035 89.7388 59.6426 89.8943 60.5107C90.0866 61.5843 90.1096 63.286 89.9454 64.2857C89.7973 65.1873 89.3001 65.9433 88.8186 65.999C88.4228 66.0448 88.1985 65.8652 87.4578 64.9088C87.055 64.3888 86.9535 64.1778 87.0503 64.0616C87.1455 63.9473 87.134 63.907 87.0062 63.907C86.9111 63.907 86.8611 63.9518 86.8952 64.0066C86.9292 64.0614 86.9284 64.1063 86.8935 64.1063C86.7936 64.1063 85.7088 62.458 85.2012 61.5348C84.948 61.0744 84.7323 60.6845 84.7219 60.6685C84.7116 60.6525 84.2479 60.8061 83.6916 61.0099C80.3011 62.2521 77.673 62.7185 74.1552 62.7024C71.8377 62.6918 70.2114 62.5049 68.112 62.0079C67.4298 61.8464 66.8556 61.7142 66.8359 61.7142C66.8163 61.7142 66.8278 61.9578 66.8615 62.2556C66.9674 63.191 66.3979 66.0691 65.9805 66.7077C65.6738 67.177 65.0906 67.0744 64.5122 66.4493H64.5125ZM86.783 63.5681C86.783 63.4694 86.7568 63.4148 86.7248 63.4466C86.6928 63.4785 86.5898 63.4112 86.4958 63.2971C86.3085 63.0698 86.4176 63.342 86.6163 63.598C86.7648 63.7893 86.783 63.7861 86.783 63.5681ZM74.936 61.4867C74.8369 61.4314 74.4047 61.3495 73.9754 61.3047C72.9911 61.2021 71.2249 60.7635 69.8621 60.2833C66.0924 58.955 62.7344 56.5986 60.2213 53.518C59.3848 52.4926 59.1622 52.1502 59.4454 52.3246C59.5148 52.3673 59.5328 52.3163 59.4887 52.202C59.4348 52.062 59.3882 52.0469 59.325 52.1487C59.2616 52.251 59.2135 52.2538 59.1545 52.1588C59.1093 52.086 59.1109 51.9643 59.158 51.8883C59.2079 51.8079 59.1912 51.7825 59.1182 51.8275C58.9648 51.9219 58.5669 51.3493 58.6702 51.1828C58.7108 51.1173 58.68 51.0784 58.6015 51.0965C58.4196 51.1385 57.3147 49.0868 56.7394 47.6389C56.4523 46.9161 56.25 46.5559 56.1612 46.6094C56.0861 46.6546 55.637 46.9501 55.1631 47.266C54.6893 47.582 53.8923 48.0604 53.3921 48.3292C52.8919 48.598 52.4826 48.8427 52.4826 48.873C52.4826 49.0495 54.3843 51.7742 55.135 52.6732C55.6243 53.2592 56.0066 53.7974 55.9846 53.8692C55.9626 53.9411 55.9833 53.9613 56.0306 53.9142C56.0779 53.8671 56.5822 54.2631 57.1512 54.7942C61.7418 59.0787 67.7583 61.5123 73.9153 61.5751C74.6209 61.5823 75.0418 61.5459 74.9359 61.4867H74.936ZM79.6739 60.2739C82.6408 59.9353 86.1694 58.7395 88.1676 57.3953C93.7744 53.6236 97.751 47.5914 98.8935 41.125C99.1337 39.7652 99.1178 39.4737 98.7763 38.973C98.6146 38.736 98.449 38.4101 98.4084 38.2489C98.3426 37.9879 98.3881 37.9397 98.8225 37.8101C99.2709 37.6763 99.3105 37.6309 99.3105 37.2506V36.8368H98.2315H97.1526L96.7758 37.5843C95.8802 39.3612 94.3473 41.1559 92.7585 42.2877C88.8383 45.0806 83.6837 45.4848 79.3186 43.3417C76.8818 42.1454 74.776 40.0681 73.5426 37.6441L73.1319 36.8368H70.4895H67.8472L67.9225 37.1657C68.1023 37.9509 68.8303 39.9895 69.1792 40.6846C70.9835 44.2798 74.3033 47.1516 78.1317 48.4293C81.2315 49.4638 85.0611 49.4157 88.0484 48.3048C88.5962 48.1011 89.1614 47.9267 89.3045 47.9173C89.4476 47.9078 89.5424 47.8779 89.5151 47.8508C89.4879 47.8237 89.8842 47.5645 90.3957 47.2748C90.9072 46.9851 91.7039 46.4602 92.1662 46.1082C92.9974 45.4754 94.6914 43.8443 94.8966 43.4791C94.9549 43.3753 95.0617 43.3267 95.1339 43.3711C95.2061 43.4156 95.2316 43.3978 95.1905 43.3317C95.0985 43.1834 95.6788 42.3858 95.8456 42.4312C95.912 42.4493 95.932 42.4088 95.8901 42.3413C95.8482 42.2738 96.0087 41.9042 96.2468 41.52C96.4848 41.1358 96.8966 40.2882 97.1619 39.6365C97.4271 38.9847 97.6102 38.6129 97.5688 38.8103C97.2653 40.2553 95.208 44.1627 94.8626 43.95C94.801 43.912 94.7816 43.9618 94.8196 44.0605C94.9361 44.3627 92.5809 46.6055 91.1706 47.5353C88.4509 49.3284 85.7282 50.145 82.4404 50.1536C78.5109 50.1639 75.3389 49.017 72.1352 46.4275C70.7988 45.3473 68.7155 42.7624 68.8662 42.3713C68.9011 42.2807 68.8759 42.2396 68.8101 42.2801C68.7444 42.3206 68.6581 42.2696 68.6185 42.1667C68.4955 41.8474 68.366 41.9596 68.2866 42.4543C68.1861 43.0798 67.9665 43.5454 67.8156 43.4526C67.7491 43.4116 67.7292 43.4338 67.7715 43.502C67.8808 43.6781 67.3754 44.2793 67.1807 44.2049C67.0917 44.1709 66.9819 44.2028 66.9365 44.2759C66.8831 44.3619 66.9095 44.3747 67.0113 44.312C67.1119 44.25 67.1393 44.2621 67.0876 44.3456C67.0431 44.4173 66.697 44.5924 66.3186 44.7347C65.764 44.9432 65.4673 44.9812 64.7899 44.9304C64.3277 44.8958 63.8231 44.8291 63.6688 44.7823L63.3881 44.6972L63.6994 45.3091C64.5473 46.9759 66.2564 49.1728 67.6804 50.4264C70.1954 52.6404 73.0283 54.0715 76.3359 54.7989C78.0632 55.1787 81.7805 55.1798 83.5388 54.801C87.2974 53.9913 90.3557 52.3271 93.0518 49.6243C93.8064 48.8678 95.0521 47.3218 95.3351 46.7904C95.4149 46.6406 95.5254 46.5458 95.5807 46.5798C95.636 46.6138 95.6745 46.575 95.6663 46.4935C95.6582 46.412 95.9155 45.834 96.2382 45.209C96.5608 44.5841 96.9762 43.6691 97.1613 43.1758C97.6187 41.9562 97.6001 42.301 97.1376 43.6148C96.4822 45.4767 95.1035 48.0452 94.8449 47.886C94.761 47.8343 94.7444 47.8577 94.8006 47.9483C94.9361 48.1667 93.7083 49.69 92.3502 50.9885C87.7814 55.3566 81.2973 57.1194 75.1161 55.6739C73.4626 55.2872 72.3536 54.8747 70.7194 54.0383C68.265 52.7822 65.7878 50.6874 64.2987 48.6087C63.8127 47.9303 63.7644 47.8095 63.907 47.6283C64.0517 47.4443 64.0478 47.4386 63.8711 47.5761C63.6972 47.7116 63.6211 47.6452 63.2541 47.0379C62.5565 45.8836 62.122 44.9442 61.6543 43.5794C61.4092 42.8641 61.1997 42.2655 61.1888 42.2494C61.1778 42.2333 60.7139 42.669 60.1577 43.2178C59.6016 43.7665 58.7684 44.5268 58.3061 44.9073C57.8438 45.2879 57.4231 45.6371 57.3713 45.6834C57.2436 45.7975 57.8656 47.4473 58.542 48.7888C58.8457 49.3912 59.0568 49.9489 59.0111 50.0283C58.9654 50.1076 58.9723 50.1325 59.0265 50.0836C59.163 49.9604 59.4806 50.4399 59.3751 50.6099C59.3236 50.693 59.3422 50.7153 59.4222 50.6661C59.4956 50.6209 59.6196 50.7062 59.6999 50.8569C60.2924 51.9694 62.6339 54.5679 64.1098 55.7508C67.1301 58.1716 71.0529 59.8435 74.6992 60.2641C75.9836 60.4122 78.4194 60.417 79.6739 60.2739V60.2739ZM97.5189 42.0296C97.5246 41.8903 97.5531 41.8619 97.5914 41.9573C97.6261 42.0437 97.6218 42.1468 97.5819 42.1866C97.542 42.2263 97.5136 42.1557 97.5188 42.0296H97.5189ZM97.6389 38.2023C97.6447 38.063 97.6731 38.0346 97.7115 38.13C97.7462 38.2164 97.7419 38.3195 97.702 38.3593C97.6621 38.399 97.6337 38.3284 97.6389 38.2023H97.6389ZM65.1224 44.7718C65.0411 44.739 64.879 44.737 64.7622 44.7673C64.6454 44.7977 64.7119 44.8245 64.91 44.8269C65.1081 44.8293 65.2037 44.8045 65.1224 44.7718ZM88.8839 43.0096C90.9334 42.4917 92.7401 41.5009 94.3613 40.0058C95.2043 39.2283 96.2184 37.9671 96.5968 37.2255L96.7951 36.8368H95.6441C94.5081 36.8368 94.4859 36.8424 93.9301 37.2659C93.1444 37.8645 91.6029 38.5853 90.5165 38.8621C87.5823 39.6096 84.5741 39.0842 82.1091 37.3935L81.2974 36.8368H78.1167C76.3673 36.8368 74.936 36.8699 74.936 36.9104C74.936 37.178 76.2315 38.8617 77.1074 39.7324C79.0893 41.7024 81.5075 42.9154 84.2114 43.2959C85.4393 43.4686 87.5882 43.337 88.8839 43.0096ZM103.113 40.2876C103.025 39.5489 102.659 38.8541 101.974 38.1241C101.509 37.6293 100.708 37.076 100.456 37.076C100.42 37.076 100.392 37.4931 100.393 38.0029L100.395 38.9299L101.125 39.8083C101.603 40.3827 102.027 40.763 102.351 40.9073C103.02 41.2056 103.204 41.0556 103.113 40.2876H103.113ZM91.0642 37.5599C91.5625 37.4329 92.1764 37.2207 92.4284 37.0882L92.8866 36.8474L88.6241 36.8469C84.0015 36.8463 83.9674 36.8532 85.7454 37.4252C87.3935 37.9554 89.3201 38.0042 91.0642 37.5599V37.5599ZM73.1324 35.397C73.0604 35.2629 72.6562 34.7307 72.2342 34.2143C71.8123 33.6979 71.5046 33.2339 71.5505 33.1831C71.5964 33.1323 71.5731 33.1254 71.4986 33.1678C71.4241 33.2101 71.1269 33.0389 70.8382 32.7873C69.2288 31.3849 66.8499 30.2423 64.9502 29.9592L64.39 29.8757L64.307 30.5755C64.2613 30.9604 64.0959 31.5972 63.9394 31.9907L63.6547 32.706L64.086 33.146C64.356 33.4214 64.4828 33.6416 64.425 33.7348C64.369 33.825 64.3818 33.8534 64.4573 33.8069C64.5834 33.7293 65.2313 34.3702 65.8576 35.1923L66.1993 35.6408H69.7313C73.2485 35.6408 73.2629 35.6397 73.1324 35.397ZM80.4593 35.4111C80.4593 35.0891 79.7782 33.2013 79.374 32.4031C78.3816 30.4431 76.5502 28.2768 74.7604 26.946C73.0848 25.7001 70.6958 24.6547 68.5121 24.2119C67.1812 23.942 64.4993 23.9083 63.0789 24.1436C62.5341 24.2339 62.0883 24.327 62.0883 24.3505C62.0883 24.374 62.3059 24.6769 62.5718 25.0236C63.1723 25.8066 63.8123 27.0551 64.013 27.8351L64.1651 28.4263L65.2292 28.5674C68.6074 29.0154 71.7699 30.8644 73.8301 33.5962C74.2072 34.0961 74.6507 34.7607 74.8157 35.073L75.1157 35.6408H77.7874C80.3422 35.6408 80.4593 35.6307 80.4593 35.4111ZM86.8841 34.7737C86.5785 31.5947 85.5864 28.765 83.8674 26.1688C82.8313 24.604 80.4964 22.2451 78.9584 21.2093C74.8959 18.4733 70.2582 17.4901 65.2702 18.3073C64.0725 18.5035 61.8153 19.2634 60.5438 19.8984C59.3564 20.4914 57.8852 21.383 57.8869 21.5085C57.8869 21.5519 58.3423 21.7944 58.8976 22.0472C59.4529 22.3001 60.2367 22.7716 60.6395 23.0949L61.3719 23.6827L62.2502 23.4536C67.7347 22.0227 73.713 23.7505 77.6598 27.9074C78.8161 29.1253 79.7985 30.5516 80.442 31.9468C80.9035 32.9473 81.4534 34.5155 81.6011 35.2521L81.679 35.6408H84.3233H86.9675L86.8841 34.7737ZM56.0675 34.5006C56.5217 34.12 56.7291 33.5076 56.657 32.7603C56.5865 32.0298 56.4071 31.8135 55.8714 31.8135C55.3191 31.8135 54.6182 32.5146 54.4293 33.2561C54.1191 34.4734 55.1582 35.2628 56.0675 34.5006ZM99.141 33.9969C99.0098 33.8662 98.9198 34.074 99.014 34.2901C99.1033 34.495 99.1098 34.4948 99.1595 34.2859C99.1882 34.1656 99.1798 34.0356 99.141 33.9969V33.9969ZM101.772 33.7877C103.828 33.4557 103.921 33.4189 104.212 32.8227C104.512 32.2068 104.654 31.47 104.55 31.0605C104.434 30.6003 103.891 30.1389 103.467 30.1402C102.929 30.1418 101.944 30.7483 100.979 31.6711L100.143 32.4713L100.224 33.2188C100.317 34.0783 100.212 34.0396 101.772 33.7877ZM50.1425 32.2548C51.018 31.3827 50.7469 29.541 49.743 29.541C49.0214 29.541 48.4002 30.4136 48.4002 31.4271C48.4002 32.028 48.5301 32.289 48.9405 32.5126C49.3648 32.7438 49.7302 32.6654 50.1425 32.2548ZM58.4297 20.3636C59.8529 19.3553 61.5699 18.4965 63.2629 17.9461C65.4454 17.2366 66.7211 17.0425 69.2011 17.0425C71.2259 17.0425 71.3274 17.0315 71.2598 16.8192C71.2206 16.6963 70.7652 15.7457 70.2477 14.7067L69.3068 12.8175L68.7894 12.8787C65.468 13.272 61.9053 14.6359 59.41 16.4697C58.256 17.3177 54.764 20.6568 54.764 20.9122C54.764 20.9771 55.1253 21.0687 55.5669 21.1158C56.0085 21.1629 56.5083 21.2415 56.6776 21.2903C56.8589 21.3426 57.0659 21.3237 57.1815 21.2441C57.2894 21.1698 57.8511 20.7736 58.4297 20.3636ZM88.3239 21.0492C88.3647 20.9834 88.3409 20.9296 88.271 20.9296C88.201 20.9296 88.1438 20.9834 88.1438 21.0492C88.1438 21.115 88.1676 21.1688 88.1968 21.1688C88.2259 21.1688 88.2831 21.115 88.3239 21.0492ZM86.5307 15.8377L86.9375 14.9485L85.5294 14.2467C82.1327 12.5537 78.5611 11.6594 74.9058 11.5867C73.4952 11.5586 73.1116 11.6501 74.1178 11.7746C76.5725 12.0783 79.4101 12.9617 81.5105 14.0761C82.6264 14.6681 84.4685 15.877 85.2615 16.5378C86.0087 17.1603 85.8975 17.2216 86.5307 15.8377ZM94.6549 2.78152C95.0359 2.42058 95.2789 1.78252 95.168 1.43448C95.0675 1.11902 94.9067 1.22509 94.8082 1.67179C94.7652 1.86666 94.4776 2.30576 94.1691 2.64758C93.6106 3.26632 93.6097 3.26867 93.9678 3.18039C94.1656 3.13162 94.4748 2.95213 94.6549 2.78152ZM64.97 3.03629C64.97 2.99643 64.8344 2.85756 64.6687 2.72771C64.503 2.59786 64.3989 2.44077 64.4375 2.37862C64.4761 2.31648 64.4486 2.28042 64.3765 2.2985C64.2513 2.32986 63.8638 1.72857 63.7231 1.28484C63.6107 0.930268 63.4091 1.0533 63.4091 1.47645C63.4091 1.99428 63.8421 2.63407 64.3721 2.89929C64.8125 3.11971 64.97 3.1558 64.97 3.03629Z" fill="#392E2A"/>
<path d="M37.948 88.1657C38.0628 88.1657 38.1919 88.2239 38.3354 88.3402C38.5077 88.4565 38.6512 88.6309 38.766 88.8635C38.9095 89.0671 38.9812 89.2851 38.9812 89.5177C38.9812 90.1283 38.8521 90.8988 38.5938 91.8293C36.5273 98.8365 35.4941 103.808 35.4941 106.745C35.4941 109.013 36.0824 110.147 37.2592 110.147C38.2924 110.147 39.627 109.42 41.2629 107.966C42.8989 106.513 44.4918 104.695 46.0416 102.515C47.5914 100.305 48.9117 97.7462 50.0023 94.8386C51.1216 91.931 51.6813 89.1834 51.6813 86.5956C51.6813 83.8625 50.9351 82.2197 49.4426 81.6673C49.0121 81.5219 48.7969 81.3329 48.7969 81.1003C48.7969 81.0422 48.8256 80.984 48.883 80.9259C48.9404 80.8386 49.0121 80.7805 49.0982 80.7514C49.213 80.7223 49.3422 80.7078 49.4857 80.7078C50.6624 80.7078 51.6526 81.2021 52.4562 82.1907C53.2885 83.1502 53.7047 84.5458 53.7047 86.3776C53.7047 88.9653 53.0446 91.8293 51.7243 94.9695C50.4041 98.0806 48.8256 100.872 46.9887 103.343C45.1519 105.786 43.2289 107.835 41.2199 109.493C39.2395 111.179 37.5892 112.022 36.269 112.022C34.4896 112.022 33.5998 110.394 33.5998 107.138C33.5998 106.033 33.7003 104.724 33.9012 103.212C34.1308 101.671 34.3604 100.334 34.59 99.2C34.8196 98.0369 35.1066 96.6995 35.451 95.1875C35.7954 93.6465 36.0107 92.6434 36.0968 92.1782C33.9729 93.8936 31.7343 96.2342 29.3808 99.2C27.0274 102.166 25.2479 104.594 24.0425 106.483C22.8658 108.373 21.8182 110.132 20.8998 111.761V111.717C20.2397 112.967 19.5939 113.592 18.9625 113.592C18.6755 113.592 18.4459 113.462 18.2737 113.2C18.1302 112.967 18.0584 112.633 18.0584 112.197C18.0584 111.819 18.1158 111.426 18.2306 111.019C18.3167 110.729 18.9912 108.664 20.254 104.826C21.5168 100.988 22.5788 97.2955 23.4398 93.7483C24.3295 90.201 24.7744 87.308 24.7744 85.0692C24.7744 83.4118 24.4013 82.2343 23.655 81.5364C22.9375 80.8096 21.7177 80.4461 19.9957 80.4461C18.9051 80.4461 17.6135 80.6206 16.1211 80.9695C14.6287 81.3184 13.0501 81.8708 11.3855 82.6268C9.74955 83.3828 8.22841 84.2696 6.82208 85.2872C5.44445 86.2758 4.29642 87.5115 3.378 88.9944C2.45957 90.4482 2.00036 91.9892 2.00036 93.6174C2.00036 95.362 2.68918 96.8303 4.06681 98.0224C5.47315 99.2145 7.06604 99.8106 8.84548 99.8106C10.424 99.8106 11.5577 99.5634 12.2465 99.0691C12.3039 99.011 12.3613 98.9674 12.4187 98.9383C12.5048 98.9092 12.5766 98.8947 12.634 98.8947C12.6914 98.8656 12.7488 98.8511 12.8062 98.8511C12.9784 98.8511 13.0645 98.9238 13.0645 99.0691C13.0645 99.2727 12.8636 99.4907 12.4618 99.7233C11.6294 100.218 10.3379 100.465 8.58717 100.465C8.32887 100.465 8.02751 100.465 7.6831 100.465C5.76015 100.407 4.03811 99.7233 2.51698 98.4149C1.02454 97.1065 0.27832 95.4637 0.27832 93.4866C0.27832 91.5385 0.938437 89.6631 2.25867 87.8604C3.6076 86.0287 5.27224 84.5313 7.25259 83.3682C9.26164 82.1761 11.3855 81.2312 13.6241 80.5333C15.8915 79.8064 17.9867 79.443 19.9096 79.443C24.8174 79.443 27.2713 81.6382 27.2713 86.0287C27.2713 86.93 27.1852 87.875 27.013 88.8635C26.8695 89.8521 26.5825 91.0297 26.152 92.3962C25.7502 93.7337 25.4488 94.7078 25.2479 95.3184C25.047 95.8999 24.6165 97.0629 23.9564 98.8075C23.325 100.552 22.9662 101.526 22.8801 101.73C21.933 104.405 21.3733 106.483 21.2011 107.966C27.257 100.232 31.6769 94.7805 34.4609 91.6112C34.6905 91.3495 34.9775 91.0151 35.3219 90.6081C36.1829 89.6195 36.7713 88.9653 37.087 88.6455C37.4314 88.3256 37.7184 88.1657 37.948 88.1657Z" fill="#392E2A"/>
<path d="M62.3085 96.2779C62.8538 96.3651 63.1265 96.525 63.1265 96.7576C63.1265 96.9902 62.9112 97.2228 62.4807 97.4554C62.0502 97.659 61.6627 97.7607 61.3183 97.7607C61.3183 101.163 60.4429 104.07 58.6922 106.483C56.9415 108.897 55.2051 110.103 53.483 110.103C51.8184 110.103 50.9861 108.882 50.9861 106.44C50.9861 105.771 51.0435 105.102 51.1583 104.434C51.3018 103.678 51.5601 102.704 51.9332 101.511C52.3063 100.319 52.7942 99.0255 53.3969 97.6299C53.9996 96.2342 54.7315 95.0567 55.5925 94.0972C56.4823 93.1086 57.372 92.6143 58.2617 92.6143H58.5631C58.5631 92.2073 58.6779 91.8583 58.9075 91.5676C59.1371 91.2768 59.4528 91.1315 59.8546 91.1315C60.2564 91.1605 60.6152 92.0183 60.9309 93.7047C61.2466 95.362 61.7058 96.2197 62.3085 96.2779ZM60.1129 97.4118C59.8546 97.2664 59.5389 96.7576 59.1658 95.8853C58.7927 94.984 58.5344 94.5333 58.3909 94.5333C57.5011 94.5333 56.4679 95.8708 55.2912 98.5458C54.1144 101.192 53.3826 103.285 53.0956 104.826C52.9808 105.495 52.9234 106.105 52.9234 106.658C52.9234 108.083 53.3252 108.795 54.1288 108.795C55.2768 108.795 56.554 107.617 57.9603 105.262C59.3954 102.878 60.1129 100.261 60.1129 97.4118Z" fill="#392E2A"/>
<path d="M73.5337 96.2779C74.079 96.3651 74.3517 96.525 74.3517 96.7576C74.3517 96.9902 74.1364 97.2228 73.7059 97.4554C73.2754 97.659 72.888 97.7607 72.5435 97.7607C72.5435 101.163 71.6682 104.07 69.9174 106.483C68.1667 108.897 66.4303 110.103 64.7083 110.103C63.0436 110.103 62.2113 108.882 62.2113 106.44C62.2113 105.771 62.2687 105.102 62.3835 104.434C62.527 103.678 62.7853 102.704 63.1584 101.511C63.5315 100.319 64.0194 99.0255 64.6222 97.6299C65.2249 96.2342 65.9567 95.0567 66.8178 94.0972C67.7075 93.1086 68.5972 92.6143 69.4869 92.6143H69.7883C69.7883 92.2073 69.9031 91.8583 70.1327 91.5676C70.3623 91.2768 70.678 91.1315 71.0798 91.1315C71.4816 91.1605 71.8404 92.0183 72.1561 93.7047C72.4718 95.362 72.931 96.2197 73.5337 96.2779ZM71.3381 97.4118C71.0798 97.2664 70.7641 96.7576 70.391 95.8853C70.0179 94.984 69.7596 94.5333 69.6161 94.5333C68.7263 94.5333 67.6931 95.8708 66.5164 98.5458C65.3397 101.192 64.6078 103.285 64.3208 104.826C64.206 105.495 64.1486 106.105 64.1486 106.658C64.1486 108.083 64.5504 108.795 65.354 108.795C66.502 108.795 67.7792 107.617 69.1856 105.262C70.6206 102.878 71.3381 100.261 71.3381 97.4118Z" fill="#392E2A"/>
<path d="M84.1132 82.1034C82.5346 85.4181 80.9274 89.4305 79.2915 94.1408C77.6555 98.822 76.4501 102.922 75.6752 106.44C75.6465 106.527 75.6321 106.643 75.6321 106.789C75.6321 107.138 75.7756 107.312 76.0626 107.312C76.2348 107.312 76.694 107.094 77.4403 106.658C78.2152 106.222 78.7031 106.004 78.904 106.004C79.0762 106.004 79.2054 106.062 79.2915 106.178C79.2915 106.527 78.5739 107.181 77.1389 108.141C75.7039 109.071 74.685 109.536 74.0823 109.536C73.537 109.536 73.2643 109.275 73.2643 108.751C73.2643 108.461 73.3217 108.155 73.4365 107.835C74.1827 105.771 74.8716 103.721 75.503 101.686C76.1631 99.6507 76.9093 97.2374 77.7416 94.4461C78.5739 91.6257 79.191 89.5468 79.5928 88.2093C79.6789 87.9477 79.722 87.686 79.722 87.4243C79.722 87.308 79.6933 87.2062 79.6359 87.119C79.6072 87.0027 79.5928 86.9009 79.5928 86.8137C79.5928 86.7265 79.6359 86.552 79.722 86.2903C80.296 84.4586 80.8269 83.2374 81.3149 82.6268C81.8028 82.0162 82.5203 81.7109 83.4674 81.7109C83.8692 81.7109 84.0845 81.8417 84.1132 82.1034Z" fill="#392E2A"/>
<path d="M124.138 89.605C124.31 89.7504 124.397 89.8667 124.397 89.9539C124.339 90.0702 124.21 90.1429 124.009 90.172C123.779 90.172 123.564 90.1138 123.363 89.9975C122.674 89.6777 121.799 88.8054 120.737 87.3807C120.393 93.0795 119.733 97.7462 118.757 101.381C117.838 104.812 116.92 107.327 116.002 108.926C115.112 110.496 114.251 111.281 113.418 111.281C112.529 111.281 111.653 110.394 110.792 108.621C109.931 106.818 109.199 104.637 108.597 102.078C107.994 99.5198 107.506 96.8448 107.133 94.0536C106.789 91.2332 106.616 88.7763 106.616 86.6829C106.616 86.3921 106.703 86.145 106.875 85.9414C107.076 85.7088 107.277 85.5925 107.477 85.5925C107.707 85.5925 107.894 85.7088 108.037 85.9414C108.181 86.174 108.267 86.5229 108.295 86.9882C108.468 89.3142 108.683 91.5967 108.941 93.8355C109.199 96.0743 109.53 98.4585 109.931 100.988C110.362 103.518 110.878 105.553 111.481 107.094C112.113 108.635 112.787 109.406 113.505 109.406C114.825 109.406 116.289 106.498 117.896 100.683C118.183 99.6943 118.427 98.5458 118.628 97.2374C118.857 95.8999 119.029 94.5915 119.144 93.3121C119.288 92.0328 119.388 90.8262 119.446 89.6922C119.503 88.5582 119.532 87.5697 119.532 86.7265C119.532 86.5229 119.532 86.3485 119.532 86.2031C119.532 86.0287 119.532 85.8687 119.532 85.7234C119.245 85.2872 119.029 84.9529 118.886 84.7202C118.742 84.4876 118.57 84.1823 118.369 83.8044C118.197 83.4264 118.068 83.0484 117.982 82.6704C117.925 82.2924 117.896 81.8854 117.896 81.4492C117.896 81.3329 117.896 81.2166 117.896 81.1003C117.925 80.984 117.939 80.8822 117.939 80.795C117.968 80.6787 117.996 80.5769 118.025 80.4897C118.054 80.4025 118.082 80.3298 118.111 80.2717C118.168 80.1844 118.212 80.1263 118.24 80.0972C118.298 80.039 118.341 79.9954 118.369 79.9664C118.427 79.9373 118.484 79.9227 118.542 79.9227C118.656 79.9227 118.771 79.9664 118.886 80.0536C119.001 80.1408 119.13 80.2717 119.273 80.4461C119.589 80.8241 120.12 82.0017 120.866 83.9788C122.158 87.4098 123.248 89.2851 124.138 89.605ZM80.915 104.434C80.915 103.91 80.9724 103.445 81.0872 103.038C81.202 102.602 81.3311 102.384 81.4746 102.384C81.7042 102.384 81.8477 102.776 81.9051 103.561C81.9051 103.91 81.9625 104.375 82.0773 104.957C82.2208 105.509 82.4074 106.164 82.637 106.92C82.8953 107.646 83.2397 108.388 83.6702 109.144C84.1007 109.9 84.5743 110.583 85.0909 111.194C85.6362 111.833 86.3107 112.357 87.1143 112.764C87.9179 113.171 88.7646 113.374 89.6543 113.374C89.7691 113.374 89.8696 113.36 89.9557 113.331C90.0705 113.331 90.1709 113.331 90.257 113.331C91.4338 113.215 92.6105 112.517 93.7872 111.237C94.9927 109.987 96.0546 108.504 96.973 106.789C97.9201 105.044 98.8672 102.951 99.8144 100.508C100.79 98.0369 101.565 95.8853 102.139 94.0536C102.742 92.2218 103.373 90.2301 104.033 88.0785C104.693 85.9269 105.11 84.5894 105.282 84.066C104.708 83.8916 103.445 83.5863 101.493 83.1502C99.5704 82.714 98.3076 82.4523 97.7049 82.3651C96.2411 82.1325 94.964 82.0162 93.8733 82.0162C93.1845 82.0162 92.5818 82.0743 92.0652 82.1907C91.5486 82.2779 91.118 82.4233 90.7736 82.6268C90.4579 82.8012 90.214 83.0193 90.0418 83.281C89.8983 83.5136 89.8265 83.8044 89.8265 84.1533C89.8265 85.1418 90.4723 86.3485 91.7638 87.7732C93.084 89.1688 94.8778 90.5935 97.1452 92.0473C97.2887 92.1346 97.3318 92.2363 97.2744 92.3526C97.2457 92.4399 97.1309 92.4689 96.9299 92.4399C94.5478 91.8583 92.6392 90.8407 91.2042 89.3869C89.7691 87.904 89.0516 86.3921 89.0516 84.8511C89.0516 83.5718 89.5826 82.525 90.6445 81.7109C91.7351 80.8968 93.3137 80.4897 95.3801 80.4897C95.868 80.4897 96.3846 80.5188 96.9299 80.5769C97.504 80.6351 98.0923 80.7223 98.695 80.8386C99.3265 80.9259 99.9005 81.0276 100.417 81.1439C100.962 81.2602 101.565 81.4056 102.225 81.5801C102.885 81.7545 103.416 81.8999 103.818 82.0162C104.22 82.1034 104.722 82.2343 105.325 82.4087C105.928 82.5541 106.315 82.6559 106.487 82.714C106.688 82.7722 106.889 82.8449 107.09 82.9321C107.291 82.9902 107.477 83.0629 107.65 83.1502C107.822 83.2374 107.98 83.3246 108.123 83.4118C108.267 83.4991 108.382 83.5863 108.468 83.6735C108.554 83.7607 108.597 83.848 108.597 83.9352C108.597 84.0515 108.468 84.1533 108.209 84.2405C107.98 84.2986 107.607 84.3277 107.09 84.3277H106.789C106.703 84.5894 106.344 85.7234 105.712 87.7296C105.11 89.7358 104.507 91.6548 103.904 93.4866C103.33 95.2893 102.613 97.3101 101.752 99.5489C100.919 101.788 100.173 103.547 99.513 104.826C97.8771 107.937 96.155 110.38 94.3469 112.153C92.5387 113.956 90.7162 114.857 88.8794 114.857C86.6407 114.857 84.5312 113.433 82.5509 110.583C81.4603 109.013 80.915 106.963 80.915 104.434Z" fill="#392E2A"/>
<path d="M134.032 96.2779C134.578 96.3651 134.85 96.525 134.85 96.7576C134.85 96.9902 134.635 97.2228 134.204 97.4554C133.774 97.659 133.386 97.7607 133.042 97.7607C133.042 101.163 132.167 104.07 130.416 106.483C128.665 108.897 126.929 110.103 125.207 110.103C123.542 110.103 122.71 108.882 122.71 106.44C122.71 105.771 122.767 105.102 122.882 104.434C123.025 103.678 123.284 102.704 123.657 101.511C124.03 100.319 124.518 99.0255 125.121 97.6299C125.723 96.2342 126.455 95.0567 127.316 94.0972C128.206 93.1086 129.096 92.6143 129.985 92.6143H130.287C130.287 92.2073 130.402 91.8583 130.631 91.5676C130.861 91.2768 131.176 91.1315 131.578 91.1315C131.98 91.1605 132.339 92.0183 132.655 93.7047C132.97 95.362 133.429 96.2197 134.032 96.2779ZM131.837 97.4118C131.578 97.2664 131.263 96.7576 130.889 95.8853C130.516 94.984 130.258 94.5333 130.115 94.5333C129.225 94.5333 128.192 95.8708 127.015 98.5458C125.838 101.192 125.106 103.285 124.819 104.826C124.704 105.495 124.647 106.105 124.647 106.658C124.647 108.083 125.049 108.795 125.853 108.795C127.001 108.795 128.278 107.617 129.684 105.262C131.119 102.878 131.837 100.261 131.837 97.4118Z" fill="#392E2A"/>
<path d="M145.731 96.4087C145.501 96.7285 145.186 97.0484 144.784 97.3682C144.411 97.659 144.124 97.8043 143.923 97.8043C143.751 97.8043 143.665 97.7171 143.665 97.5427C143.665 97.4264 143.794 97.0193 144.052 96.3215C144.339 95.6237 144.483 95.1439 144.483 94.8822C144.483 94.6787 144.411 94.5769 144.267 94.5769C143.263 94.5769 141.77 96.147 139.79 99.2872C137.838 102.427 136.389 105.495 135.442 108.49C135.27 108.722 134.997 108.955 134.624 109.188C134.251 109.42 133.935 109.536 133.677 109.536C133.505 109.536 133.375 109.464 133.289 109.318C133.289 108.533 133.375 107.821 133.548 107.181C133.748 106.542 133.992 106.164 134.279 106.047C134.911 103.634 135.356 101.831 135.614 100.639L136.045 98.8075C136.102 98.6039 136.131 98.3713 136.131 98.1096C136.131 97.9643 136.102 97.8334 136.045 97.7171C135.987 97.6008 135.958 97.4845 135.958 97.3682C135.958 97.1937 135.987 97.0338 136.045 96.8885C136.504 95.0567 136.963 93.8064 137.422 93.1377C137.91 92.4689 138.613 92.1346 139.532 92.1346C139.876 92.1346 140.077 92.2509 140.134 92.4835C140.106 92.5707 139.89 93.0795 139.489 94.01C139.115 94.9404 138.757 95.8126 138.412 96.6268C138.097 97.4409 137.738 98.4731 137.336 99.7233C136.934 100.974 136.619 102.122 136.389 103.169C137.336 101.279 138.8 99.011 140.78 96.3651C142.76 93.6901 144.396 92.3526 145.688 92.3526C146.377 92.3526 146.721 92.7888 146.721 93.661C146.721 94.5624 146.391 95.4783 145.731 96.4087Z" fill="#392E2A"/>
<path d="M27.648 124.737H26.6563V121.943L25.4914 122.424C25.4015 122.381 25.3245 122.324 25.2603 122.251C25.1962 122.179 25.1641 122.085 25.1641 121.97C25.1641 121.746 25.3085 121.583 25.5973 121.48L26.8778 120.981H27.1088C27.2693 120.981 27.3977 121.026 27.4939 121.117C27.5966 121.208 27.648 121.332 27.648 121.489V124.737ZM26.6563 124.165H27.648V126.561C27.6031 126.579 27.5389 126.594 27.4554 126.606C27.372 126.624 27.2821 126.633 27.1859 126.633C27.0061 126.633 26.8714 126.6 26.7815 126.533C26.6981 126.467 26.6563 126.355 26.6563 126.198V124.165Z" fill="#392E2A"/>
<path d="M32.743 123.803C32.743 123.307 32.682 122.904 32.5601 122.596C32.4381 122.287 32.2745 122.061 32.0691 121.915C31.8701 121.77 31.6423 121.698 31.3855 121.698C31.1352 121.698 30.9074 121.773 30.702 121.925C30.4966 122.07 30.3329 122.3 30.211 122.614C30.0954 122.923 30.0377 123.319 30.0377 123.803C30.0377 124.486 30.1564 125.009 30.3939 125.372C30.6314 125.735 30.9619 125.916 31.3855 125.916C31.8156 125.916 32.1493 125.735 32.3868 125.372C32.6243 125.009 32.743 124.486 32.743 123.803ZM31.3855 126.688C30.9234 126.688 30.5126 126.582 30.1532 126.37C29.8002 126.158 29.5242 125.841 29.3252 125.417C29.1262 124.988 29.0268 124.45 29.0268 123.803C29.0268 123.125 29.1359 122.578 29.3541 122.16C29.5723 121.737 29.8612 121.426 30.2206 121.226C30.58 121.026 30.9683 120.927 31.3855 120.927C31.8091 120.927 32.2007 121.029 32.5601 121.235C32.9195 121.435 33.2084 121.746 33.4266 122.17C33.6448 122.587 33.7539 123.131 33.7539 123.803C33.7539 124.444 33.6512 124.979 33.4458 125.408C33.2469 125.832 32.9709 126.152 32.6179 126.37C32.2648 126.582 31.8541 126.688 31.3855 126.688Z" fill="#392E2A"/>
<path d="M38.4124 123.803C38.4124 123.307 38.3514 122.904 38.2295 122.596C38.1075 122.287 37.9439 122.061 37.7385 121.915C37.5395 121.77 37.3116 121.698 37.0549 121.698C36.8046 121.698 36.5767 121.773 36.3713 121.925C36.166 122.07 36.0023 122.3 35.8803 122.614C35.7648 122.923 35.707 123.319 35.707 123.803C35.707 124.486 35.8258 125.009 36.0633 125.372C36.3007 125.735 36.6313 125.916 37.0549 125.916C37.4849 125.916 37.8187 125.735 38.0562 125.372C38.2937 125.009 38.4124 124.486 38.4124 123.803ZM37.0549 126.688C36.5928 126.688 36.182 126.582 35.8226 126.37C35.4696 126.158 35.1936 125.841 34.9946 125.417C34.7956 124.988 34.6961 124.45 34.6961 123.803C34.6961 123.125 34.8053 122.578 35.0235 122.16C35.2417 121.737 35.5305 121.426 35.89 121.226C36.2494 121.026 36.6377 120.927 37.0549 120.927C37.4785 120.927 37.87 121.029 38.2295 121.235C38.5889 121.435 38.8777 121.746 39.096 122.17C39.3142 122.587 39.4233 123.131 39.4233 123.803C39.4233 124.444 39.3206 124.979 39.1152 125.408C38.9162 125.832 38.6402 126.152 38.2872 126.37C37.9342 126.582 37.5234 126.688 37.0549 126.688Z" fill="#392E2A"/>
<path d="M43.1575 122.297C43.1575 122.702 43.0227 123.025 42.7532 123.267C42.4836 123.503 42.1498 123.621 41.7519 123.621C41.354 123.621 41.0202 123.503 40.7506 123.267C40.481 123.025 40.3463 122.702 40.3463 122.297C40.3463 121.891 40.481 121.571 40.7506 121.335C41.0202 121.093 41.354 120.972 41.7519 120.972C42.1498 120.972 42.4836 121.093 42.7532 121.335C43.0227 121.571 43.1575 121.891 43.1575 122.297ZM41.155 122.297C41.155 122.52 41.2095 122.693 41.3187 122.814C41.4342 122.929 41.5786 122.986 41.7519 122.986C41.9316 122.986 42.076 122.929 42.1851 122.814C42.3007 122.693 42.3584 122.52 42.3584 122.297C42.3584 122.073 42.3007 121.903 42.1851 121.788C42.076 121.667 41.9316 121.607 41.7519 121.607C41.5786 121.607 41.4342 121.667 41.3187 121.788C41.2095 121.903 41.155 122.073 41.155 122.297ZM41.7134 125.853L45.1986 120.972C45.3655 120.99 45.5034 121.029 45.6126 121.09C45.7217 121.15 45.7762 121.229 45.7762 121.326C45.7762 121.392 45.7602 121.462 45.7281 121.534C45.696 121.601 45.6511 121.674 45.5933 121.752L42.1081 126.624C41.9412 126.612 41.8032 126.573 41.6941 126.506C41.585 126.434 41.5305 126.352 41.5305 126.261C41.5305 126.201 41.5465 126.137 41.5786 126.071C41.6107 126.004 41.6556 125.932 41.7134 125.853ZM46.9412 125.3C46.9412 125.711 46.8064 126.037 46.5368 126.279C46.2672 126.515 45.9335 126.633 45.5355 126.633C45.144 126.633 44.8103 126.515 44.5343 126.279C44.2647 126.037 44.1299 125.711 44.1299 125.3C44.1299 124.894 44.2647 124.574 44.5343 124.338C44.8103 124.102 45.144 123.984 45.5355 123.984C45.9335 123.984 46.2672 124.102 46.5368 124.338C46.8064 124.574 46.9412 124.894 46.9412 125.3ZM44.929 125.3C44.929 125.523 44.9836 125.696 45.0927 125.817C45.2082 125.938 45.3558 125.998 45.5355 125.998C45.7088 125.998 45.85 125.938 45.9592 125.817C46.0747 125.696 46.1325 125.523 46.1325 125.3C46.1325 125.082 46.0747 124.915 45.9592 124.801C45.85 124.68 45.7088 124.619 45.5355 124.619C45.3558 124.619 45.2082 124.68 45.0927 124.801C44.9836 124.915 44.929 125.082 44.929 125.3Z" fill="#392E2A"/>
<path d="M54.0318 123.775V124.674H53.0402V123.812C53.0402 123.509 52.9503 123.288 52.7706 123.149C52.5909 123.01 52.3502 122.941 52.0485 122.941C51.8239 122.941 51.6217 122.968 51.442 123.022C51.2623 123.077 51.1082 123.137 50.9799 123.204V124.674H49.9882V123.186C49.9882 123.047 50.0171 122.935 50.0749 122.85C50.1391 122.759 50.2386 122.675 50.3733 122.596C50.5531 122.493 50.7873 122.399 51.0762 122.315C51.365 122.23 51.6891 122.188 52.0485 122.188C52.6711 122.188 53.1557 122.321 53.5023 122.587C53.8553 122.847 54.0318 123.243 54.0318 123.775ZM49.9882 124.202H50.9799V126.542C50.9349 126.555 50.8708 126.57 50.7873 126.588C50.7103 126.606 50.6237 126.615 50.5274 126.615C50.3477 126.615 50.2129 126.582 50.123 126.515C50.0332 126.449 49.9882 126.34 49.9882 126.189V124.202ZM53.0402 124.202H54.0318V126.542C53.9869 126.555 53.9227 126.57 53.8393 126.588C53.7558 126.606 53.6692 126.615 53.5793 126.615C53.3932 126.615 53.2552 126.582 53.1653 126.515C53.0819 126.449 53.0402 126.34 53.0402 126.189V124.202Z" fill="#392E2A"/>
<path d="M57.0512 125.962C57.2823 125.962 57.478 125.941 57.6385 125.898C57.8054 125.85 57.9273 125.805 58.0043 125.762V124.592L56.9357 124.692C56.6404 124.716 56.4158 124.779 56.2617 124.882C56.1141 124.979 56.0403 125.124 56.0403 125.318C56.0403 125.517 56.1237 125.674 56.2906 125.789C56.4575 125.904 56.711 125.962 57.0512 125.962ZM57.0223 122.188C57.6192 122.188 58.091 122.312 58.4376 122.56C58.7906 122.802 58.9671 123.186 58.9671 123.712V125.826C58.9671 125.965 58.935 126.074 58.8708 126.152C58.8066 126.231 58.7168 126.3 58.6012 126.361C58.4344 126.452 58.2161 126.527 57.9466 126.588C57.6834 126.654 57.385 126.688 57.0512 126.688C56.4286 126.688 55.9408 126.576 55.5878 126.352C55.2412 126.122 55.0679 125.786 55.0679 125.345C55.0679 124.946 55.2059 124.64 55.4819 124.429C55.7579 124.211 56.1494 124.081 56.6565 124.038L58.0043 123.911V123.703C58.0043 123.431 57.9113 123.234 57.7251 123.113C57.539 122.992 57.2855 122.932 56.9646 122.932C56.7078 122.932 56.4575 122.965 56.2136 123.031C55.9761 123.098 55.7643 123.174 55.5782 123.258C55.5204 123.21 55.4691 123.152 55.4241 123.086C55.3792 123.013 55.3567 122.938 55.3567 122.859C55.3567 122.672 55.4659 122.529 55.6841 122.433C55.8638 122.354 56.0692 122.293 56.3003 122.251C56.5377 122.209 56.7784 122.188 57.0223 122.188Z" fill="#392E2A"/>
<path d="M60.2838 124.165H61.2658V125.327C61.2658 125.544 61.3332 125.699 61.468 125.789C61.6028 125.88 61.7921 125.926 62.036 125.926C62.1387 125.926 62.2543 125.91 62.3826 125.88C62.511 125.85 62.6169 125.814 62.7004 125.771C62.7453 125.814 62.7838 125.868 62.8159 125.935C62.8544 125.995 62.8736 126.065 62.8736 126.143C62.8736 126.3 62.787 126.431 62.6137 126.533C62.4468 126.63 62.1933 126.679 61.8531 126.679C61.3782 126.679 60.9963 126.579 60.7074 126.379C60.425 126.18 60.2838 125.847 60.2838 125.381V124.165ZM60.8422 123.149V122.405H62.7581C62.7838 122.442 62.8063 122.493 62.8255 122.56C62.8512 122.626 62.864 122.696 62.864 122.768C62.864 122.895 62.8319 122.992 62.7677 123.059C62.71 123.119 62.6265 123.149 62.5174 123.149H60.8422ZM61.2658 124.419H60.2838V121.144C60.3223 121.132 60.3833 121.117 60.4668 121.099C60.5502 121.081 60.64 121.072 60.7363 121.072C60.916 121.072 61.0476 121.105 61.1311 121.172C61.2209 121.238 61.2658 121.347 61.2658 121.498V124.419Z" fill="#392E2A"/>
<path d="M63.8655 124.973V124.202H64.8572V124.946C64.8572 125.296 64.9534 125.551 65.146 125.708C65.345 125.859 65.6177 125.935 65.9643 125.935C66.1954 125.935 66.3912 125.913 66.5516 125.871C66.7121 125.823 66.834 125.774 66.9175 125.726V124.202H67.9091V125.762C67.9091 125.895 67.8866 126.004 67.8417 126.089C67.7968 126.173 67.7069 126.255 67.5721 126.334C67.4117 126.424 67.1935 126.506 66.9175 126.579C66.6415 126.651 66.3206 126.688 65.9547 126.688C65.5247 126.688 65.1524 126.627 64.8379 126.506C64.5234 126.385 64.2827 126.198 64.1158 125.944C63.949 125.69 63.8655 125.366 63.8655 124.973ZM67.9091 124.655H66.9175V122.333C66.9624 122.321 67.0266 122.306 67.11 122.287C67.1935 122.269 67.2801 122.26 67.37 122.26C67.5561 122.26 67.6909 122.293 67.7743 122.36C67.8642 122.421 67.9091 122.532 67.9091 122.696V124.655ZM64.8572 124.655H63.8655V122.333C63.9104 122.321 63.9746 122.306 64.0581 122.287C64.1415 122.269 64.2314 122.26 64.3276 122.26C64.5074 122.26 64.6389 122.293 64.7224 122.36C64.8122 122.421 64.8572 122.532 64.8572 122.696V124.655Z" fill="#392E2A"/>
<path d="M70.2257 123.222V124.556H69.234V123.204C69.234 123.059 69.2661 122.941 69.3303 122.85C69.4009 122.753 69.5036 122.662 69.6384 122.578C69.8181 122.469 70.0524 122.378 70.3412 122.306C70.6365 122.233 70.9574 122.197 71.304 122.197C71.8624 122.197 72.1416 122.345 72.1416 122.641C72.1416 122.714 72.1287 122.78 72.1031 122.841C72.0838 122.901 72.0581 122.956 72.026 123.004C71.9619 122.992 71.8784 122.98 71.7757 122.968C71.6794 122.956 71.58 122.95 71.4773 122.95C71.2141 122.95 70.9734 122.977 70.7552 123.031C70.5434 123.08 70.3669 123.143 70.2257 123.222ZM69.234 124.165L70.2257 124.247V126.542C70.1807 126.555 70.1166 126.57 70.0331 126.588C69.9561 126.606 69.8695 126.615 69.7732 126.615C69.5935 126.615 69.4587 126.582 69.3688 126.515C69.279 126.449 69.234 126.34 69.234 126.189V124.165Z" fill="#392E2A"/>
<path d="M74.5953 125.962C74.8263 125.962 75.0221 125.941 75.1825 125.898C75.3494 125.85 75.4714 125.805 75.5484 125.762V124.592L74.4797 124.692C74.1845 124.716 73.9598 124.779 73.8058 124.882C73.6582 124.979 73.5844 125.124 73.5844 125.318C73.5844 125.517 73.6678 125.674 73.8347 125.789C74.0015 125.904 74.2551 125.962 74.5953 125.962ZM74.5664 122.188C75.1633 122.188 75.635 122.312 75.9816 122.56C76.3346 122.802 76.5111 123.186 76.5111 123.712V125.826C76.5111 125.965 76.4791 126.074 76.4149 126.152C76.3507 126.231 76.2608 126.3 76.1453 126.361C75.9784 126.452 75.7602 126.527 75.4906 126.588C75.2275 126.654 74.929 126.688 74.5953 126.688C73.9727 126.688 73.4849 126.576 73.1319 126.352C72.7853 126.122 72.612 125.786 72.612 125.345C72.612 124.946 72.75 124.64 73.026 124.429C73.3019 124.211 73.6935 124.081 74.2005 124.038L75.5484 123.911V123.703C75.5484 123.431 75.4553 123.234 75.2692 123.113C75.0831 122.992 74.8295 122.932 74.5086 122.932C74.2519 122.932 74.0016 122.965 73.7577 123.031C73.5202 123.098 73.3084 123.174 73.1222 123.258C73.0645 123.21 73.0131 123.152 72.9682 123.086C72.9233 123.013 72.9008 122.938 72.9008 122.859C72.9008 122.672 73.0099 122.529 73.2281 122.433C73.4078 122.354 73.6132 122.293 73.8443 122.251C74.0818 122.209 74.3225 122.188 74.5664 122.188Z" fill="#392E2A"/>
<path d="M77.8856 124.165L78.8677 124.247V126.542C78.8291 126.555 78.7682 126.57 78.6847 126.588C78.6013 126.606 78.5114 126.615 78.4152 126.615C78.2354 126.615 78.1007 126.582 78.0108 126.515C77.9274 126.449 77.8856 126.34 77.8856 126.189V124.165ZM78.8677 124.71L77.8856 124.628V120.673C77.9241 120.66 77.9851 120.645 78.0686 120.627C78.152 120.609 78.2386 120.6 78.3285 120.6C78.5146 120.6 78.6494 120.633 78.7329 120.7C78.8227 120.76 78.8677 120.869 78.8677 121.026V124.71Z" fill="#392E2A"/>
<path d="M84.2308 126.679C84.6608 126.679 85.0427 126.597 85.3764 126.434C85.7166 126.264 85.9798 126.013 86.1659 125.681C86.3585 125.342 86.4547 124.921 86.4547 124.419C86.4547 123.899 86.352 123.476 86.1466 123.149C85.9413 122.823 85.6588 122.581 85.2994 122.424C84.9464 122.266 84.5485 122.188 84.1056 122.188C83.7783 122.188 83.483 122.227 83.2199 122.306C82.9631 122.378 82.7449 122.466 82.5652 122.569C82.4304 122.647 82.3341 122.729 82.2763 122.814C82.225 122.892 82.1993 122.995 82.1993 123.122V126.107H83.191V123.177C83.3001 123.116 83.4284 123.062 83.5761 123.013C83.7237 122.965 83.9002 122.941 84.1056 122.941C84.3495 122.941 84.5741 122.989 84.7795 123.086C84.9849 123.183 85.1486 123.34 85.2705 123.558C85.3925 123.769 85.4535 124.057 85.4535 124.419C85.4535 124.94 85.3283 125.321 85.078 125.563C84.8341 125.805 84.5035 125.926 84.0863 125.926C83.836 125.926 83.6178 125.886 83.4317 125.808C83.2519 125.723 83.1011 125.629 82.9792 125.526V126.352C83.1011 126.437 83.2744 126.512 83.4991 126.579C83.7237 126.645 83.9676 126.679 84.2308 126.679ZM83.191 125.835L82.1993 125.817V127.822C82.1993 127.979 82.2443 128.091 82.3341 128.157C82.424 128.224 82.5588 128.257 82.7385 128.257C82.8348 128.257 82.9214 128.248 82.9984 128.23C83.0819 128.218 83.146 128.203 83.191 128.185V125.835Z" fill="#392E2A"/>
<path d="M88.5407 123.222V124.556H87.549V123.204C87.549 123.059 87.5811 122.941 87.6453 122.85C87.7159 122.753 87.8186 122.662 87.9534 122.578C88.1331 122.469 88.3674 122.378 88.6562 122.306C88.9515 122.233 89.2724 122.197 89.619 122.197C90.1774 122.197 90.4566 122.345 90.4566 122.641C90.4566 122.714 90.4437 122.78 90.4181 122.841C90.3988 122.901 90.3731 122.956 90.341 123.004C90.2769 122.992 90.1934 122.98 90.0907 122.968C89.9945 122.956 89.895 122.95 89.7923 122.95C89.5291 122.95 89.2884 122.977 89.0702 123.031C88.8584 123.08 88.6819 123.143 88.5407 123.222ZM87.549 124.165L88.5407 124.247V126.542C88.4958 126.555 88.4316 126.57 88.3481 126.588C88.2711 126.606 88.1845 126.615 88.0882 126.615C87.9085 126.615 87.7737 126.582 87.6838 126.515C87.594 126.449 87.549 126.34 87.549 126.189V124.165Z" fill="#392E2A"/>
<path d="M95.4914 124.438C95.4914 124.891 95.3983 125.287 95.2122 125.626C95.026 125.965 94.7629 126.228 94.4227 126.415C94.0825 126.597 93.6814 126.688 93.2192 126.688C92.7571 126.688 92.356 126.597 92.0158 126.415C91.6756 126.228 91.4125 125.968 91.2263 125.635C91.0402 125.296 90.9471 124.897 90.9471 124.438C90.9471 123.978 91.0402 123.582 91.2263 123.249C91.4189 122.91 91.6852 122.65 92.0254 122.469C92.372 122.281 92.77 122.188 93.2192 122.188C93.6749 122.188 94.0729 122.281 94.4131 122.469C94.7532 122.65 95.0164 122.91 95.2025 123.249C95.3951 123.582 95.4914 123.978 95.4914 124.438ZM93.2192 122.941C92.8341 122.941 92.5261 123.074 92.295 123.34C92.0704 123.606 91.958 123.972 91.958 124.438C91.958 124.909 92.0671 125.278 92.2854 125.544C92.51 125.805 92.8213 125.935 93.2192 125.935C93.6172 125.935 93.9253 125.802 94.1435 125.535C94.3681 125.269 94.4805 124.903 94.4805 124.438C94.4805 123.972 94.3681 123.606 94.1435 123.34C93.9188 123.074 93.6108 122.941 93.2192 122.941Z" fill="#392E2A"/>
<path d="M99.598 125.726V122.777H100.59V125.798C100.59 125.925 100.561 126.028 100.503 126.107C100.445 126.186 100.352 126.261 100.224 126.334C100.083 126.418 99.8932 126.497 99.6557 126.57C99.4183 126.648 99.1359 126.688 98.8085 126.688C98.3271 126.688 97.9003 126.609 97.5281 126.452C97.1558 126.294 96.8637 126.053 96.6519 125.726C96.4465 125.393 96.3438 124.97 96.3438 124.456C96.3438 123.93 96.4433 123.5 96.6423 123.167C96.8413 122.835 97.1141 122.59 97.4607 122.433C97.8073 122.269 98.1859 122.188 98.5967 122.188C98.8406 122.188 99.0685 122.218 99.2803 122.278C99.4921 122.339 99.659 122.414 99.7809 122.505V123.322C99.6654 123.219 99.5178 123.131 99.338 123.059C99.1583 122.98 98.9497 122.941 98.7122 122.941C98.4619 122.941 98.2309 122.992 98.0191 123.095C97.8137 123.192 97.65 123.352 97.5281 123.576C97.4061 123.8 97.3451 124.096 97.3451 124.465C97.3451 124.973 97.4735 125.345 97.7302 125.581C97.987 125.817 98.3304 125.935 98.7604 125.935C98.9594 125.935 99.123 125.913 99.2514 125.871C99.3862 125.829 99.5017 125.78 99.598 125.726ZM100.59 122.986H99.598V120.673C99.6429 120.66 99.7071 120.645 99.7905 120.627C99.874 120.609 99.9606 120.6 100.05 120.6C100.237 120.6 100.371 120.633 100.455 120.7C100.545 120.76 100.59 120.869 100.59 121.026V122.986Z" fill="#392E2A"/>
<path d="M101.934 124.973V124.202H102.926V124.946C102.926 125.296 103.022 125.551 103.215 125.708C103.413 125.859 103.686 125.935 104.033 125.935C104.264 125.935 104.46 125.913 104.62 125.871C104.781 125.823 104.903 125.774 104.986 125.726V124.202H105.978V125.762C105.978 125.895 105.955 126.004 105.91 126.089C105.865 126.173 105.775 126.255 105.641 126.334C105.48 126.424 105.262 126.506 104.986 126.579C104.71 126.651 104.389 126.688 104.023 126.688C103.593 126.688 103.221 126.627 102.906 126.506C102.592 126.385 102.351 126.198 102.184 125.944C102.017 125.69 101.934 125.366 101.934 124.973ZM105.978 124.655H104.986V122.333C105.031 122.321 105.095 122.306 105.179 122.287C105.262 122.269 105.349 122.26 105.438 122.26C105.625 122.26 105.759 122.293 105.843 122.36C105.933 122.421 105.978 122.532 105.978 122.696V124.655ZM102.926 124.655H101.934V122.333C101.979 122.321 102.043 122.306 102.127 122.287C102.21 122.269 102.3 122.26 102.396 122.26C102.576 122.26 102.707 122.293 102.791 122.36C102.881 122.421 102.926 122.532 102.926 122.696V124.655Z" fill="#392E2A"/>
<path d="M109.507 122.95C109.103 122.95 108.763 123.08 108.487 123.34C108.211 123.594 108.073 123.963 108.073 124.447C108.073 124.925 108.204 125.29 108.467 125.544C108.737 125.798 109.084 125.926 109.507 125.926C109.758 125.926 109.969 125.895 110.143 125.835C110.316 125.768 110.467 125.696 110.595 125.617C110.679 125.665 110.746 125.723 110.797 125.789C110.849 125.856 110.874 125.935 110.874 126.025C110.874 126.213 110.743 126.37 110.48 126.497C110.216 126.618 109.876 126.679 109.459 126.679C108.991 126.679 108.577 126.597 108.217 126.434C107.858 126.27 107.575 126.022 107.37 125.69C107.171 125.357 107.071 124.943 107.071 124.447C107.071 123.945 107.177 123.527 107.389 123.195C107.601 122.862 107.887 122.611 108.246 122.442C108.605 122.272 109 122.188 109.43 122.188C109.841 122.188 110.175 122.257 110.432 122.396C110.695 122.529 110.826 122.687 110.826 122.868C110.826 122.953 110.801 123.028 110.749 123.095C110.704 123.161 110.647 123.216 110.576 123.258C110.441 123.174 110.29 123.101 110.123 123.04C109.957 122.98 109.751 122.95 109.507 122.95Z" fill="#392E2A"/>
<path d="M111.957 124.165H112.939V125.327C112.939 125.544 113.006 125.699 113.141 125.789C113.276 125.88 113.465 125.926 113.709 125.926C113.812 125.926 113.927 125.91 114.056 125.88C114.184 125.85 114.29 125.814 114.373 125.771C114.418 125.814 114.457 125.868 114.489 125.935C114.528 125.995 114.547 126.065 114.547 126.143C114.547 126.3 114.46 126.431 114.287 126.533C114.12 126.63 113.866 126.679 113.526 126.679C113.051 126.679 112.669 126.579 112.381 126.379C112.098 126.18 111.957 125.847 111.957 125.381V124.165ZM112.515 123.149V122.405H114.431C114.457 122.442 114.479 122.493 114.499 122.56C114.524 122.626 114.537 122.696 114.537 122.768C114.537 122.895 114.505 122.992 114.441 123.059C114.383 123.119 114.3 123.149 114.191 123.149H112.515ZM112.939 124.419H111.957V121.144C111.995 121.132 112.056 121.117 112.14 121.099C112.223 121.081 112.313 121.072 112.409 121.072C112.589 121.072 112.721 121.105 112.804 121.172C112.894 121.238 112.939 121.347 112.939 121.498V124.419Z" fill="#392E2A"/>
<path d="M118.964 125.39C118.964 125.795 118.804 126.113 118.483 126.343C118.168 126.573 117.709 126.688 117.106 126.688C116.605 126.688 116.195 126.615 115.874 126.47C115.553 126.325 115.392 126.149 115.392 125.944C115.392 125.853 115.415 125.771 115.46 125.699C115.511 125.62 115.578 125.557 115.662 125.508C115.842 125.617 116.047 125.717 116.278 125.808C116.515 125.898 116.782 125.944 117.077 125.944C117.68 125.944 117.982 125.762 117.982 125.399C117.982 125.242 117.931 125.118 117.828 125.027C117.725 124.931 117.571 124.858 117.366 124.81L116.692 124.646C116.262 124.556 115.944 124.41 115.739 124.211C115.533 124.011 115.431 123.754 115.431 123.44C115.431 123.089 115.582 122.792 115.883 122.551C116.191 122.309 116.637 122.188 117.221 122.188C117.523 122.188 117.789 122.218 118.021 122.278C118.258 122.333 118.441 122.411 118.569 122.514C118.704 122.617 118.771 122.732 118.771 122.859C118.771 122.95 118.749 123.031 118.704 123.104C118.659 123.177 118.601 123.231 118.531 123.267C118.454 123.225 118.351 123.177 118.223 123.122C118.094 123.068 117.947 123.022 117.78 122.986C117.619 122.95 117.453 122.932 117.279 122.932C117.01 122.932 116.795 122.977 116.634 123.068C116.48 123.152 116.403 123.276 116.403 123.44C116.403 123.555 116.448 123.657 116.538 123.748C116.628 123.833 116.779 123.896 116.99 123.939L117.558 124.075C118.04 124.178 118.393 124.338 118.617 124.556C118.849 124.767 118.964 125.045 118.964 125.39Z" fill="#392E2A"/>
</svg>
