<svg width="40" height="40" viewBox="0 0 40 40" fill="none" xmlns="http://www.w3.org/2000/svg">
<g clip-path="url(#clip0_478_28)">
<path d="M35 40H5C2.23844 40 0 37.7616 0 35V5C0 2.23875 2.23844 0 5 0H35C37.7616 0 40 2.23875 40 5V35C40 37.7616 37.7616 40 35 40Z" fill="#F04923"/>
<path d="M25.2217 24.445C23.9967 24.445 22.9995 23.4481 22.9995 22.2231C22.9995 20.9975 23.9967 20 25.2217 20C26.447 20 27.4442 20.9975 27.4442 22.2231C27.4442 23.4481 26.447 24.445 25.2217 24.445ZM25.613 28.0947C24.0964 29.6091 21.1902 29.7269 20.3358 29.7269C19.4808 29.7269 16.5742 29.6091 15.0595 28.0944C14.8345 27.8694 14.8345 27.5047 15.0595 27.2797C15.2842 27.0553 15.6492 27.055 15.8739 27.2797C16.8298 28.236 18.8748 28.5753 20.3358 28.5753C21.7964 28.5753 23.8417 28.236 24.7992 27.2794C25.0248 27.055 25.3892 27.0553 25.6136 27.28C25.8386 27.5053 25.8383 27.8697 25.613 28.0947ZM13.222 22.2228C13.222 20.9972 14.2192 20 15.4452 20C16.6698 20 17.6664 20.9972 17.6664 22.2228C17.6664 23.4478 16.6698 24.4444 15.4452 24.4444C14.2192 24.4444 13.222 23.4478 13.222 22.2228ZM34.5517 20C34.5517 18.2819 33.1589 16.8891 31.4408 16.8891C30.602 16.8891 29.8427 17.2225 29.283 17.7619C27.1564 16.2275 24.2264 15.2363 20.963 15.1225L22.3802 8.4547L27.0102 9.43908C27.0667 10.6163 28.0308 11.5556 29.2217 11.5556C30.4492 11.5556 31.4442 10.5606 31.4442 9.33345C31.4442 8.10627 30.4492 7.11127 29.2217 7.11127C28.3489 7.11127 27.6014 7.61939 27.238 8.35158L22.0677 7.25252C21.9239 7.22127 21.773 7.24939 21.6498 7.33002C21.5258 7.41033 21.4395 7.53658 21.4086 7.68064L19.8261 15.1203C16.5148 15.2122 13.538 16.2047 11.3839 17.7563C10.8252 17.2203 10.068 16.8891 9.23234 16.8891C7.51422 16.8891 6.12109 18.2819 6.12109 20C6.12109 21.2641 6.87641 22.35 7.95922 22.8369C7.91141 23.1463 7.88516 23.46 7.88516 23.7778C7.88516 28.5644 13.4567 32.4444 20.3295 32.4444C27.2023 32.4444 32.7742 28.5644 32.7742 23.7778C32.7742 23.4622 32.7483 23.1503 32.7011 22.8431C33.7908 22.3591 34.5517 21.2694 34.5517 20Z" fill="white"/>
</g>
<defs>
<clipPath id="clip0_478_28">
<rect width="40" height="40" fill="white"/>
</clipPath>
</defs>
</svg>
