<svg width="99" height="37" viewBox="0 0 99 37" fill="none" xmlns="http://www.w3.org/2000/svg">
<g clip-path="url(#clip0_465_832)">
<path d="M51.1118 12.178L55.8218 11.8736C55.9293 12.6437 56.1263 13.2167 56.4486 13.6286C56.968 14.2734 57.6843 14.5957 58.6335 14.5957C59.3319 14.5957 59.8871 14.4345 60.2632 14.0943C60.6214 13.8256 60.8363 13.3958 60.8363 12.9481C60.8363 12.5183 60.6393 12.1064 60.299 11.8378C59.9408 11.5154 59.0991 11.193 57.7739 10.9065C55.6069 10.423 54.0488 9.77824 53.1355 8.95444C52.2221 8.18436 51.7028 7.0561 51.7386 5.85621C51.7386 5.0324 51.9893 4.2086 52.455 3.52806C52.9922 2.75798 53.7265 2.14908 54.604 1.80882C55.5532 1.39691 56.8784 1.18201 58.544 1.18201C60.5856 1.18201 62.1436 1.55809 63.2182 2.32817C64.2927 3.08034 64.9374 4.29814 65.1344 5.96366L60.4781 6.2323C60.3528 5.51594 60.102 4.99659 59.6901 4.65632C59.2782 4.31605 58.741 4.15487 58.0425 4.15487C57.4694 4.15487 57.0396 4.28023 56.7531 4.51305C56.4844 4.72795 56.3054 5.05031 56.3233 5.40849C56.3233 5.67712 56.4665 5.92785 56.6814 6.08903C56.9143 6.30393 57.4694 6.50093 58.347 6.68002C60.5139 7.14565 62.0541 7.61128 63.0033 8.09481C63.9524 8.57835 64.633 9.16934 65.0449 9.86779C65.4747 10.5841 65.6896 11.4079 65.6717 12.2497C65.6717 13.2526 65.3851 14.2555 64.812 15.0972C64.2211 15.9747 63.3973 16.6552 62.4302 17.0671C61.4094 17.5149 60.1199 17.7477 58.5798 17.7477C55.8576 17.7477 53.9772 17.2283 52.9206 16.1717C51.864 15.1151 51.2372 13.7898 51.1118 12.178ZM1.12826 17.479V1.46855H9.38423C10.9065 1.46855 12.0885 1.59391 12.8944 1.86254C13.6823 2.11327 14.3808 2.63262 14.8464 3.33107C15.3658 4.10115 15.6165 4.99659 15.5986 5.92785C15.6523 7.50382 14.8464 9.00816 13.4674 9.79615C12.9302 10.1006 12.3392 10.3155 11.7303 10.423C12.178 10.5483 12.6257 10.7632 13.0197 11.014C13.3242 11.2647 13.5749 11.5512 13.8077 11.8557C14.0763 12.1601 14.3092 12.5004 14.5062 12.8586L16.9059 17.4969H11.2826L8.63206 12.572C8.29179 11.9452 8.00525 11.5333 7.73661 11.3363C7.37844 11.0856 6.94863 10.9602 6.51881 10.9602H6.089V17.4611H1.12826V17.479ZM6.089 7.95154H8.18433C8.63206 7.91573 9.06187 7.84409 9.49168 7.73664C9.81404 7.68291 10.1006 7.50382 10.2976 7.23519C10.7811 6.59047 10.7095 5.67712 10.1185 5.12195C9.79613 4.85332 9.16932 4.71005 8.27388 4.71005H6.089V7.95154ZM0 31.1972L4.71002 30.8928C4.81747 31.6628 5.01447 32.2359 5.33683 32.6478C5.83828 33.2925 6.57254 33.6328 7.52171 33.6328C8.22015 33.6328 8.77533 33.4716 9.15141 33.1314C9.50959 32.8448 9.72449 32.4329 9.72449 31.9852C9.72449 31.5554 9.5275 31.1435 9.18723 30.8748C8.82905 30.5525 7.98734 30.2301 6.64418 29.9436C4.47721 29.46 2.91914 28.8153 2.00579 27.9915C1.09244 27.2214 0.573083 26.0932 0.6089 24.8933C0.6089 24.0695 0.859624 23.2457 1.32525 22.5651C1.86252 21.7951 2.59678 21.1862 3.47431 20.8459C4.42348 20.434 5.74873 20.2191 7.41426 20.2191C9.45586 20.2191 11.0139 20.5952 12.0885 21.3653C13.163 22.1353 13.7898 23.3352 13.9868 25.0007L9.3305 25.2694C9.20514 24.553 8.95441 24.0337 8.54251 23.6934C8.14852 23.3531 7.59334 23.192 6.8949 23.2099C6.32182 23.2099 5.892 23.3352 5.60546 23.586C5.31892 23.8009 5.15774 24.1232 5.17565 24.4814C5.17565 24.75 5.31892 25.0007 5.53383 25.1619C5.76664 25.3768 6.32182 25.5738 7.19935 25.7529C9.36632 26.2185 10.9065 26.6842 11.8556 27.1677C12.8048 27.6513 13.4853 28.2422 13.8973 28.9407C14.3271 29.657 14.542 30.4808 14.542 31.3047C14.542 32.3075 14.2375 33.2925 13.6823 34.1343C13.0914 35.0118 12.2675 35.6923 11.3005 36.1042C10.2797 36.5519 8.99023 36.7848 7.45007 36.7848C4.72793 36.7848 2.8475 36.2654 1.79088 35.2088C0.734262 34.1343 0.143271 32.809 0 31.1972H0Z" fill="white"/>
<path d="M23.819 29.9436L28.1529 31.251C27.9201 32.3434 27.4366 33.3821 26.774 34.2955C26.1651 35.1014 25.3592 35.7282 24.4458 36.1401C23.5146 36.552 22.3326 36.7669 20.8999 36.7669C19.1627 36.7669 17.73 36.5162 16.6376 36.0147C15.5272 35.5133 14.5781 34.6178 13.7722 33.3463C12.9663 32.0748 12.5723 30.4451 12.5723 28.4572C12.5723 25.8067 13.2707 23.7651 14.6855 22.3503C16.1003 20.9355 18.0882 20.2191 20.6671 20.2191C22.6908 20.2191 24.2667 20.631 25.4308 21.4369C26.577 22.2607 27.4366 23.5143 28.0097 25.1978L23.6399 26.1648C23.5325 25.7888 23.3713 25.4127 23.1564 25.0903C22.8878 24.7142 22.5475 24.4277 22.1356 24.2128C21.7237 23.9979 21.258 23.9083 20.7924 23.9083C19.6642 23.9083 18.8045 24.3561 18.2135 25.2694C17.7658 25.932 17.533 26.9887 17.533 28.4214C17.533 30.1943 17.8016 31.4121 18.3389 32.0748C18.8762 32.7374 19.6283 33.0597 20.6133 33.0597C21.5625 33.0597 22.2789 32.7911 22.7624 32.2718C23.2459 31.7166 23.6041 30.9465 23.819 29.9436ZM33.9375 20.4877H38.8803V26.0932H44.2888V20.4877H49.2675V36.4982H44.2888V30.0152H38.8803V36.4982H33.9375V20.4877Z" fill="white"/>
<path d="M48.5869 28.493C48.5869 25.8783 49.3212 23.8367 50.7718 22.386C52.2224 20.9354 54.264 20.2012 56.8608 20.2012C59.5292 20.2012 61.5708 20.9175 63.0214 22.3502C64.472 23.7829 65.1884 25.7887 65.1884 28.3676C65.1884 30.248 64.866 31.7703 64.2392 32.9702C63.6303 34.1521 62.6812 35.1192 61.5171 35.7639C60.3172 36.4266 58.8308 36.7668 57.0578 36.7668C55.249 36.7668 53.7626 36.4803 52.5806 35.9072C51.3628 35.2983 50.3599 34.3491 49.6973 33.1851C48.963 31.9315 48.5869 30.3734 48.5869 28.493ZM53.5298 28.5109C53.5298 30.1227 53.8342 31.2867 54.4252 32.0031C55.0162 32.7015 55.84 33.0597 56.8787 33.0597C57.9353 33.0597 58.7591 32.7194 59.3501 32.021C59.9411 31.3226 60.2277 30.0868 60.2277 28.296C60.2277 26.7916 59.9232 25.6813 59.3143 25.0007C58.7054 24.3023 57.8816 23.962 56.8429 23.962C55.9295 23.9262 55.052 24.3202 54.4431 25.0186C53.8342 25.7171 53.5298 26.8812 53.5298 28.5109ZM70.2566 28.493C70.2566 25.8783 70.9909 23.8367 72.4415 22.386C73.8921 20.9354 75.9337 20.2012 78.5305 20.2012C81.1989 20.2012 83.2584 20.9175 84.6911 22.3502C86.1238 23.7829 86.8581 25.7887 86.8581 28.3676C86.8581 30.248 86.5357 31.7703 85.9089 32.9702C85.3 34.1521 84.3508 35.1192 83.1868 35.7639C81.9869 36.4266 80.5004 36.7668 78.7275 36.7668C76.9187 36.7668 75.4323 36.4803 74.2503 35.9072C73.0325 35.2983 72.0296 34.3491 71.3669 33.1851C70.6327 31.9315 70.2566 30.3734 70.2566 28.493ZM75.1994 28.5109C75.1994 30.1227 75.5039 31.2867 76.0949 32.0031C76.6859 32.7015 77.5097 33.0597 78.5484 33.0597C79.605 33.0597 80.4288 32.7194 81.0198 32.021C81.6108 31.3226 81.8973 30.0868 81.8973 28.296C81.8973 26.7916 81.5929 25.6813 80.984 25.0007C80.3751 24.3023 79.5513 23.962 78.5126 23.962C77.5992 23.9262 76.7038 24.3202 76.1128 25.0186C75.5039 25.7171 75.1994 26.8812 75.1994 28.5109Z" fill="white"/>
<path d="M86.3382 20.4877H91.2811V32.5582H98.9998V36.4982H86.3203V20.4877H86.3382Z" fill="white"/>
<path d="M80.8905 19.5638C85.8668 15.8137 87.4014 9.45663 84.318 5.36494C81.2345 1.27325 74.7008 0.996341 69.7244 4.74645C64.748 8.49656 63.2135 14.8536 66.2969 18.9453C69.3803 23.037 75.9141 23.3139 80.8905 19.5638Z" fill="white"/>
<path d="M80.8905 19.5637C85.8668 15.8135 87.4014 9.45651 84.318 5.36482C81.2345 1.27313 74.7008 0.996219 69.7244 4.74633C64.748 8.49644 63.2135 14.8535 66.2969 18.9452C69.3803 23.0369 75.9141 23.3138 80.8905 19.5637Z" fill="white"/>
<path d="M70.2748 10.978L72.0657 9.7244L74.2685 12.8584C74.6445 13.3599 74.9311 13.8972 75.146 14.4882C75.2714 14.9359 75.2355 15.4194 75.0565 15.8492C74.8236 16.3865 74.4475 16.8342 73.9461 17.1566C73.3551 17.5685 72.8537 17.8013 72.4239 17.8729C72.0119 17.9446 71.5821 17.8729 71.1881 17.6938C70.7583 17.4789 70.3822 17.1745 70.0957 16.7805L71.6359 15.3478C71.7612 15.5448 71.9224 15.7239 72.1015 15.8671C72.2269 15.9567 72.3701 16.0104 72.5313 16.0104C72.6567 16.0104 72.782 15.9567 72.8716 15.885C73.0507 15.7776 73.176 15.5627 73.1581 15.3478C73.1044 15.0433 72.979 14.7389 72.782 14.5061L70.2748 10.978ZM75.6474 12.9659L77.2771 11.6765C77.4562 11.8914 77.6891 12.0526 77.9398 12.1421C78.298 12.2495 78.674 12.1779 78.9785 11.9451C79.1934 11.8018 79.3725 11.6048 79.4441 11.3541C79.5516 11.0317 79.3725 10.6736 79.0501 10.5661C78.9964 10.5482 78.9427 10.5303 78.8889 10.5303C78.674 10.5124 78.2979 10.6019 77.7428 10.8348C76.8294 11.2108 76.1131 11.3541 75.5758 11.3004C75.0564 11.2467 74.5729 10.978 74.2864 10.5303C74.0715 10.2259 73.964 9.86767 73.9461 9.5095C73.9461 9.09759 74.0536 8.68569 74.2864 8.34542C74.6266 7.86189 75.0385 7.44998 75.54 7.12762C76.2922 6.60827 76.9548 6.35754 77.5279 6.35754C78.101 6.35754 78.6382 6.62618 79.1397 7.18135L77.5279 8.45288C77.2055 8.04097 76.5966 7.95143 76.1847 8.27379L76.131 8.32752C75.9519 8.43497 75.8265 8.59615 75.7549 8.79314C75.7012 8.93642 75.737 9.09759 75.8265 9.22296C75.8982 9.3125 76.0056 9.38414 76.131 9.38414C76.2743 9.40205 76.525 9.33041 76.8831 9.16923C77.7786 8.79314 78.4591 8.57824 78.9248 8.5066C79.3188 8.43497 79.7307 8.47079 80.1067 8.63197C80.447 8.77524 80.7335 9.02596 80.9305 9.33041C81.1813 9.68859 81.3245 10.1184 81.3425 10.5661C81.3604 11.0317 81.235 11.4795 80.9843 11.8735C80.6619 12.357 80.25 12.7689 79.7665 13.0913C78.7815 13.7718 77.9756 14.0583 77.3309 13.9509C76.6324 13.8434 76.0593 13.4853 75.6474 12.9659Z" fill="#292827"/>
</g>
<defs>
<clipPath id="clip0_465_832">
<rect width="99" height="36.7668" fill="white"/>
</clipPath>
</defs>
</svg>
