<svg width="40" height="40" viewBox="0 0 40 40" fill="none" xmlns="http://www.w3.org/2000/svg">
<g clip-path="url(#clip0_478_29)">
<path d="M35 40H5C2.24 40 0 37.76 0 35V5C0 2.24 2.24 0 5 0H35C37.76 0 40 2.24 40 5V35C40 37.76 37.76 40 35 40Z" fill="#1DA1F2"/>
<path d="M15.3598 30.16C24.7898 30.16 29.9498 22.34 29.9498 15.57C29.9498 15.35 29.9498 15.13 29.9398 14.91C30.9398 14.19 31.8098 13.28 32.4998 12.25C31.5798 12.66 30.5898 12.93 29.5498 13.06C30.6098 12.43 31.4198 11.42 31.8098 10.22C30.8198 10.81 29.7198 11.23 28.5498 11.46C27.6098 10.46 26.2798 9.84003 24.8098 9.84003C21.9798 9.84003 19.6798 12.14 19.6798 14.97C19.6798 15.37 19.7298 15.76 19.8098 16.14C15.5498 15.93 11.7698 13.88 9.23977 10.78C8.79977 11.54 8.54977 12.42 8.54977 13.36C8.54977 15.14 9.45977 16.71 10.8298 17.63C9.98977 17.6 9.19977 17.37 8.50977 16.99V17.06C8.50977 19.54 10.2798 21.62 12.6198 22.09C12.1898 22.21 11.7398 22.27 11.2698 22.27C10.9398 22.27 10.6198 22.24 10.3098 22.18C10.9598 24.22 12.8598 25.7 15.0998 25.74C13.3398 27.12 11.1298 27.94 8.72977 27.94C8.31977 27.94 7.90977 27.92 7.50977 27.87C9.76977 29.31 12.4698 30.16 15.3598 30.16Z" fill="white"/>
</g>
<defs>
<clipPath id="clip0_478_29">
<rect width="40" height="40" fill="white"/>
</clipPath>
</defs>
</svg>
