<svg width="116" height="116" viewBox="0 0 116 116" fill="none" xmlns="http://www.w3.org/2000/svg">
<path d="M115 58.0246C114.995 70.5083 110.891 82.645 103.32 92.5705C95.7484 102.496 85.1279 109.662 73.0897 112.966C61.0514 116.271 48.261 115.533 36.6832 110.864C25.1054 106.195 15.3804 97.8548 9.00197 87.1237C2.62355 76.3925 -0.0555447 63.8641 1.37619 51.4628C2.80792 39.0615 8.2713 27.4732 16.9272 18.4777C25.583 9.48225 36.9527 3.57719 49.2897 1.66953C61.6268 -0.238132 74.2489 1.95711 85.2175 7.91806C94.2315 12.8168 101.756 20.0575 106.998 28.8764C112.24 37.6953 115.004 47.7655 115 58.0246Z" fill="#FFD41F"/>
<path d="M58 115.024C89.4802 115.024 115 89.5047 115 58.0245C115 26.5443 89.4802 1.02454 58 1.02454C26.5197 1.02454 1 26.5443 1 58.0245C1 89.5047 26.5197 115.024 58 115.024Z" stroke="#1A1A1A" stroke-width="1.5" stroke-linecap="round" stroke-linejoin="round"/>
<ellipse cx="36.625" cy="43.7745" rx="12.4687" ry="16.0312" fill="white"/>
<path d="M49.0928 43.7744C49.0928 52.6282 43.5104 59.8057 36.6241 59.8057C29.7378 59.8057 19.7019 50.0089 27.718 51.7901C37.0547 53.8648 38.649 54.2187 42.8586 50.009C45.5305 47.337 49.0928 34.9206 49.0928 43.7744Z" fill="#E8E8E8"/>
<path d="M39.2786 46.1613C41.9544 46.1613 44.1236 43.5057 44.1236 40.2298C44.1236 36.9539 41.9544 34.2982 39.2786 34.2982C36.6028 34.2982 34.4336 36.9539 34.4336 40.2298C34.4336 43.5057 36.6028 46.1613 39.2786 46.1613Z" fill="black"/>
<ellipse cx="79.375" cy="43.7745" rx="12.4687" ry="16.0312" fill="white"/>
<path d="M93.0264 43.7744C93.0264 52.6282 87.4439 59.8057 80.5576 59.8057C73.6714 59.8057 63.6354 50.0089 71.6516 51.7901C80.9883 53.8648 82.5826 54.2187 86.7922 50.009C89.4641 47.337 93.0264 34.9206 93.0264 43.7744Z" fill="#E8E8E8"/>
<path d="M75.3489 46.1613C78.0247 46.1613 80.1939 43.5057 80.1939 40.2298C80.1939 36.9539 78.0247 34.2982 75.3489 34.2982C72.6731 34.2982 70.5039 36.9539 70.5039 40.2298C70.5039 43.5057 72.6731 46.1613 75.3489 46.1613Z" fill="black"/>
<path d="M79.375 96.4103C77.9144 90.265 68.8834 85.5447 58 85.5447C47.1166 85.5447 37.9966 90.265 36.625 96.4103" stroke="#1A1A1A" stroke-width="1.5" stroke-linecap="round" stroke-linejoin="round"/>
<path d="M36.3043 59.5029C43.3381 59.5029 49.0402 52.5727 49.0402 44.0238C49.0402 35.475 43.3381 28.5448 36.3043 28.5448C29.2704 28.5448 23.5684 35.475 23.5684 44.0238C23.5684 52.5727 29.2704 59.5029 36.3043 59.5029Z" stroke="#1A1A1A" stroke-width="1.5" stroke-linecap="round" stroke-linejoin="round"/>
<path d="M36.3043 59.5029C43.3381 59.5029 49.0402 52.5727 49.0402 44.0238C49.0402 35.475 43.3381 28.5448 36.3043 28.5448C29.2704 28.5448 23.5684 35.475 23.5684 44.0238C23.5684 52.5727 29.2704 59.5029 36.3043 59.5029Z" stroke="#1A1A1A" stroke-width="1.5" stroke-linecap="round" stroke-linejoin="round"/>
<path d="M36.3043 59.5029C43.3381 59.5029 49.0402 52.5727 49.0402 44.0238C49.0402 35.475 43.3381 28.5448 36.3043 28.5448C29.2704 28.5448 23.5684 35.475 23.5684 44.0238C23.5684 52.5727 29.2704 59.5029 36.3043 59.5029Z" stroke="#1A1A1A" stroke-width="1.5" stroke-linecap="round" stroke-linejoin="round"/>
<path d="M79.6949 59.5029C86.7288 59.5029 92.4308 52.5727 92.4308 44.0238C92.4308 35.475 86.7288 28.5448 79.6949 28.5448C72.6611 28.5448 66.959 35.475 66.959 44.0238C66.959 52.5727 72.6611 59.5029 79.6949 59.5029Z" stroke="#1A1A1A" stroke-width="1.5" stroke-linecap="round" stroke-linejoin="round"/>
</svg>
