<svg width="33" height="21" viewBox="0 0 33 21" fill="none" xmlns="http://www.w3.org/2000/svg">
<path fill-rule="evenodd" clip-rule="evenodd" d="M23 19.5C23 20.3284 22.7358 21 22.41 21H10.59C10.2642 21 10 20.3284 10 19.5C10 18.6716 10.2642 18 10.59 18H22.41C22.7358 18 23 18.6716 23 19.5Z" fill="#392E2A"/>
<path fill-rule="evenodd" clip-rule="evenodd" d="M28.9424 10.5306C28.9424 11.3591 28.2708 12.0306 27.4424 12.0306L7.49975 12.0306C6.67132 12.0306 5.99975 11.3591 5.99975 10.5306C5.99975 9.70221 6.67132 9.03064 7.49975 9.03064L27.4424 9.03064C28.2708 9.03064 28.9424 9.70221 28.9424 10.5306Z" fill="#392E2A"/>
<path fill-rule="evenodd" clip-rule="evenodd" d="M33 1.5C33 2.32843 32.1701 3 31.1464 3L1.85356 3C0.829863 3 -1.5576e-06 2.32843 -1.63002e-06 1.5C-1.70244e-06 0.671574 0.829863 -4.86201e-08 1.85356 -1.38114e-07L31.1464 -2.69898e-06C32.1701 -2.78847e-06 33 0.671571 33 1.5Z" fill="#392E2A"/>
</svg>
