<svg width="21" height="21" viewBox="0 0 21 21" fill="none" xmlns="http://www.w3.org/2000/svg">
<path d="M19.2544 12.3588L20.9779 3.82754C21.1023 3.21156 20.6861 2.625 20.1246 2.625H5.80446L5.47028 0.78709C5.38701 0.328986 5.0287 0 4.61304 0H0.875C0.391745 0 0 0.440713 0 0.984375V1.64062C0 2.18429 0.391745 2.625 0.875 2.625H3.42282L5.98394 16.7112C5.37122 17.1076 4.95833 17.8509 4.95833 18.7031C4.95833 19.9717 5.87242 21 7 21C8.12758 21 9.04167 19.9717 9.04167 18.7031C9.04167 18.0602 8.80662 17.4794 8.42829 17.0625H16.0717C15.6934 17.4794 15.4583 18.0602 15.4583 18.7031C15.4583 19.9717 16.3724 21 17.5 21C18.6276 21 19.5417 19.9717 19.5417 18.7031C19.5417 17.7937 19.0718 17.0079 18.3904 16.6357L18.5915 15.64C18.7159 15.0241 18.2998 14.4375 17.7383 14.4375H7.95218L7.71356 13.125H18.4011C18.8097 13.125 19.1639 12.807 19.2544 12.3588Z" fill="white"/>
</svg>
