<svg width="24" height="24" viewBox="0 0 24 24" fill="none" xmlns="http://www.w3.org/2000/svg">
<path d="M23.3164 18.8533L17.8964 13.9253C17.6402 13.6925 17.3035 13.5683 16.9575 13.579C16.6114 13.5897 16.283 13.7344 16.0417 13.9827L12.851 17.264C12.083 17.1173 10.539 16.636 8.94971 15.0507C7.36038 13.46 6.87904 11.912 6.73638 11.1493L10.015 7.95733C10.2636 7.71616 10.4086 7.38776 10.4193 7.0416C10.43 6.69545 10.3056 6.35871 10.0724 6.10266L5.14571 0.683993C4.91243 0.427135 4.58821 0.271332 4.24191 0.249673C3.89561 0.228013 3.55451 0.342204 3.29104 0.567993L0.39771 3.04933C0.167191 3.28068 0.029602 3.58859 0.0110426 3.91466C-0.00895738 4.24799 -0.390291 12.144 5.73238 18.2693C11.0737 23.6093 17.7644 24 19.607 24C19.8764 24 20.0417 23.992 20.0857 23.9893C20.4117 23.9711 20.7195 23.8329 20.9497 23.6013L23.4297 20.7067C23.6564 20.444 23.7714 20.1032 23.7502 19.7569C23.7291 19.4107 23.5734 19.0864 23.3164 18.8533V18.8533Z" fill="#48794D"/>
</svg>
